<svg id="圖層_1" data-name="圖層 1" xmlns="http://www.w3.org/2000/svg" viewBox="0 0 500 500"><defs><style>.cls-1{fill:#38588c;}</style></defs><title>未命名-1</title><path class="cls-1" d="M160.81,234.25C179.3,255.94,199,276.39,219,296.68c17.37,17.61,35.48,42.3,57.53,53.81a6.66,6.66,0,0,0,9.05-9c-11.81-21.89-37.2-39.25-55.09-56.26q-30.92-29.38-60.93-59.72c-5.69-5.77-13.91,2.77-8.78,8.78Z"/><path class="cls-1" d="M215,190.84c32.15,41.34,65.71,82.48,104,118.37,8.06,7.56,20.13-4.41,12.16-12.16-37.68-36.67-75.45-72.66-109.73-112.63-3.88-4.52-9.92,1.92-6.42,6.42Z"/><path class="cls-1" d="M158.28,316c26.62-20,50.8-43.27,75.6-65.46,24.37-21.81,53.56-42.47,73-68.8,4-5.39-3.67-12.19-8.94-8.93-26.4,16.28-48.15,42.24-70.62,63.52-25.11,23.79-51.46,46.81-74.46,72.67-3.15,3.53,1.13,10.22,5.4,7Z"/><path class="cls-1" d="M195.4,364c33.1-23.45,63.69-50.14,93.91-77.13,13.45-12,26.66-24.29,40.16-36.24,5.54-4.89,15.19-10.3,18.2-17.23,1.71-4,.65-9.15-4.19-10.3-16.32-3.89-44.57,33.66-54.52,43-32.58,30.64-64.47,62.36-99,90.87-3.87,3.2,1.26,9.94,5.4,7Z"/></svg>