<?xml version="1.0" encoding="utf-8"?>
<!-- Generator: Adobe Illustrator 25.0.0, SVG Export Plug-In . SVG Version: 6.00 Build 0)  -->
<svg version="1.1" id="Capa_1" xmlns="http://www.w3.org/2000/svg" xmlns:xlink="http://www.w3.org/1999/xlink" x="0px" y="0px"
	 viewBox="0 0 370 250" style="enable-background:new 0 0 50 40;" xml:space="preserve">
<path d="M20.2,29.6c0.5,0.1,1-0.2,1.1-0.6c0.1-0.5-0.2-1-0.6-1.1c-4-1.1-7.3-3.3-8.7-4.5c1.6-1.2,5.2-3.8,9.8-4.7
	c-1.2,1-2,2.5-2,4.2c-0.1,2,0.7,4,2.2,5.4c1.4,1.3,3.1,2,5,1.9c0.5,0,1.8-0.3,1.8-0.3c6.7-1.3,11.7-5.7,11.9-5.9
	c0.2-0.2,0.3-0.4,0.3-0.7c0-0.3-0.1-0.5-0.3-0.7c-0.3-0.3-6.9-6.2-15.3-6.2c-8.4,0-15,6-15.3,6.2c-0.2,0.2-0.3,0.4-0.3,0.7
	c0,0.3,0.1,0.5,0.3,0.7C10.1,24.2,14.3,28,20.2,29.6z M25.2,18.7c0,0,0.1,0,0.1,0c0.9,0,1.7,0.4,2.3,1c0.6,0.6,0.9,1.4,0.8,2.2
	c0,1.3-1.2,2.3-2.5,2.2c-0.5,0-0.9-0.2-1.2-0.5c-0.3-0.3-0.5-0.7-0.4-1.2c0-0.6,0.6-1.1,1.2-1.1c0,0,0.1,0,0.1,0
	c0.5,0,0.9-0.4,0.9-0.9c0-0.5-0.4-0.9-0.9-0.9c-1.7,0-3.1,1.2-3.1,2.9c0,0.9,0.3,1.8,0.9,2.4c0.7,0.7,1.5,1.1,2.5,1.1
	c0,0,0.1,0,0.1,0c2.3,0,4.1-1.8,4.2-4c0-1.2-0.4-2.4-1.2-3.4c4.1,1.1,7.5,3.4,9,4.5c-1.6,1.2-5.5,3.9-10.2,4.8c0,0-1.2,0.2-1.6,0.2
	c-1.3,0.1-2.6-0.4-3.6-1.4c-1.1-1.1-1.7-2.6-1.7-4.1C21,20.4,22.9,18.7,25.2,18.7z M9.2,20.5c-0.2,0.1-0.4,0.2-0.6,0.2
	c-0.3,0-0.5-0.1-0.7-0.3l-2.7-3.1c-0.3-0.4-0.3-0.9,0.1-1.3c0.4-0.3,0.9-0.3,1.3,0.1l2.7,3.1C9.6,19.6,9.5,20.2,9.2,20.5z
	 M44.8,17.3l-2.7,3.1c-0.2,0.2-0.4,0.3-0.7,0.3c-0.2,0-0.4-0.1-0.6-0.2c-0.4-0.3-0.4-0.9-0.1-1.3l2.7-3.1c0.3-0.4,0.9-0.4,1.3-0.1
	C45.1,16.4,45.1,17,44.8,17.3z M25.3,13.9v-3.5c0-0.5,0.4-0.9,0.9-0.9c0.5,0,0.9,0.4,0.9,0.9v3.5c0,0.5-0.4,0.9-0.9,0.9
	C25.7,14.8,25.3,14.4,25.3,13.9z M11.5,13.7c-0.2-0.4-0.1-1,0.4-1.2c0.4-0.2,1-0.1,1.2,0.4l1.7,3.1c0.2,0.4,0.1,1-0.4,1.2
	c-0.1,0.1-0.3,0.1-0.4,0.1c-0.3,0-0.6-0.2-0.8-0.5L11.5,13.7z M18.9,14.6L18,11.2c-0.1-0.5,0.2-1,0.7-1.1c0.5-0.1,1,0.2,1.1,0.7
	l0.9,3.4c0.1,0.5-0.2,1-0.7,1.1c-0.1,0-0.2,0-0.2,0C19.3,15.3,19,15,18.9,14.6z M30.9,14.1l0.9-3.4c0.1-0.5,0.6-0.8,1.1-0.7
	c0.5,0.1,0.8,0.6,0.7,1.1l-0.9,3.4c-0.1,0.4-0.5,0.7-0.9,0.7c-0.1,0-0.1,0-0.2,0C31.1,15.1,30.8,14.6,30.9,14.1z M36.9,17.3
	c-0.4-0.2-0.6-0.8-0.4-1.2l1.7-3.1c0.2-0.4,0.8-0.6,1.2-0.4c0.4,0.2,0.6,0.8,0.4,1.2l-1.7,3.1c-0.2,0.3-0.5,0.5-0.8,0.5
	C37.2,17.4,37,17.4,36.9,17.3z"/>
</svg>
