<svg id="圖層_1" data-name="圖層 1" xmlns="http://www.w3.org/2000/svg" viewBox="0 0 500 500"><defs><style>.cls-1{fill:#38588c;}</style></defs><title>未命名-1</title><path class="cls-1" d="M99.21,193.18c-3.52,28.49-1.14,57.72-2.56,86.38a4.38,4.38,0,0,0,4.33,4.32c111.86,1.83,223.72-2.34,335.59-.82,6.11.08,6.11-9.43,0-9.5-71.21-.8-142.41.69-213.61,1.51-34.58.39-70.91,3.61-105.35.34-11.92-1.14-10.61.92-11.76-10.42-.74-7.3.22-15.14.25-22.53.07-16.4.43-32.89-.18-49.28-.16-4.42-6.19-4.19-6.71,0Z"/><path class="cls-1" d="M102.57,196.07c55.83,5.45,113.66,2.2,169.77,3,56.26.75,112.52,1.67,168.78,2.43l-4.89-4.88a749.22,749.22,0,0,1-4.88,81.74c-.75,6.64,9.73,6.64,10.43,0A796.91,796.91,0,0,0,446,196.57a5,5,0,0,0-4.88-4.89c-56.26-.62-112.52-1.4-168.78-2-56-.6-114-4.78-169.77.61a2.89,2.89,0,0,0,0,5.78Z"/><path class="cls-1" d="M100.93,190.37c-11.57,8.19-33.35,16.1-36.78,30.38-2.57,10.74,0,25.4,0,36.39.06,16.3.12,32.61.69,48.9.11,3.22,4,6.27,7,4,11.65-8.57,23.15-17.2,31.46-29.14,1.58-2.28-1.51-5.15-3.75-3.74C88,284.44,78.32,294.08,67.16,302l7,4c-.45-26.21.5-52.62-.66-78.8-.48-10.83-1-6.5,9-14.11,7.55-5.76,15.2-11.32,22.29-17.65,2.71-2.42-.9-7.26-3.94-5.11Z"/><path class="cls-1" d="M70.9,238.93c4.41-2.9,9-5.49,13.59-8.09,3.87-2.2,8.74-4,10.39-8.36a2.29,2.29,0,0,0-2.19-2.88c-4.42,0-8.31,4-12,6.23-4.27,2.69-8.51,5.4-12.6,8.38-2.79,2-.23,6.69,2.76,4.72Z"/><path class="cls-1" d="M71,261.28a60.7,60.7,0,0,0,10.77-7.57c3.45-3,7.51-5.94,9.16-10.28a1.87,1.87,0,0,0-2.28-2.29c-4.09,1.28-6.9,4.77-10.06,7.51A56.8,56.8,0,0,1,68,256.11c-3.41,1.8-.38,7,3,5.17Z"/><path class="cls-1" d="M83.22,277a157.86,157.86,0,0,1,12.53-11.31c3.14-2.57,6.21-4.72,7.77-8.57a1.86,1.86,0,0,0-2.28-2.28c-3.76,1.43-6.58,4.16-9.67,6.67A157.92,157.92,0,0,0,79,272.72c-2.72,2.73,1.52,7,4.23,4.23Z"/><path class="cls-1" d="M69.52,313.6c78.86,3.74,158,1.68,236.94.75,25.33-.3,50.86.37,76.15-1.11,20.71-1.21,41.73-19,57-31.86,3.77-3.17-1.13-9.46-5.25-6.81C420,283.81,404.19,298.45,387.87,304c3.12-1.06-7.87,0-10.14,0-27,.75-54.07,1.79-81.11,2.44-75.67,1.8-151.4,3.19-227.1,2.38-3.07,0-3,4.6,0,4.75Z"/><path class="cls-1" d="M109.34,304.17c3-2.94,6-5.89,9.2-8.62,3.59-3.08,8.48-5.61,11-9.65,1.25-2-.81-4.28-2.91-3.79-4.69,1.1-8.68,5.44-12,8.72-3.14,3.08-6,6.39-8.94,9.69-2.18,2.47,1.25,6,3.65,3.65Z"/><path class="cls-1" d="M151.33,301a57.78,57.78,0,0,1,7.35-8.94c2.65-2.62,5.9-4.62,8.35-7.4,1.46-1.66.09-5-2.36-4.06-7.62,2.8-13.89,11-18.24,17.53-2,3.06,2.87,5.89,4.9,2.87Z"/><path class="cls-1" d="M183.65,306.63c5.44-4.39,10.73-9,16.31-13.22,4.45-3.36,11-5.91,13.54-11a2.25,2.25,0,0,0-1.91-3.34c-6.07-.07-11.38,5.23-15.86,8.86-5.66,4.58-11,9.57-16.46,14.34-3.05,2.65,1.33,6.84,4.38,4.38Z"/><path class="cls-1" d="M225,302.13c4.06-3.62,8.36-6.92,12.71-10.19,3.86-2.89,8-5.39,10.37-9.68a2,2,0,0,0-2.22-2.88c-5.13,1.55-9.15,5.4-13.35,8.62s-8.08,6.3-11.89,9.75c-3,2.69,1.42,7,4.38,4.38Z"/><path class="cls-1" d="M272.06,305a114.79,114.79,0,0,1,15.62-12.53c4.44-2.91,10.79-5.12,13.38-10,.64-1.19.17-3.16-1.39-3.41-6.16-1-12,3.52-16.94,6.79a128.64,128.64,0,0,0-16.51,13.3c-3.88,3.65,2,9.48,5.84,5.84Z"/><path class="cls-1" d="M301.76,313.9a252.91,252.91,0,0,1,24.74-16.78c7.39-4.43,17.64-7.68,23.42-14.12,1.27-1.42.48-4.06-1.64-4-9,.4-17.89,7.5-25.28,12.1a262,262,0,0,0-25.12,17.74c-2.81,2.25,1,7.25,3.88,5Z"/><path class="cls-1" d="M365.3,304c10.74-6,19.86-14.25,30.28-20.68,2.51-1.55.31-5.18-2.3-3.92-11,5.32-20.57,13.09-31.32,18.89-3.74,2-.39,7.78,3.34,5.71Z"/><path class="cls-1" d="M124.7,208.41c-.52,9.2-.88,18.38-1.13,27.59-.22,8.05-1.3,16.61,1.47,24.27a2.4,2.4,0,0,0,4.58,0c2.75-7.62,1.69-16.28,1.47-24.27-.25-9.21-.61-18.39-1.13-27.59a2.63,2.63,0,0,0-5.26,0Z"/><path class="cls-1" d="M125.69,215.3a204.07,204.07,0,0,1,22,.33c6,.43,11.8,2.29,17.46-.14,2.16-.93,1.43-3.71,0-4.82-4.81-3.7-11.6-2.89-17.46-3a204.09,204.09,0,0,0-22,.75c-4.37.37-4.51,7.08,0,6.91Z"/><path class="cls-1" d="M130.64,236.35l18.11.54c4.89.15,10.46,1.57,14.59-1.46a2.64,2.64,0,0,0,0-4.46c-4.13-3-9.7-1.61-14.59-1.46l-18.11.54c-4,.12-4.06,6.18,0,6.3Z"/><path class="cls-1" d="M187,217.08c-9.24,7.65-15.49,20.43-8.07,31.52,6.12,9.14,18.57,11,26.57,3.27S217.19,228.81,211,219c-4.47-7.12-19-12.34-22.81-2a2.75,2.75,0,0,0,2.64,3.46c5.91-.34,11.79-1.72,14.1,5.68,1.89,6-.51,14.5-4.77,19.07-5.48,5.86-13.76,2.31-16.21-4.66-2.58-7.34,1.36-15,6.21-20.27a2.22,2.22,0,0,0-3.14-3.13Z"/><path class="cls-1" d="M224.65,215.91c.21,7.18.43,14.35.78,21.52.22,4.42-.47,11,1.4,15.1S234,256,237.9,255.89c6.07-.08,16.17,1.31,20.81-3.38a2.47,2.47,0,0,0-.49-3.81c-4.47-3.25-11.57-1.12-16.7-.74-2,.16-6.27-.48-8.06.43h-1.37q-1.68-.13,1.68,1.79c.14-.13-.39-1.54-.38-1.8.31-4.82-1.22-10.54-1.63-15.38-.49-5.69-.92-11.38-1.33-17.08-.26-3.67-5.88-3.75-5.78,0Z"/><path class="cls-1" d="M266.63,216.62c.81,11.58.4,23-.08,34.58a4.66,4.66,0,0,0,4.61,4.61l16.57.2c4.62.06,9.06.66,12.88-2.18a2.83,2.83,0,0,0,0-4.81c-3.77-2.88-8.28-2.34-12.88-2.36l-16.57-.07q2.29,2.31,4.61,4.61c.39-11.83-1-23.75-2.95-35.41-.58-3.49-6.43-2.7-6.19.83Z"/><path class="cls-1" d="M317,215.21c-8.52,6.91-9.63,17.41-6.77,27.53,2.49,8.85,15,17,23,9.81,7.42-6.63,8.58-21.37,3.13-29.29-3.75-5.46-13.71-15.62-19.53-7.2-1.12,1.61.34,4.33,2.36,4.11,4-.43,8.08,4.28,10.06,7.25,3,4.48,2.79,13-.73,17.43-4.82,6.1-10.9-3.6-11.87-8.07-1.46-6.7-.5-12.35,4.77-17.12,3-2.76-1.37-6.95-4.45-4.45Z"/><path class="cls-1" d="M346.76,218.08c4.43,9.47,8.89,18.94,13.74,28.21,1.64,3.14,4.48,11.48,8.8,12.43,9,2,20.76-25.84,23.82-31.72h-7c3.93,8.53,5.83,24.25,12.95,30.75a4.4,4.4,0,0,0,5.17.66c5.41-3.09,8.68-12.18,11.38-17.31,3.6-6.86,10.92-16.87,8.92-24.94-.42-1.73-2.9-3-4.47-1.82-5.37,4.11-6.85,11.69-9.73,17.66-2.14,4.43-6,16.44-10.41,19.05l5.17.67c-6.08-5.38-8.41-21.24-12-28.79-1.66-3.49-6.21-1.91-7.37,1-2.41,6-6,11.68-9.41,17.16-1.35,2.18-3.15,5.94-5,7.73-3.59,3.39,1.65,2.23-1.61.36-3.68-2.1-7.72-12.89-9.76-16.55-3.11-5.59-6.14-11.22-9.15-16.86-1.43-2.67-5.26-.32-4,2.35Z"/></svg>