<svg id="圖層_1" data-name="圖層 1" xmlns="http://www.w3.org/2000/svg" viewBox="0 0 500 500"><defs><style>.cls-1{fill:#38588c;}</style></defs><title>未命名-1</title><path class="cls-1" d="M261.3,349.79c-26.09-22-59.54-37-77.43-67.38-10.45-17.78-25.25-87,17-80.18,31.24,5,45.31,60.54,52.3,85.33,2.23,7.93,13.3,7.56,15.7,0,5.71-18,23.53-81.32,53.89-75.63,29.07,5.45,13.62,50.79,2.22,66.5-18.31,25.24-47.91,46.92-72.88,65.26-11.53,8.47-.07,27.94,11.27,19.27,40.92-31.28,111-81.48,94-142.59-6.19-22.26-30.36-36.34-52.91-26.48C274.32,207.1,254.37,255,252.91,285.4l15.17-4.11c-11.72-27.64-25.48-83.63-60.59-92-23.23-5.55-42.18,7.61-46.41,29.1-14.39,73,45.83,100.59,93.15,138.49,4.94,4,12-2.88,7.07-7.07Z"/></svg>