<svg id="圖層_1" data-name="圖層 1" xmlns="http://www.w3.org/2000/svg" viewBox="0 0 500 500"><defs><style>.cls-1{fill:#38588c;}</style></defs><title>未命名-1</title><path class="cls-1" d="M196.6,210.78c-12.7-15-43.46-8.9-42.58,13.34.56,14,13.24,17.27,23.63,23.12,9.81,5.52,20,12.95,18.32,25.64-2.48,19.11-29.44,10.2-36.61-.37-2.38-3.52-8.17,0-6.35,3.84,8.6,18,47,23.22,49.55-1.24,1.19-11.53-3.14-21.33-12.33-28-5.44-4-13.89-6.42-18.78-10.9-9.52-8.73-8-24,3.49-26.15,6.27-1.19,12.63,1.38,17.52,5,2.69,2,6.37-1.63,4.14-4.28Z"/><path class="cls-1" d="M204.74,202.52c-2,13.93,2.22,29.7,4.19,43.48,1.67,11.67.65,28.87,7.59,38.69a2.32,2.32,0,0,0,3.94-.58c3.87-11.36-2.05-27.64-3.8-39.24-2.08-13.81-2.53-30.06-8.43-42.86a1.84,1.84,0,0,0-3.49.51Z"/><path class="cls-1" d="M213.9,243.26c9.88-.55,21-1.3,30.18-5.26a2.23,2.23,0,0,0-1.22-4.23c-10,1.46-19.47,4.46-29.56,5.44-2.64.26-2,4.19.6,4Z"/><path class="cls-1" d="M236.17,199.16c1.94,25.63.92,55.57,8.23,80.21.88,3,5.56,2,5.82-.85,2.32-25.48-5.6-54.8-9.65-80-.46-2.84-4.61-2.18-4.4.65Z"/><path class="cls-1" d="M257.52,279.35c5.83-28.13,7.48-56.78,14.5-84.74l-5.08,0c5.54,26.77,14.83,54.79,24.44,80.35,1.37,3.63,7,1.88,6.47-1.86-3.83-26.69-16.3-54.86-26-79.89-1-2.58-4.37-1.55-4.9.71-6.48,28-9.34,56.54-11.66,85.1a1.13,1.13,0,0,0,2.25.28Z"/><path class="cls-1" d="M261.88,240.93c7-1.56,14.15-2.23,21.15-3.75,1.67-.37,1.88-3.06,0-3.2a83.44,83.44,0,0,0-21.91,1.44c-3.52.69-2.68,6.29.8,5.51Z"/><path class="cls-1" d="M291.5,191.07q3.76,22.08,6.87,44.27c1.74,12.38,1,28.08,7.47,38.93.87,1.46,3.67,2.1,4.25-.06,3.21-11.86-1.51-25.27-3.73-37.1q-4.41-23.48-9.52-46.82c-.73-3.35-5.93-2.68-5.34.78Z"/><path class="cls-1" d="M294.91,192.35c15.16-6.85,31.74,7,25.23,22.6C316.87,222.77,309,225.39,302,229c-3.15,1.65-3,7,1.07,7.32,16.38,1.36,26.43,19.09,32.57,32.21,1.6,3.4,7.55,2.06,6.64-1.91-3.87-16.84-19.69-36.88-38.26-37.91q.53,3.66,1.07,7.32c13.72-7.65,25.45-14.26,22-32.29-3.15-16.68-19.47-22-33.73-14.76-2.09,1.05-.69,4.32,1.47,3.34Z"/><path class="cls-1" d="M336.43,184.51A541.53,541.53,0,0,1,347.14,266c.13,2.19,2.48,3.5,4.44,3.31,9.74-.94,19.26-1.9,28.55-5,3.69-1.25,1.51-6.12-1.74-6.05-9.36.21-18.62,2.28-27.94,3.33l4.45,3.31a481.42,481.42,0,0,0-13-81.1c-.85-3.36-6.18-2.7-5.42.8Z"/><path class="cls-1" d="M346.16,224.36a85.17,85.17,0,0,1,10.89-1.64,68.85,68.85,0,0,0,7.86-.52c2.95-.56,3.09-5-.06-5.41-6.43-.75-13.26,1.07-19.39,2.75-2.94.8-2.44,5.46.7,4.82Z"/><path class="cls-1" d="M339.5,186.56c6.74-.6,13.48-.43,20.23-.48,4.46,0,9.25.74,12.38-2.85a2.28,2.28,0,0,0-.46-3.17c-4-2.71-9.52-.82-14.1-.43-6.28.53-12.55,1-18.77,2-3.16.55-2.45,5.2.72,4.91Z"/><path class="cls-1" d="M139.92,181.37c-14,5.48-15.19,24.53-14.9,37.35.54,24.09,7.46,48.85,10.73,72.76,2.9,21.21,14.67,25.67,35.2,26.91,30.62,1.86,61.64-4.41,91.87-8.38,34-4.47,68.1-8.27,102-13.34,22.26-3.34,42.38-2.9,43-29.18.71-29.87-4.4-60.42-12.66-89.05-6.25-21.68-13.26-26.63-35.34-25.12-36.83,2.52-73.6,6.74-110.18,11.6-36.28,4.81-75.61,7.18-110.9,16.83-4.48,1.22-3.65,8.38,1.07,7.32,27.21-6.13,56.05-7.52,83.7-11.38,29.5-4.12,59.07-7.57,88.7-10.6,15.11-1.54,30.25-2.85,45.38-4.28,11.88-1.13,21.76-.16,28.22,11.73,3.8,7,5,17.64,6.75,25.36a264,264,0,0,1,6.18,43.61c.37,7.16,3.07,22.67-.11,29.82-4.26,9.54-15.89,11-24.6,12.47-59.19,10.05-120.31,20.43-180.22,24.58-16.05,1.11-43,5.56-50.44-15.09-3.67-10.24-3.2-24.67-4.87-35.39-2.3-14.79-16.45-62.93,4.54-71.43,4.62-1.88,1.52-8.92-3.12-7.1Z"/><path class="cls-1" d="M139.65,182.38C123,181.69,105.49,198,98.24,212.16c-9.73,19.05-4.8,48.83-1.35,69,2.32,13.57,5.62,26.94,8.33,40.43,1.29,6.4,1.39,17.32,7.86,21.33,4.52,2.8,7.69,1.55,11.77-1.34,9.32-6.59,19.62-20.9,25-30.95,1.3-2.44-2.23-4.76-4.19-3.12-5.67,4.76-10.32,10.17-15.24,15.7-5.25,5.92-10.49,15.56-16,5.09-3.31-6.24-3.61-17.6-5.13-24.69-1.9-8.8-3.79-17.6-5.24-26.49-2.53-15.45-3.89-32.47-2.12-48.1,2.17-19.12,20.86-35.6,38.61-40.79,2.88-.85,2-5.7-.85-5.82Z"/><path class="cls-1" d="M110.63,337.52c-.61,17.82,121.67,4.53,132.27,3.54,32.44-3,64.9-6.64,97.06-11.86,8.6-1.4,18.09-2.31,26.33-5.36,17.14-6.34,27.54-23.63,36.63-38.38,2.69-4.37-3.31-9.08-6.49-4.84C386.32,294.1,377.92,310.7,361,316.35c-7.83,2.62-16.71,3.43-24.83,4.75-26.95,4.37-54.1,7.6-81.24,10.61-10.72,1.19-141.69,16.52-141.88,5.79,0-1.36-2.37-1.35-2.42,0Z"/><path class="cls-1" d="M144.64,343.72c4.14-1.91,7.37-5.12,10.28-8.57,3.31-3.93,8-8.29,9.83-13.07.47-1.21-.86-2.79-2.14-2.08-4.44,2.49-7.08,7.49-10,11.5-2.81,3.82-6.2,7-9.31,10.51-.76.87.38,2.17,1.37,1.71Z"/><path class="cls-1" d="M170.94,344.56a126.09,126.09,0,0,1,10.47-14.78c2.1-2.53,4.34-5,6.66-7.29,1.85-1.86,3.42-2.95,4.14-5.46.23-.82-.34-2.08-1.4-1.78-5.06,1.45-8.56,7.81-11.54,11.86a138.62,138.62,0,0,0-10.36,16.31c-.63,1.16,1.33,2.28,2,1.14Z"/><path class="cls-1" d="M189.38,344c4.52-5.05,9.23-9.92,14.18-14.55,3.76-3.52,8.58-6.54,11.05-11.1.83-1.53-1.07-2.71-2.37-2.3-5.51,1.77-10.18,7.5-14.26,11.45-4.44,4.29-8.68,8.77-12.79,13.38-2.24,2.52,2,5.61,4.19,3.12Z"/><path class="cls-1" d="M211.73,343.05c4.67-5.18,9.53-10.18,14.65-14.92,4.25-3.95,9.16-7.42,12.87-11.88,1.27-1.52-.66-4.09-2.46-3.1-11,6.08-20.4,17.88-28.55,27.3-1.85,2.13,1.63,4.65,3.49,2.6Z"/><path class="cls-1" d="M244.28,338.7a86,86,0,0,1,11.36-13.17c3.31-3.09,8.19-5.66,10.07-9.87a1.72,1.72,0,0,0-1.82-2.32c-5.06.36-9.57,5.51-13,8.88a93.46,93.46,0,0,0-11.09,13.15c-2.05,2.94,2.39,6.26,4.47,3.33Z"/><path class="cls-1" d="M273.06,337.05l10.16-12.21c3.13-3.77,7.14-7.41,8.58-12.19.39-1.29-.85-3.06-2.31-2.25-4.38,2.46-7,6.87-10,10.76l-10.16,13.08c-1.87,2.41,1.84,5.12,3.77,2.81Z"/><path class="cls-1" d="M300.17,332c3.63-3.94,7.35-7.82,10.8-11.92,3-3.59,8.1-8.1,7.8-13a2,2,0,0,0-2.22-1.66c-4.77,1.36-7.35,7.4-10.33,11.15-3.33,4.18-6.93,8.15-10.45,12.18-2.34,2.69,2,5.83,4.4,3.28Z"/><path class="cls-1" d="M330.16,326.11c5.91-6.38,10.66-13.68,15.42-20.92a1.62,1.62,0,0,0-2.29-2.22c-7,5.56-11.56,13.35-17.45,19.92-2.34,2.6,2,5.73,4.32,3.22Z"/><path class="cls-1" d="M119.19,318.63c3.92-3.78,7.92-7.49,11.74-11.37,3.64-3.71,8.61-7.79,10.43-12.7.4-1.08-.79-2.62-2-1.91-4.44,2.66-7.39,7.64-10.87,11.45-3.71,4.06-7.62,7.93-11.45,11.87-1.49,1.53.52,4.2,2.12,2.66Z"/><path class="cls-1" d="M115,300.7l12.08-13.78c3-3.48,8.6-7.63,8.86-12.47a1.81,1.81,0,0,0-2-2c-4.87,1.05-7.74,6.67-10.77,10.33q-6.12,7.43-12.26,14.84c-2.12,2.57,2,5.53,4.12,3.07Z"/><path class="cls-1" d="M114.48,277a98.4,98.4,0,0,1,9.37-8.77c2.5-2.21,6.47-4.94,6.91-8.52.16-1.35-1.17-3-2.68-2.61-3.66,1-6.62,4.9-9.41,7.36a92.27,92.27,0,0,0-9.21,8.8c-2.64,3.06,2.4,6.78,5,3.74Z"/><path class="cls-1" d="M107.26,253.09c6.55-4.63,12.66-11.08,17.9-17.11,1.77-2-.87-4.94-3.14-3.95-7.49,3.25-12,11.64-18.4,16.5-3,2.28.59,6.72,3.64,4.56Z"/><path class="cls-1" d="M105.18,235.38c3-2.54,5.76-5.16,8.55-7.9,2.17-2.14,6.1-5.16,6.94-8.16.36-1.28-.49-2.94-2-2.61-3.24.69-6.2,4.34-8.37,6.67a67.77,67.77,0,0,0-7.61,9.54c-1,1.62.92,3.85,2.54,2.46Z"/><path class="cls-1" d="M355.9,319.33c2.93-3.28,5.87-6.55,8.78-9.84,2.32-2.62,5.5-5.52,6.14-9.06a1.14,1.14,0,0,0-1.58-1.18c-3.32,1.25-5.7,5.1-7.81,7.81-2.7,3.45-5.36,6.93-8,10.39-1.26,1.63,1.19,3.36,2.51,1.88Z"/><path class="cls-1" d="M147,215.68c-.78-5.29-1.81-12,2.49-16,2.15-2,7.09-2.75,4.72-6.65a2.89,2.89,0,0,0-2.76-1.08,13.84,13.84,0,0,0-9.94,9c-2,5.44-.92,10.84,1.68,15.83,1,1.94,4.15,1.23,3.81-1.1Z"/><path class="cls-1" d="M168,194.89l.15-.41c.78-2.16-.5-5.49-3.22-5.48h-.39c-3.33,0-6.25,3.2-4.19,6.49,1.76,2.81,6.43,2.77,7.65-.6Z"/><path class="cls-1" d="M383.72,224.86a13.07,13.07,0,0,0,1.88,5.63c.88,1.57,1.55,3.52,3.38,4.11a2.12,2.12,0,0,0,2.46-.69c1.08-1.87.48-3.46,0-5.48a13.62,13.62,0,0,0-2.53-5.83c-2-2.4-5.29-.55-5.22,2.26Z"/><path class="cls-1" d="M388.18,247.1c.25,2.27,0,5.56,2.11,7a2.3,2.3,0,0,0,3.11-.45c1.66-1.94.45-5,0-7.27a2.65,2.65,0,0,0-5.25.77Z"/><path class="cls-1" d="M392.61,268.72c4.82-.7,3.73-8.2-1.1-7.49s-3.73,8.2,1.1,7.49Z"/></svg>