<svg xmlns="http://www.w3.org/2000/svg" width="40" height="40" viewBox="0 0 90 90">
  <g id="Group_910" data-name="Group 910" transform="translate(-1033.199 -990.2)">
    <g id="Path_648" data-name="Path 648" transform="translate(1033.199 990.2)" fill="#fff">
      <path d="M 45 88.5 C 39.12687683105469 88.5 33.43022537231445 87.35007476806641 28.06830024719238 85.08217620849609 C 22.88852500915527 82.89131164550781 18.23629951477051 79.75458526611328 14.2408504486084 75.75914764404297 C 10.24541282653809 71.76370239257812 7.108687400817871 67.11147308349609 4.917825222015381 61.93170166015625 C 2.649924993515015 56.56977462768555 1.5 50.87312316894531 1.5 45 C 1.5 39.12687683105469 2.649924993515015 33.43022537231445 4.917825222015381 28.06830024719238 C 7.108687400817871 22.88852500915527 10.24541282653809 18.23629951477051 14.2408504486084 14.2408504486084 C 18.23629951477051 10.24541282653809 22.88852500915527 7.108687400817871 28.06830024719238 4.917825222015381 C 33.43022537231445 2.649924993515015 39.12687683105469 1.5 45 1.5 C 50.87312316894531 1.5 56.56977462768555 2.649924993515015 61.93170166015625 4.917825222015381 C 67.11147308349609 7.108687400817871 71.76370239257812 10.24541282653809 75.75914764404297 14.2408504486084 C 79.75458526611328 18.23629951477051 82.89131164550781 22.88852500915527 85.08217620849609 28.06830024719238 C 87.35007476806641 33.43022537231445 88.5 39.12687683105469 88.5 45 C 88.5 50.87312316894531 87.35007476806641 56.56977462768555 85.08217620849609 61.93170166015625 C 82.89131164550781 67.11147308349609 79.75458526611328 71.76370239257812 75.75914764404297 75.75914764404297 C 71.76370239257812 79.75458526611328 67.11147308349609 82.89131164550781 61.93170166015625 85.08217620849609 C 56.56977462768555 87.35007476806641 50.87312316894531 88.5 45 88.5 Z" stroke="none"/>
      <path d="M 45 3 C 39.32871246337891 3 33.82865524291992 4.110054016113281 28.65262985229492 6.299339294433594 C 23.65165710449219 8.414573669433594 19.15968322753906 11.44334411621094 15.301513671875 15.301513671875 C 11.44334411621094 19.15968322753906 8.414573669433594 23.65165710449219 6.299339294433594 28.65262985229492 C 4.110054016113281 33.82865524291992 3 39.32871246337891 3 45 C 3 50.67128753662109 4.110054016113281 56.17134475708008 6.299339294433594 61.34737396240234 C 8.414573669433594 66.34834289550781 11.44334411621094 70.84031677246094 15.301513671875 74.698486328125 C 19.15968322753906 78.55665588378906 23.65165710449219 81.58542633056641 28.65262985229492 83.70066070556641 C 33.82865524291992 85.88994598388672 39.32871246337891 87 45 87 C 50.67128753662109 87 56.17134475708008 85.88994598388672 61.34737396240234 83.70066070556641 C 66.34834289550781 81.58542633056641 70.84031677246094 78.55665588378906 74.698486328125 74.698486328125 C 78.55665588378906 70.84031677246094 81.58542633056641 66.34834289550781 83.70066070556641 61.34737396240234 C 85.88994598388672 56.17134475708008 87 50.67128753662109 87 45 C 87 39.32871246337891 85.88994598388672 33.82865524291992 83.70066070556641 28.65262985229492 C 81.58542633056641 23.65165710449219 78.55665588378906 19.15968322753906 74.698486328125 15.301513671875 C 70.84031677246094 11.44334411621094 66.34834289550781 8.414573669433594 61.34737396240234 6.299339294433594 C 56.17134475708008 4.110054016113281 50.67128753662109 3 45 3 M 45 0 C 69.85281372070312 0 90 20.14718627929688 90 45 C 90 69.85281372070312 69.85281372070312 90 45 90 C 20.14718627929688 90 0 69.85281372070312 0 45 C 0 20.14718627929688 20.14718627929688 0 45 0 Z" stroke="none"/>
    </g>
    <path id="Path_623" data-name="Path 623" d="M435.5,75.583,432.5,104.414c-.14,2.1-1.405,2.352-3.616,2.094l-.035-2.354,1.1.115,3.026-28.95-32.1-3.354-.425,4.06-2.556.118.463-4.44a2.531,2.531,0,0,1,2.782-2.255L433.243,72.8A2.532,2.532,0,0,1,435.5,75.583Zm-9.083,3.052,1.34,29.35a2.53,2.53,0,0,1-2.412,2.644l-32.237,1.48a2.529,2.529,0,0,1-2.644-2.412l-1.342-29.35a2.529,2.529,0,0,1,2.411-2.644l32.238-1.48A2.531,2.531,0,0,1,426.415,78.635Zm-33.431,30.672,32.236-1.48L423.887,78.75l-32.237,1.48Zm30.571-10.147a3.791,3.791,0,0,0-1.009-2.407l-2.267-2.444a1.9,1.9,0,0,0-2.755.127l-4.1,4.75-8.91-10.975a1.892,1.892,0,0,0-2.963.023l-6.964,9.174a3.805,3.805,0,0,0-.768,2.47l.372,8.108,29.708-1.363Zm-5.21-10.02a3.48,3.48,0,1,0-3.635-3.317A3.48,3.48,0,0,0,418.345,89.139Z" transform="translate(666.881 944.55)" fill="#ffb300"/>
  </g>
</svg>
