<svg xmlns="http://www.w3.org/2000/svg" width="116.383" height="97.284" viewBox="0 0 116.383 97.284">
  <g id="ticket" transform="translate(-1307.092 -337.727)">
    <g id="Group_853" data-name="Group 853" transform="translate(1310.937 375.331) rotate(-20)">
      <g id="Path_1482" data-name="Path 1482" transform="translate(0 0)" fill="#fff" stroke-linejoin="round">
        <path d="M 3.885807991027832 41.64636611938477 C 0.9160613417625427 41.64636611938477 -1.4999920129776 39.23000717163086 -1.4999920129776 36.2598876953125 L -1.49997866153717 3.885872602462769 C -1.49997866153717 0.9161126017570496 0.9160880446434021 -1.499954104423523 3.885834693908691 -1.499954104423523 L 74.40673065185547 -1.499994039535522 L 75.90673065185547 -1.499994039535522 L 75.90673065185547 5.911661901336629e-06 C 75.90673065185547 0.5770459175109863 76.37618255615234 1.046512603759766 76.95322418212891 1.046512603759766 C 77.53062438964844 1.046512603759766 78.00038146972656 0.5770459175109863 78.00038146972656 5.911661901336629e-06 L 78.00038146972656 -1.499994039535522 L 79.50038146972656 -1.499994039535522 L 94.81916809082031 -1.499994039535522 C 97.78929138183594 -1.499994039535522 100.2056503295898 0.9160726070404053 100.2056503295898 3.885832548141479 L 100.2056198120117 36.25983428955078 C 100.2056198120117 39.22995376586914 97.78927612304688 41.64631271362305 94.81916809082031 41.64631271362305 L 79.5003662109375 41.64631271362305 L 78.0003662109375 41.64631271362305 L 78.0003662109375 40.14631271362305 C 78.0003662109375 39.56891250610352 77.53062438964844 39.09916687011719 76.95322418212891 39.09916687011719 C 76.37616729736328 39.09916687011719 75.90670013427734 39.56891250610352 75.90670013427734 40.14631271362305 L 75.90670013427734 41.64631271362305 L 74.40670013427734 41.64631271362305 L 3.885807991027832 41.64636611938477 Z" stroke="none"/>
        <path d="M 94.81916046142578 -3.814697265625e-06 L 79.50037384033203 1.1444091796875e-05 C 79.50037384033203 1.406040191650391 78.35989379882812 2.546516418457031 76.95322418212891 2.546516418457031 C 75.54656219482422 2.546516418457031 74.40673065185547 1.406040191650391 74.40673065185547 1.1444091796875e-05 L 3.885818481445312 4.1961669921875e-05 C 1.739593505859375 4.1961669921875e-05 2.288818359375e-05 1.7396240234375 2.288818359375e-05 3.885871887207031 L -7.62939453125e-06 36.2598876953125 C -7.62939453125e-06 38.40613174438477 1.739578247070312 40.1463623046875 3.88580322265625 40.1463623046875 L 74.40670013427734 40.14631652832031 C 74.40670013427734 38.73963928222656 75.54654693603516 37.59916305541992 76.95322418212891 37.59916305541992 C 78.35987854003906 37.59916305541992 79.50035858154297 38.73963928222656 79.50035858154297 40.14631652832031 L 94.81916046142578 40.14631652832031 C 96.96540832519531 40.14630126953125 98.70561981201172 38.40608596801758 98.70561981201172 36.25982666015625 L 98.70563507080078 3.885826110839844 C 98.70563507080078 1.739578247070312 96.96542358398438 -3.814697265625e-06 94.81916046142578 -3.814697265625e-06 M 94.81916046142578 -3.000003814697266 C 98.61637878417969 -3.000003814697266 101.7056350708008 0.08896255493164062 101.7056350708008 3.885826110839844 L 101.7056198120117 36.25982666015625 C 101.7056198120117 40.05702590942383 98.61637878417969 43.14628601074219 94.81917572021484 43.14631652832031 L 79.50035858154297 43.14631652832031 C 78.42588806152344 43.14631652832031 77.48337554931641 42.58150100708008 76.95352935791016 41.73253631591797 C 76.42367553710938 42.58150100708008 75.48117065429688 43.14631652832031 74.40670013427734 43.14631652832031 L 3.88580322265625 43.1463623046875 C 0.088958740234375 43.1463623046875 -3.000007629394531 40.05710220336914 -3.000007629394531 36.2598876953125 L -2.999977111816406 3.885871887207031 C -2.999977111816406 0.08900833129882812 0.0889739990234375 -2.999958038330078 3.885818481445312 -2.999958038330078 L 74.40673065185547 -2.999988555908203 C 75.20237731933594 -2.999988555908203 75.96543884277344 -2.683914184570312 76.52805328369141 -2.121311187744141 C 76.69105529785156 -1.958305358886719 76.83339691162109 -1.778419494628906 76.95331573486328 -1.585842132568359 C 77.48313903808594 -2.434940338134766 78.42580413818359 -2.999988555908203 79.50037384033203 -2.999988555908203 L 94.81916046142578 -3.000003814697266 Z" stroke="none" fill="#070203"/>
      </g>
      <path id="Path_1483" data-name="Path 1483" d="M17.866,0H2.547A2.547,2.547,0,0,1,0,2.547V37.6a2.547,2.547,0,0,1,2.547,2.547H17.866a3.887,3.887,0,0,0,3.886-3.886V3.886A3.886,3.886,0,0,0,17.866,0Z" transform="translate(76.953 0)" fill="#12778b"/>
    </g>
    <g id="Logo" transform="translate(1333.81 371.928) rotate(-11)">
      <path id="Path_1297" data-name="Path 1297" d="M14.11,10.667,0,18.814V0Z" transform="translate(0 8.147)" fill="#540b12" stroke="#181919" stroke-linejoin="round" stroke-width="2"/>
      <path id="Path_1298" data-name="Path 1298" d="M14.11,18.814V0L0,8.147Z" transform="translate(0 0)" fill="#dd0010" stroke="#181919" stroke-linejoin="round" stroke-width="2"/>
      <path id="Path_1299" data-name="Path 1299" d="M14.11,10.667,0,18.814V0Z" transform="translate(28.223 8.147)" fill="#d18800" stroke="#181919" stroke-linejoin="round" stroke-width="2"/>
      <path id="Path_1300" data-name="Path 1300" d="M14.11,18.814V0L0,8.147Z" transform="translate(28.223 0)" fill="#f8aa17" stroke="#181919" stroke-linejoin="round" stroke-width="2"/>
      <path id="Path_1301" data-name="Path 1301" d="M0,10.667l14.11,8.147V0Z" transform="translate(14.11 8.147)" fill="#0f2144" stroke="#181919" stroke-linejoin="round" stroke-width="2"/>
      <path id="Path_1302" data-name="Path 1302" d="M0,18.814V0L14.11,8.147Z" transform="translate(14.11 0)" fill="#00398c" stroke="#181919" stroke-linejoin="round" stroke-width="2"/>
      <g id="Group_2" data-name="Group 2" transform="translate(0.73 5.563)">
        <ellipse id="Ellipse_334" data-name="Ellipse 334" cx="6.934" cy="3.923" rx="6.934" ry="3.923" transform="translate(0 12.762) rotate(-66.949)" fill="#fff" stroke="#000" stroke-width="1"/>
        <ellipse id="Ellipse_335" data-name="Ellipse 335" cx="3.467" cy="1.962" rx="3.467" ry="1.962" transform="translate(4.736 8.766) rotate(-66.949)" fill="#1a1311"/>
        <ellipse id="Ellipse_336" data-name="Ellipse 336" cx="1.387" cy="0.785" rx="1.387" ry="0.785" transform="translate(7.944 6.526) rotate(-66.949)" fill="#f6f6f6"/>
        <path id="Path_1484" data-name="Path 1484" d="M6.934,0c3.83,0,6.934,1.756,6.934,3.923s-3.1,3.923-6.934,3.923S0,6.09,0,3.923,3.1,0,6.934,0Z" transform="translate(0 12.762) rotate(-66.949)" fill="none" stroke="#171818" stroke-width="2"/>
      </g>
    </g>
    <g id="Group_854" data-name="Group 854" transform="translate(1321.895 383.164) rotate(5)">
      <g id="Path_1482-2" data-name="Path 1482" transform="translate(0 0)" fill="#fff" stroke-linejoin="round">
        <path d="M 94.81915283203125 41.64634323120117 L 79.50035095214844 41.64634323120117 L 78.00035095214844 41.64634323120117 L 78.00035095214844 40.14634323120117 C 78.00035095214844 39.56894683837891 77.53060150146484 39.09918594360352 76.95320129394531 39.09918594360352 C 76.37616729736328 39.09918594360352 75.90670013427734 39.56894683837891 75.90670013427734 40.14634323120117 L 75.90670013427734 41.64634323120117 L 74.40670013427734 41.64634323120117 L 3.885830879211426 41.64633178710938 C 0.916070818901062 41.64633178710938 -1.499995827674866 39.22997283935547 -1.499995827674866 36.25985336303711 L -1.499995827674866 3.885824918746948 C -1.500009179115295 2.447158336639404 -0.9398224949836731 1.094624996185303 0.07739083468914032 0.07741161435842514 C 1.094604134559631 -0.9398016929626465 2.447124242782593 -1.500001668930054 3.885804176330566 -1.500001668930054 L 74.40670013427734 -1.499988436698914 L 75.90670013427734 -1.499988436698914 L 75.90670013427734 1.161560066975653e-05 C 75.90670013427734 0.5770516395568848 76.37616729736328 1.046518325805664 76.95320129394531 1.046518325805664 C 77.53060150146484 1.046518325805664 78.00035095214844 0.5770516395568848 78.00035095214844 1.161560066975653e-05 L 78.00035095214844 -1.499988436698914 L 79.50035095214844 -1.499988436698914 L 94.81915283203125 -1.499988436698914 C 97.78926086425781 -1.499988436698914 100.2056045532227 0.9160916209220886 100.2056045532227 3.885851621627808 L 100.2056045532227 36.25986480712891 C 100.2056045532227 39.22998428344727 97.78926086425781 41.64634323120117 94.81915283203125 41.64634323120117 Z" stroke="none"/>
        <path d="M 3.88580322265625 3.814697265625e-06 C 1.739578247070312 3.814697265625e-06 -2.288818359375e-05 1.739570617675781 -7.62939453125e-06 3.885833740234375 L -7.62939453125e-06 36.25984954833984 C -7.62939453125e-06 38.40609359741211 1.739593505859375 40.14632415771484 3.885818481445312 40.14632415771484 L 74.40670013427734 40.14633941650391 C 74.40670013427734 38.73966217041016 75.54653167724609 37.59918594360352 76.95320892333984 37.59918594360352 C 78.35987854003906 37.59918594360352 79.50034332275391 38.73966217041016 79.50034332275391 40.14633941650391 L 94.81914520263672 40.14633941650391 C 96.96539306640625 40.14633941650391 98.70560455322266 38.40610885620117 98.70560455322266 36.25986480712891 L 98.70560455322266 3.885848999023438 C 98.70560455322266 1.739585876464844 96.96539306640625 1.9073486328125e-05 94.81914520263672 1.9073486328125e-05 L 79.50034332275391 1.9073486328125e-05 C 79.50034332275391 1.406032562255859 78.35987854003906 2.5465087890625 76.95320892333984 2.5465087890625 C 75.54653167724609 2.5465087890625 74.40670013427734 1.406032562255859 74.40670013427734 1.9073486328125e-05 L 3.88580322265625 3.814697265625e-06 M 3.88580322265625 -2.999996185302734 L 74.40670013427734 -2.999980926513672 C 75.48117065429688 -2.999980926513672 76.42366790771484 -2.4351806640625 76.95352172851562 -1.586215972900391 C 77.48336791992188 -2.4351806640625 78.42587280273438 -2.999980926513672 79.50034332275391 -2.999980926513672 L 94.81914520263672 -2.999980926513672 C 98.61636352539062 -2.999980926513672 101.7056045532227 0.08898544311523438 101.7056045532227 3.885848999023438 L 101.7056045532227 36.25986480712891 C 101.7056045532227 40.05707931518555 98.61636352539062 43.14633941650391 94.81914520263672 43.14633941650391 L 79.50034332275391 43.14633941650391 C 78.42577362060547 43.14633941650391 77.48310852050781 42.58129501342773 76.95328521728516 41.73219680786133 C 76.83335876464844 41.92477416992188 76.69102478027344 42.10465621948242 76.52802276611328 42.26766204833984 C 75.96540832519531 42.83026504516602 75.20234680175781 43.14633941650391 74.40670013427734 43.14633941650391 L 3.885818481445312 43.14632415771484 C 0.088958740234375 43.14632415771484 -3.000007629394531 40.05706405639648 -3.000007629394531 36.25984954833984 L -3.000007629394531 3.885833740234375 C -3.000022888183594 2.046493530273438 -2.283790588378906 0.3172798156738281 -0.9832534790039062 -0.9832572937011719 C 0.3172531127929688 -2.283767700195312 2.046470642089844 -2.999996185302734 3.88580322265625 -2.999996185302734 Z" stroke="none" fill="#070203"/>
      </g>
      <path id="Path_1483-2" data-name="Path 1483" d="M17.866,0H2.547A2.547,2.547,0,0,1,0,2.547V37.6a2.547,2.547,0,0,1,2.547,2.547H17.866a3.887,3.887,0,0,0,3.886-3.886V3.886A3.886,3.886,0,0,0,17.866,0Z" transform="translate(76.953 0)" fill="#ed5b4c"/>
    </g>
    <g id="Logo-2" data-name="Logo" transform="translate(1339.815 391.505) rotate(5)">
      <path id="Path_1297-2" data-name="Path 1297" d="M14.11,10.667,0,18.814V0Z" transform="translate(0 8.147)" fill="#540b12" stroke="#181919" stroke-linejoin="round" stroke-width="2"/>
      <path id="Path_1298-2" data-name="Path 1298" d="M14.11,18.814V0L0,8.147Z" transform="translate(0 0)" fill="#dd0010" stroke="#181919" stroke-linejoin="round" stroke-width="2"/>
      <path id="Path_1299-2" data-name="Path 1299" d="M14.11,10.667,0,18.814V0Z" transform="translate(28.223 8.147)" fill="#d18800" stroke="#181919" stroke-linejoin="round" stroke-width="2"/>
      <path id="Path_1300-2" data-name="Path 1300" d="M14.11,18.814V0L0,8.147Z" transform="translate(28.223 0)" fill="#f8aa17" stroke="#181919" stroke-linejoin="round" stroke-width="2"/>
      <path id="Path_1301-2" data-name="Path 1301" d="M0,10.667l14.11,8.147V0Z" transform="translate(14.11 8.147)" fill="#0f2144" stroke="#181919" stroke-linejoin="round" stroke-width="2"/>
      <path id="Path_1302-2" data-name="Path 1302" d="M0,18.814V0L14.11,8.147Z" transform="translate(14.11 0)" fill="#00398c" stroke="#181919" stroke-linejoin="round" stroke-width="2"/>
      <g id="Group_2-2" data-name="Group 2" transform="translate(0.73 5.563)">
        <ellipse id="Ellipse_334-2" data-name="Ellipse 334" cx="6.934" cy="3.923" rx="6.934" ry="3.923" transform="translate(0 12.762) rotate(-66.949)" fill="#fff" stroke="#000" stroke-width="1"/>
        <ellipse id="Ellipse_335-2" data-name="Ellipse 335" cx="3.467" cy="1.962" rx="3.467" ry="1.962" transform="translate(4.736 8.766) rotate(-66.949)" fill="#1a1311"/>
        <ellipse id="Ellipse_336-2" data-name="Ellipse 336" cx="1.387" cy="0.785" rx="1.387" ry="0.785" transform="translate(7.944 6.526) rotate(-66.949)" fill="#f6f6f6"/>
        <path id="Path_1484-2" data-name="Path 1484" d="M6.934,0c3.83,0,6.934,1.756,6.934,3.923s-3.1,3.923-6.934,3.923S0,6.09,0,3.923,3.1,0,6.934,0Z" transform="translate(0 12.762) rotate(-66.949)" fill="none" stroke="#171818" stroke-width="2"/>
      </g>
    </g>
    <text id="KUNSTHAUS" transform="translate(1409.107 427.638) rotate(-85)" fill="#fff" font-size="5" font-family="Roboto-Bold, Roboto" font-weight="700"><tspan x="0" y="0">KUNSTHAUS</tspan></text>
    <text id="KUNSTHAUS-2" data-name="KUNSTHAUS" transform="translate(1408.646 378.787) rotate(-111)" fill="#fff" font-size="5" font-family="Roboto-Bold, Roboto" font-weight="700"><tspan x="0" y="0">KUNSTHAUS</tspan></text>
  </g>
</svg>
