<?xml version="1.0" encoding="utf-8"?>
<!-- Generator: Adobe Illustrator 25.0.0, SVG Export Plug-In . SVG Version: 6.00 Build 0)  -->
<svg version="1.1" id="圖層_1" xmlns="http://www.w3.org/2000/svg" xmlns:xlink="http://www.w3.org/1999/xlink" x="0px" y="0px"
	 viewBox="0 0 148 1286" style="enable-background:new 0 0 148 1286;" xml:space="preserve">
<style type="text/css">
	.st0{fill:#002C80;}
</style>
<g id="Scroll_Text" transform="translate(-0.303 1)">
	<g id="Group_19" transform="translate(0 0)">
	</g>
</g>
<g>
	<path class="st0" d="M49.5,1206.5c8.7,0.4,33,4.4,41.9,6.1l40.3,7.3v38.6l-115.4,22.9v-28.1l59.2-11.4c13.2-2.5,22.3-3.8,32.7-4.4
		v-1.5c-10.2-1-18.9-2.7-32.7-5.5l-59.2-12.3V1192l59.2-12.9c13.2-3,23.8-4.6,32.7-5.3v-1.5c-9-0.4-19.5-1.8-32.7-4l-59.2-10.1
		v-27.8l115.4,22.9v37l-40.8,8.3c-8.1,1.6-32.4,5.9-41.3,6.4V1206.5z"/>
	<path class="st0" d="M16.2,1022.4h115.4v27.4H83.5v38.5h48.1v27.4H16.2v-27.4h45.9v-38.5H16.2V1022.4z"/>
	<path class="st0" d="M94.2,944h37.4v27.5H94.2l-78,37.6v-29.6l39.2-18.2c4.1-1.9,8.4-3.6,12.7-5.2c-4.4-1.5-8.3-3.1-12.7-5
		l-39.2-16.6v-28.1L94.2,944z"/>
	<path class="st0" d="M94.6,771.1c26.2,6.4,38.5,20.6,38.5,44.3c0,32.9-20,49.9-59.2,49.9c-36.6,0-59.2-18.6-59.2-48.5
		c0-24.1,13-39.8,36.6-44l6.2,27.5c-16.3,1.5-23.5,7.1-23.5,17.9c0,12,13.9,18.9,38.9,18.9c24,0,41-7.7,41-19.8
		c0-10.4-6.5-15.4-22.8-17.8L94.6,771.1z"/>
	<path class="st0" d="M16.2,662.3h115.4v27.4H83.5v38.5h48.1v27.4H16.2v-27.4h45.9v-38.5H16.2V662.3z"/>
	<path class="st0" d="M73.9,546.3c41.4,0,59.2,20.3,59.2,49.1c0,28.9-17.8,49.1-59.2,49.1s-59.2-20.3-59.2-49.1
		C14.7,566.6,32.5,546.3,73.9,546.3z M73.9,575.1c-29.3,0-40,7.3-40,20.3c0,13,10.7,20.3,40,20.3c29.3,0,40-7.3,40-20.3
		C113.9,582.4,103.2,575.1,73.9,575.1z"/>
	<path class="st0" d="M73.9,436.2c41.4,0,59.2,20.3,59.2,49.1c0,28.9-17.8,49.1-59.2,49.1s-59.2-20.3-59.2-49.1
		C14.7,456.4,32.5,436.2,73.9,436.2z M73.9,465c-29.3,0-40,7.3-40,20.3c0,13,10.7,20.3,40,20.3c29.3,0,40-7.3,40-20.3
		C113.9,472.3,103.2,465,73.9,465z"/>
	<path class="st0" d="M93.5,398.6c13-1.9,20.1-7.8,20.1-20.1c0-7-3.6-12.1-11-12.1c-8.3,0-11.5,5-17.9,23.2
		c-7.4,21-17.6,31.8-35.2,31.8c-21.8,0-34.8-15.4-34.8-38.8c0-23.7,11.8-38.2,33.9-41.4l5.5,26.3c-13.9,1-21.2,6.5-21.2,16.3
		c0,7.5,4.7,11.7,11.8,11.7c7.8,0,12-5.5,17.3-22.1c7.8-24.6,17-34.9,36-34.9c21.5,0,35.2,15.5,35.2,41.6
		c0,27.2-12.3,42.6-36.4,45.7L93.5,398.6z"/>
	<path class="st0" d="M111.7,251.5h20v70.7H16.2v-69.4h20v42.8h27.4v-38.5h19.2v38.5h28.9V251.5z"/>
	<path class="st0" d="M16.2,108.2h74c29.7,0,42.9,19.2,42.9,46.6c0,27.2-13.2,46.6-42.9,46.6h-74v-27.4H89c17.5,0,24.7-8,24.7-19.2
		s-7.3-19.2-24.7-19.2H16.2V108.2z"/>
	<path class="st0" d="M93.5,64.7c13-1.9,20.1-7.8,20.1-20.1c0-7-3.6-12.1-11-12.1c-8.3,0-11.5,5-17.9,23.2
		c-7.4,21-17.6,31.8-35.2,31.8c-21.8,0-34.8-15.4-34.8-38.8c0-23.7,11.8-38.2,33.9-41.4l5.5,26.3c-13.9,1-21.2,6.5-21.2,16.3
		c0,7.5,4.7,11.7,11.8,11.7c7.8,0,12-5.5,17.3-22.1C69.9,15,79.1,4.6,98,4.6c21.5,0,35.2,15.5,35.2,41.6c0,27.2-12.3,42.6-36.4,45.7
		L93.5,64.7z"/>
</g>
</svg>
