<?xml version="1.0" encoding="utf-8"?>
<!-- Generator: Adobe Illustrator 25.0.0, SVG Export Plug-In . SVG Version: 6.00 Build 0)  -->
<svg version="1.1" id="圖層_1" xmlns="http://www.w3.org/2000/svg" xmlns:xlink="http://www.w3.org/1999/xlink" x="0px" y="0px"
	 viewBox="0 0 224 224" style="enable-background:new 0 0 224 224;" xml:space="preserve">
<style type="text/css">
	.st0{fill:#F7BACE;}
	.st1{fill:none;stroke:#000000;stroke-width:3;}
	.st2{fill:#FFF88E;}
	.st3{fill:#0053DC;}
	.st4{fill:none;}
</style>
<g id="Ellipse_333">
	<circle class="st0" cx="112" cy="112" r="112"/>
	<circle class="st1" cx="112" cy="112" r="110.5"/>
</g>
<g id="Calque_2">
	<g id="Calque_1-2">
		<path class="st2" d="M152.6,140.9c-1.9,9.6-8.5,21.5-31.1,24.7s-38.8-30-38.8-30s-18-24.7-13.2-31.1c4.7-6.5,11.3,0,11.3,0
			l15.1,17.2l-0.5-54.2c0,0-1.9-13.9,7.6-13.9s7.5,13.9,7.5,13.9v19.9c0.2-2.7,1.3-5.4,5.2-5.4c5.1,0,8,7,9,12.3
			c0,0,4.8-16.1,13.8-2.3c0.2,0.3,0.4,0.6,0.6,1c0.3,0.4,0.5,0.8,0.7,1.2v1.7c0-0.2,0-0.3,0-0.5c0-1,0.2-1.5,0.5-1.7
			c0,0.2,0.1,0.4,0.2,0.6c0,0.2,0.2,0.9,0.3,1.4c0.8-0.8,1.7-1.4,2.8-1.8c1.1,0.2,2.2,0.3,3.3,0.3c5.7,0,6.6,12.2,7.6,26.1
			S153.2,137.6,152.6,140.9z"/>
		<path class="st3" d="M155.5,117.8c-0.9-13.1-1.8-23.4-7.7-24.3c-0.2,0-0.3,0-0.5,0h-0.4h-1.1l0,0c-0.7,0.1-1.4,0.2-2.1,0.5
			c-1,0.4-2,1.1-2.8,1.8c-0.1-0.6-0.2-1-0.3-1.4c-0.1-0.4-0.1-0.4-0.2-0.6c-0.2-0.6-0.4-1.2-0.7-1.7c-0.3-0.5-0.6-1-0.9-1.5
			l-0.2-0.2c-2.6-3.7-5.2-5.4-7.7-5c-2.5,0.4-4.8,3.3-5.9,5.6c-1.6-5.1-4.6-10.1-9.2-10.1l0,0c-1.5-0.1-3,0.4-4.1,1.4V67.7
			c0-0.3,1-7.9-2.4-12.3c-1.5-2-3.8-3.1-6.3-3c-2.5-0.1-4.8,1-6.3,3c-3.3,4.4-2.4,12-2.4,12.1l0.5,51.2l-13.3-15.2
			c-2-2-4.8-3.1-7.6-3.1c-2.1,0.3-4,1.5-5.2,3.3c-5,6.8,10.2,28.4,13.1,32.4c0.6,1.3,15.2,30.9,36.5,30.9c1.1,0,2.2-0.1,3.3-0.2
			c7.9-0.8,15.5-3.7,21.9-8.4c5.4-4.3,9-10.4,10.2-17.2C155.7,133.6,156.3,125.6,155.5,117.8z M140.1,95.4c0.2,0,0,0.3-0.3,0.6
			c-0.3,0.3-0.7,0.8-0.8,0.7l1.7,5.9l0.1,0.5c0-1.3,0.2-2.7,0.6-3.9c0.8-2.2,3-3.7,5.4-3.5c4.5,0,5.5,7.7,6.5,22.2
			c0.2,2.4,0.2,4.6,0.2,6.5c0.1,5.5-0.6,10.9-2.1,16.2c-2.5,13.3-12.8,21.3-30.3,23.8c-21.7,3.1-37.5-29.1-37.8-29.6
			c-6.7-9.2-16.3-25.4-13.2-29.6c0.8-1.3,2.2-2.2,3.8-2.4h0.5c1.4,0.1,2.7,0.5,3.9,1.3c0.6,0.4,1.2,0.8,1.7,1.2l15.1,17.1
			c0.3,0.3,0.8,0.5,1.1,0.3c0.4-0.2,0.7-0.7,0.6-1.1l-0.5-54.3c0,0-0.9-6.8,1.8-10.4c1.1-1.5,2.9-2.3,4.8-2.2
			c1.9-0.1,3.7,0.7,4.8,2.2c2.7,3.5,1.8,10.3,1.8,10.6v19.8c-0.1,1.1-0.1,2.2,0,3.3c0,0.3,0,0.5,0,0.7v0.3c0,0.6,0.4,1.1,1.1,1.2
			c0.6,0,1.1-0.5,1.1-1.1c0,0,0,0,0-0.1v-4.3c0.1-1.1,0.4-2.2,1.1-3.1c0.8-0.8,1.9-1.3,3.1-1.2c4.6,0,7.2,7.2,7.9,11.4
			c0.1,0.5,0.5,0.9,1,0.9c0.5,0,0.9-0.3,1.1-0.8c0.6-1.8,2.6-6.7,5.4-7c2.1-0.3,4.5,1.7,7,5.9l0.8,1.3l0,0c0.2,0.3,0.4,0.4,0.7,0.4
			h0.1C140,95.3,140.1,95.4,140.1,95.4z"/>
		<line class="st4" x1="110.6" y1="89.2" x2="110.6" y2="114.7"/>
		<path class="st3" d="M110.6,115.9c-0.6,0-1.1-0.6-1.1-1.2c0,0,0,0,0,0V89.2c0-0.6,0.4-1.2,1-1.2c0,0,0,0,0,0
			c0.6,0,1.1,0.6,1.1,1.2c0,0,0,0,0,0v25.4C111.7,115.2,111.2,115.8,110.6,115.9C110.6,115.9,110.6,115.9,110.6,115.9z"/>
		<path class="st2" d="M139.1,93c0,0,4.5,14.2-1.2,22.8L139.1,93z"/>
		<path class="st3" d="M138.8,116.5c-0.2,0.3-0.5,0.5-0.8,0.5c-0.2,0-0.5-0.1-0.6-0.2c-0.5-0.4-0.5-1.1-0.2-1.7
			c0.4-0.6,0.7-1.2,1-1.8c2.4-5.4,1.7-12.5,0.8-16.5c-0.3-1.6-0.6-2.8-0.7-3.1v-0.1c-0.2-0.5,0-1,0.4-1.4c0.1-0.1,0.2-0.1,0.3-0.2
			c0.3-0.1,0.6-0.1,0.9,0c0.3,0.6,0.5,1.1,0.7,1.7c0,0.2,0.1,0.4,0.2,0.6s0.2,0.9,0.3,1.4c0.2,1,0.5,2.3,0.6,3.6
			C142.2,104.4,142.2,111.3,138.8,116.5z"/>
		<path class="st2" d="M124.9,94.5c1,8.2,0.6,16.4-1.1,24.5L124.9,94.5z"/>
		<path class="st3" d="M123.8,120.1h-0.2c-0.6-0.2-1-0.8-0.8-1.4c1.7-7.9,2-16,1.1-23.9c-0.2-0.6,0.2-1.2,0.8-1.4
			c0.6-0.1,1.1,0.3,1.2,0.9c0,0,0,0,0,0c1,8.3,0.7,16.8-1.1,25C124.7,119.8,124.3,120.1,123.8,120.1z"/>
	</g>
</g>
</svg>
