<?xml version="1.0" encoding="utf-8"?>
<!-- Generator: Adobe Illustrator 25.0.0, SVG Export Plug-In . SVG Version: 6.00 Build 0)  -->
<svg version="1.1" id="圖層_1" xmlns="http://www.w3.org/2000/svg" xmlns:xlink="http://www.w3.org/1999/xlink" x="0px" y="0px"
	 viewBox="0 0 224 224" style="enable-background:new 0 0 224 224;" xml:space="preserve">
<style type="text/css">
	.st0{fill:#F7BACE;}
	.st1{fill:none;stroke:#000000;stroke-width:3;}
	.st2{fill:#FFF88E;}
	.st3{fill:#0053DC;}
	.st4{fill:none;}
</style>
<g id="Ellipse_333">
	<circle class="st0" cx="112" cy="112" r="112"/>
	<circle class="st1" cx="112" cy="112" r="110.5"/>
</g>
<g id="Calque_2">
	<g id="Calque_1-2">
		<path class="st2" d="M141.2,132.2c-1.4,6.9-6.1,15.5-22.4,17.8s-27.9-21.6-27.9-21.6s-13-17.8-9.5-22.4c3.4-4.7,8.1,0,8.1,0
			l10.9,12.4l-0.4-39c0,0-1.4-10,5.5-10c6.8,0,5.4,10,5.4,10v14.3c0.1-1.9,0.9-3.9,3.7-3.9c3.7,0,5.8,5,6.5,8.9
			c0,0,3.5-11.6,9.9-1.7c0.1,0.2,0.3,0.4,0.4,0.7c0.2,0.3,0.4,0.6,0.5,0.9v1.2c0-0.1,0-0.2,0-0.4c0-0.7,0.1-1.1,0.4-1.2
			c0,0.1,0.1,0.3,0.1,0.4c0,0.1,0.1,0.6,0.2,1c0.6-0.6,1.2-1,2-1.3c0.8,0.1,1.6,0.2,2.4,0.2c4.1,0,4.8,8.8,5.5,18.8
			S141.6,129.8,141.2,132.2z"/>
		<path class="st3" d="M143.3,115.5c-0.6-9.4-1.3-16.8-5.5-17.5c-0.1,0-0.2,0-0.4,0h-0.3h-0.8l0,0c-0.5,0.1-1,0.1-1.5,0.4
			c-0.7,0.3-1.4,0.8-2,1.3c-0.1-0.4-0.1-0.7-0.2-1c-0.1-0.3-0.1-0.3-0.1-0.4c-0.1-0.4-0.3-0.9-0.5-1.2c-0.2-0.4-0.4-0.7-0.6-1.1
			l-0.1-0.1c-1.9-2.7-3.7-3.9-5.5-3.6c-1.8,0.3-3.5,2.4-4.2,4c-1.2-3.7-3.3-7.3-6.6-7.3l0,0c-1.1-0.1-2.2,0.3-3,1V79.5
			c0-0.2,0.7-5.7-1.7-8.9c-1.1-1.4-2.7-2.2-4.5-2.2c-1.8-0.1-3.5,0.7-4.5,2.2c-2.4,3.2-1.7,8.6-1.7,8.7l0.4,36.9L90,105.2
			c-1.4-1.4-3.5-2.2-5.5-2.2c-1.5,0.2-2.9,1.1-3.7,2.4c-3.6,4.9,7.3,20.4,9.4,23.3c0.4,0.9,10.9,22.2,26.3,22.2
			c0.8,0,1.6-0.1,2.4-0.1c5.7-0.6,11.2-2.7,15.8-6c3.9-3.1,6.5-7.5,7.3-12.4C143.4,126.9,143.8,121.1,143.3,115.5z M132.2,99.4
			c0.1,0,0,0.2-0.2,0.4c-0.2,0.2-0.5,0.6-0.6,0.5l1.2,4.2l0.1,0.4c0-0.9,0.1-1.9,0.4-2.8c0.6-1.6,2.2-2.7,3.9-2.5
			c3.2,0,4,5.5,4.7,16c0.1,1.7,0.1,3.3,0.1,4.7c0.1,4-0.4,7.8-1.5,11.7c-1.8,9.6-9.2,15.3-21.8,17.1c-15.6,2.2-27-21-27.2-21.3
			c-4.8-6.6-11.7-18.3-9.5-21.3c0.6-0.9,1.6-1.6,2.7-1.7h0.4c1,0.1,1.9,0.4,2.8,0.9c0.4,0.3,0.9,0.6,1.2,0.9l10.9,12.3
			c0.2,0.2,0.6,0.4,0.8,0.2c0.3-0.1,0.5-0.5,0.4-0.8l-0.4-39.1c0,0-0.6-4.9,1.3-7.5c0.8-1.1,2.1-1.7,3.5-1.6
			c1.4-0.1,2.7,0.5,3.5,1.6c1.9,2.5,1.3,7.4,1.3,7.6v14.3c-0.1,0.8-0.1,1.6,0,2.4c0,0.2,0,0.4,0,0.5v0.2c0,0.4,0.3,0.8,0.8,0.9
			c0.4,0,0.8-0.4,0.8-0.8c0,0,0,0,0-0.1v-3.1c0.1-0.8,0.3-1.6,0.8-2.2c0.6-0.6,1.4-0.9,2.2-0.9c3.3,0,5.2,5.2,5.7,8.2
			c0.1,0.4,0.4,0.6,0.7,0.6s0.6-0.2,0.8-0.6c0.4-1.3,1.9-4.8,3.9-5c1.5-0.2,3.2,1.2,5,4.2l0.6,0.9l0,0c0.1,0.2,0.3,0.3,0.5,0.3h0.1
			C132.1,99.3,132.2,99.4,132.2,99.4z"/>
		<line class="st4" x1="110.9" y1="94.9" x2="110.9" y2="113.3"/>
		<path class="st3" d="M110.9,114.2c-0.4,0-0.8-0.4-0.8-0.9l0,0V94.9c0-0.4,0.3-0.9,0.7-0.9l0,0c0.4,0,0.8,0.4,0.8,0.9l0,0v18.3
			C111.7,113.7,111.4,114.1,110.9,114.2L110.9,114.2z"/>
		<path class="st2" d="M131.4,97.7c0,0,3.2,10.2-0.9,16.4L131.4,97.7z"/>
		<path class="st3" d="M131.2,114.6c-0.1,0.2-0.4,0.4-0.6,0.4c-0.1,0-0.4-0.1-0.4-0.1c-0.4-0.3-0.4-0.8-0.1-1.2
			c0.3-0.4,0.5-0.9,0.7-1.3c1.7-3.9,1.2-9,0.6-11.9c-0.2-1.2-0.4-2-0.5-2.2v-0.1c-0.1-0.4,0-0.7,0.3-1c0.1-0.1,0.1-0.1,0.2-0.1
			c0.2-0.1,0.4-0.1,0.6,0c0.2,0.4,0.4,0.8,0.5,1.2c0,0.1,0.1,0.3,0.1,0.4c0.1,0.1,0.1,0.6,0.2,1c0.1,0.7,0.4,1.7,0.4,2.6
			C133.7,105.9,133.7,110.9,131.2,114.6z"/>
		<path class="st2" d="M121.2,98.8c0.7,5.9,0.4,11.8-0.8,17.6L121.2,98.8z"/>
		<path class="st3" d="M120.4,117.2h-0.1c-0.4-0.1-0.7-0.6-0.6-1c1.2-5.7,1.4-11.5,0.8-17.2c-0.1-0.4,0.1-0.9,0.6-1
			c0.4-0.1,0.8,0.2,0.9,0.6l0,0c0.7,6,0.5,12.1-0.8,18C121.1,117,120.8,117.2,120.4,117.2z"/>
	</g>
</g>
</svg>
