<?xml version="1.0" encoding="utf-8"?>
<!-- Generator: Adobe Illustrator 25.0.0, SVG Export Plug-In . SVG Version: 6.00 Build 0)  -->
<svg version="1.1" id="圖層_1" xmlns="http://www.w3.org/2000/svg" xmlns:xlink="http://www.w3.org/1999/xlink" x="0px" y="0px"
	 viewBox="0 0 191.7 193" style="enable-background:new 0 0 191.7 193;" xml:space="preserve">
<style type="text/css">
	.st0{fill:#0053DC;}
</style>
<g>
	<path class="st0" d="M7,73.9l9.1-19c4.5-9.5,8.3-10.8,11.3-9.4c2.1,1,3.4,3.2,2,7.5l0,0c2.8-4.7,5.6-5.6,8.1-4.4
		c4,1.9,4.3,6.5-0.2,16L28.1,84L7,73.9z M24.5,59.5c1.6-3.4,1.6-4.7,0.4-5.3c-1.1-0.5-2.2,0.2-3.9,3.7l-4.4,9.2l3.5,1.7L24.5,59.5z
		 M31.7,63.2c1.8-3.7,1.9-5.6,0.5-6.2c-1.2-0.6-2.3,0.4-4.1,4.2l-4.5,9.4l3.8,1.8L31.7,63.2z"/>
	<path class="st0" d="M69.1,31.3l-14.8,7.8l-0.6,4.9l-10.2,5.3l4.4-28.7L59,14.7l26.1,12.6l-11.8,6.2L69.1,31.3z M64.5,28.8
		l-8.4-4.5l-0.1,0l-1.1,9.5L64.5,28.8z"/>
	<path class="st0" d="M86.3,17.1c1-7.1,8.8-11.1,22-9.1c13.7,2,17.9,7.9,17.3,12.5c0,0.2-0.1,0.5-0.1,0.7l-8.9-1.3l0-0.1
		c0.2-1.7-2-4.2-8.7-5.1c-7-1-10.6,0.8-11.1,4c-0.4,3,2,5.9,9.5,7c6.4,0.9,9.5-0.4,9.8-2.3l0-0.2l8.9,1.3c0,0.2-0.1,0.6-0.1,0.6
		c-0.7,5.1-6.8,9-20.2,7.1C90.6,30,85.4,23.6,86.3,17.1z"/>
	<path class="st0" d="M143.9,19.2l7.2,7.4l-7.5,7.4l0.1,0.1l19.9,5.3l10.1,10.4l-19.2-5.3l3.2,22.3L146.3,55l-1.7-13.7l-6.7-2
		l-3.6,3.5l-7.2-7.4L143.9,19.2z"/>
	<path class="st0" d="M177.2,96.8l0.8-12.5l7,0.5l-2.4,35.2l-7-0.5l0.8-12.4l-16.3-1.1l0.7-10.3L177.2,96.8z"/>
	<path class="st0" d="M169.4,127.1c5.8,4.5,4.4,13.9-3.7,24.4c-8.1,10.5-16.9,14.1-22.7,9.6c-6-4.6-4.8-13.8,3.5-24.5
		C154.8,125.8,163.4,122.4,169.4,127.1z M149.5,152.5c2.6,2,6.9,0,10.9-5.2c4-5.2,4.9-9.9,2.3-11.9c-2.8-2.2-6.9-0.3-11,5.1
		C147.5,145.9,146.7,150.4,149.5,152.5z"/>
	<path class="st0" d="M106,178l12.5-0.9l0.5,7l-35.2,2.6l-0.5-7l12.4-0.9l-1.2-16.3l10.3-0.7L106,178z"/>
	<path class="st0" d="M75,174.4c-3.7,6.4-13.2,6.3-24.7-0.3C38.8,167.6,34,159.4,37.7,153c3.8-6.6,13-6.7,24.8,0.1
		C74.2,159.8,78.7,167.9,75,174.4z M47,158.3c-1.6,2.9,0.9,6.8,6.6,10.1s10.4,3.5,12.1,0.6c1.7-3-0.7-6.8-6.6-10.2
		C53.2,155.4,48.7,155.2,47,158.3z"/>
	<path class="st0" d="M21,149l-8.2-17.9c-4.1-9-4.4-15,1.3-17.6c5.6-2.5,9.8,1,14,10.4l4,8.7l5.8-2.7l4.3,9.4L21,149z M23.8,126.1
		c-1.8-3.9-3.3-5.7-5.2-4.9c-1.8,0.8-1.5,3.2,0.3,7.1l3.9,8.6l4.9-2.3L23.8,126.1z"/>
</g>
</svg>
