<?xml version="1.0" encoding="utf-8"?>
<!-- Generator: Adobe Illustrator 24.3.0, SVG Export Plug-In . SVG Version: 6.00 Build 0)  -->
<svg version="1.1" id="圖層_1" xmlns="http://www.w3.org/2000/svg" xmlns:xlink="http://www.w3.org/1999/xlink" x="0px" y="0px"
	 viewBox="0 0 14.7 35" style="enable-background:new 0 0 14.7 35;" xml:space="preserve">
<style type="text/css">
	.st0{fill:#2D2D2D;}
</style>
<g>
	<path d="M6.6,6.8C3.9,5.9,1,5.9-1.7,6.8c-0.1-0.2-0.1-0.4-0.2-0.6c2.8-0.9,5.9-0.9,8.7,0C6.8,6.4,6.7,6.6,6.6,6.8z"/>
	<path d="M6.6,8.5C3.9,7.6,1,7.6-1.7,8.5c-0.1-0.2-0.1-0.4-0.2-0.6C0.9,7,4,7,6.8,7.9C6.8,8.1,6.7,8.3,6.6,8.5z"/>
	<rect x="5" y="5.1" width="3.7" height="3.4"/>
	<rect x="6.5" y="6.3" class="st0" width="2.2" height="2.2"/>
</g>
<g>
	<g>
		<path d="M-9.8,1.7c-2.7-0.9-5.6-0.9-8.3,0c-0.1-0.2-0.1-0.4-0.2-0.6c2.8-0.9,5.9-0.9,8.7,0C-9.7,1.3-9.7,1.5-9.8,1.7z"/>
	</g>
	<g>
		<path d="M-9.8,3.4c-2.7-0.9-5.6-0.9-8.3,0c-0.1-0.2-0.1-0.4-0.2-0.6c2.8-0.9,5.9-0.9,8.7,0C-9.7,3-9.7,3.2-9.8,3.4z"/>
	</g>
	<rect x="-11.4" width="3.7" height="3.4"/>
	<rect x="-9.9" y="1.2" class="st0" width="2.2" height="2.2"/>
</g>
<g>
	<path d="M6.6,15c-2.7-0.9-5.6-0.9-8.3,0c-0.1-0.2-0.1-0.4-0.2-0.6c2.8-0.9,5.9-0.9,8.7,0C6.8,14.6,6.7,14.8,6.6,15z"/>
	<path d="M6.6,16.7c-2.7-0.9-5.6-0.9-8.3,0c-0.1-0.2-0.1-0.4-0.2-0.6c2.8-0.9,5.9-0.9,8.7,0C6.8,16.3,6.7,16.5,6.6,16.7z"/>
	<rect x="5" y="13.3" width="3.7" height="3.4"/>
	<rect x="6.5" y="14.5" class="st0" width="2.2" height="2.2"/>
</g>
<g>
	<path d="M6.6,23.1c-2.7-0.9-5.6-0.9-8.3,0c-0.1-0.2-0.1-0.4-0.2-0.6c2.8-0.9,5.9-0.9,8.7,0C6.8,22.7,6.7,22.9,6.6,23.1z"/>
	<path d="M6.6,24.8c-2.7-0.9-5.6-0.9-8.3,0c-0.1-0.2-0.1-0.4-0.2-0.6c2.8-0.9,5.9-0.9,8.7,0C6.8,24.4,6.7,24.6,6.6,24.8z"/>
	<rect x="5" y="21.4" width="3.7" height="3.4"/>
	<rect x="6.5" y="22.6" class="st0" width="2.2" height="2.2"/>
</g>
<g>
	<path d="M6.6,31.3c-2.7-0.9-5.6-0.9-8.3,0c-0.1-0.2-0.1-0.4-0.2-0.6c2.8-0.9,5.9-0.9,8.7,0C6.8,30.9,6.7,31.1,6.6,31.3z"/>
	<path d="M6.6,33c-2.7-0.9-5.6-0.9-8.3,0c-0.1-0.2-0.1-0.4-0.2-0.6c2.8-0.9,5.9-0.9,8.7,0C6.8,32.6,6.7,32.8,6.6,33z"/>
	<rect x="5" y="29.6" width="3.7" height="3.4"/>
	<rect x="6.5" y="30.8" class="st0" width="2.2" height="2.2"/>
</g>
</svg>
