<?xml version="1.0" encoding="utf-8"?>
<!-- Generator: Adobe Illustrator 23.0.1, SVG Export Plug-In . SVG Version: 6.00 Build 0)  -->
<svg version="1.1" id="Layer_1" xmlns="http://www.w3.org/2000/svg" xmlns:xlink="http://www.w3.org/1999/xlink" x="0px" y="0px"
	 viewBox="0 0 296 169" style="enable-background:new 0 0 296 169;" xml:space="preserve">
<style type="text/css">
	.st0{fill:#2000FE;}
	.st1{fill:#FFFFFF;}
	.st2{enable-background:new    ;}
</style>
<title>mp-sticker-gods</title>
<ellipse class="st0" cx="148" cy="84.5" rx="148" ry="84.5"/>
<path class="st1" d="M14.9,77.3l-0.3,1.1l-8.2-6.6l0.3-1l10.5-1.4l-0.3,1.2l-3.1,0.4l-1.2,4.2L14.9,77.3z M12.4,71.2L8,71.8l3.5,2.8
	L12.4,71.2z"/>
<path class="st1" d="M15.7,63.8l3.4,1.9l-0.6,1L10.1,62c0.2-0.4,0.4-0.8,0.7-1.2l0.6-1c1.1-2,2.5-2.5,4.2-1.6c0.6,0.3,1,0.8,1.3,1.4
	c0.2,0.6,0.3,1.2,0.1,1.7l5.1-0.8l-0.7,1.2l-4.8,0.7L15.7,63.8z M12.2,60.3c-0.1,0.1-0.3,0.5-0.6,1.2l3.1,1.8l0.7-1.2
	c0.3-0.5,0.4-1,0.3-1.6c-0.1-0.5-0.4-1-0.8-1.2C13.9,58.7,13,59,12.2,60.3z"/>
<path class="st1" d="M27.5,53.7L24,58l-7.4-6.2l3.4-4.2l0.9,0.7l-2.7,3.3l2.4,2l2.5-3l0.9,0.7l-2.5,3l2.5,2.1l2.9-3.4L27.5,53.7z"/>
<path class="st1" d="M30.2,39.6l-2.6,2.1l-0.7-0.9l6.2-5l0.7,0.8l-2.6,2.1l5.4,6.7l-0.9,0.7L30.2,39.6z"/>
<path class="st1" d="M48.2,37.4l-1,0.6l-2.4-3.7l-4.5,2.9l2.4,3.7l-1,0.6l-5.2-8.1l1-0.6l2.3,3.5l4.5-2.9L42,29.9l1-0.6L48.2,37.4z"
	/>
<path class="st1" d="M57.2,32.6l-5,2.6l-4.4-8.6l4.8-2.5l0.5,1l-3.8,2l1.4,2.8l3.5-1.8l0.5,1l-3.4,1.8l1.5,2.9l3.9-2L57.2,32.6z"/>
<path class="st1" d="M60.4,26.8l1.6,3.6l-1.1,0.5L57.1,22l1.3-0.6l1.1-0.5c2.1-0.9,3.5-0.5,4.3,1.3c0.3,0.6,0.3,1.3,0.1,1.9
	c-0.2,0.6-0.5,1.1-1,1.5l4.6,2.4l-1.3,0.6l-4.2-2.4L60.4,26.8z M59.8,21.9l-1.2,0.6l1.4,3.3l1.3-0.6c0.5-0.2,0.9-0.6,1.2-1.1
	c0.3-0.5,0.3-1,0.1-1.5C62.1,21.6,61.2,21.3,59.8,21.9z"/>
<path class="st1" d="M76,24.9l-5.3,1.9l-3.2-9.1l5.1-1.8l0.4,1l-4,1.5l1,2.9l3.6-1.3l0.4,1l-3.6,1.3l1.1,3l4.2-1.5L76,24.9z"/>
<path class="st1" d="M84.7,22.2l-1.2,0.3L85,12l1-0.3l6.5,8.3l-1.2,0.3l-2-2.5L85.1,19L84.7,22.2z M88.7,17l-2.7-3.5l-0.6,4.4
	L88.7,17z"/>
<path class="st1" d="M101.9,8.2l1.9,9.5l-0.9,0.2l-7.4-6.2l1.5,7.4l-1.1,0.2L94,9.9l0.9-0.2l7.4,6.3l-1.5-7.5L101.9,8.2z"/>
<path class="st1" d="M112.4,6.5l1.3-0.2l-2.6,6l0.6,4.1l-1.2,0.2l-0.6-4.1l-4.2-4.9l1.3-0.2l3.3,4L112.4,6.5z"/>
<path class="st1" d="M121.1,8c0-0.4-0.3-0.8-0.6-1c-0.4-0.3-0.8-0.4-1.2-0.3c-0.8,0.1-1.5,0.5-1.8,1.2l-0.7-0.7
	c0.2-0.5,0.6-0.9,1-1.1c0.5-0.3,1-0.5,1.5-0.6c0.7-0.1,1.5,0,2.1,0.5c0.5,0.4,0.9,1,0.9,1.6c0.1,0.4,0,0.8-0.1,1.2
	c0,0.1-0.1,0.2-0.1,0.3c0,0.1-0.1,0.2-0.1,0.3c-0.1,0.1-0.1,0.2-0.1,0.2c0,0.1-0.1,0.2-0.2,0.2c-0.1,0.1-0.1,0.1-0.2,0.2l-0.2,0.2
	l-0.2,0.2c-0.1,0.1-0.1,0.1-0.2,0.2l-0.2,0.2l-0.2,0.2c-0.1,0.1-0.1,0.1-0.2,0.2c0,0.1-0.1,0.1-0.1,0.2c0,0.1-0.1,0.2-0.1,0.2
	c0,0.1,0,0.2,0,0.2c0,0.1,0,0.2,0,0.3c0,0.1,0,0.2,0.1,0.3l-1,0.1c-0.3-0.7-0.1-1.5,0.4-2.1l0.4-0.4c0.2-0.2,0.3-0.3,0.5-0.5
	c0.1-0.1,0.3-0.3,0.4-0.4c0.1-0.2,0.2-0.4,0.3-0.6C121.1,8.4,121.1,8.2,121.1,8z M119.1,14.7c0-0.2,0-0.4,0.2-0.5
	c0.1-0.2,0.3-0.3,0.6-0.3c0.2,0,0.4,0,0.5,0.2c0.2,0.1,0.2,0.3,0.3,0.5c0,0.2,0,0.4-0.1,0.6c-0.1,0.2-0.3,0.3-0.5,0.3
	c-0.2,0-0.4,0-0.6-0.2C119.2,15.1,119.1,14.9,119.1,14.7L119.1,14.7z"/>
<path class="st1" d="M141.9,4.1h1.1l-2.4,9.8l-1.1,0.1l-3-7.7l-2.2,7.9h-1.1L130,4.7l1.3-0.1l2.6,7.6l2.1-7.8h1.1L140,12L141.9,4.1z
	"/>
<path class="st1" d="M154.5,13.8h-1.2l0.1-4.4l-5.3-0.1l-0.1,4.4h-1.2l0.1-9.7h1.2v4.2l5.3,0.1V4.2h1.2L154.5,13.8z"/>
<path class="st1" d="M158.8,9.1c0.1-1.3,0.6-2.6,1.6-3.4c1-0.9,2.3-1.3,3.6-1.2c2.6,0.1,4.7,2.3,4.6,5c0,0.1,0,0.2,0,0.3
	c-0.1,1.3-0.6,2.6-1.6,3.5c-1,0.9-2.3,1.3-3.6,1.2c-2.6-0.1-4.7-2.3-4.6-4.9C158.8,9.3,158.8,9.2,158.8,9.1L158.8,9.1z M160,9.2
	c-0.1,1,0.2,2,0.9,2.8c0.6,0.8,1.6,1.2,2.6,1.3c1,0.1,2-0.3,2.7-0.9c0.7-0.7,1.2-1.7,1.2-2.7c0.1-1-0.2-2-0.9-2.8
	c-0.6-0.8-1.6-1.2-2.6-1.3c-1-0.1-2,0.3-2.7,0.9C160.5,7.2,160,8.2,160,9.2z"/>
<path class="st1" d="M177.2,15.4l-1.2-0.2l5.4-9.1l1,0.1l2.8,10.2l-1.2-0.2l-0.8-3.1l-4.4-0.6L177.2,15.4z M182.8,12.1l-1.2-4.3
	l-2.3,3.9L182.8,12.1z"/>
<path class="st1" d="M190.5,13.5l-0.7,3.8l-1.2-0.2l1.7-9.5l1.4,0.2l1.2,0.2c2.3,0.4,3.2,1.6,2.9,3.4c-0.1,0.6-0.4,1.2-0.9,1.6
	c-0.5,0.4-1,0.6-1.6,0.7l2.4,4.6l-1.4-0.3l-2.2-4.3L190.5,13.5z M192.7,9.1l-1.3-0.2l-0.6,3.5l1.4,0.2c0.5,0.1,1.1,0,1.6-0.2
	c0.5-0.2,0.8-0.7,0.9-1.2C194.8,10.1,194.1,9.4,192.7,9.1L192.7,9.1z"/>
<path class="st1" d="M204.6,20.4l-5.4-1.3l2.2-9.4l5.3,1.2l-0.2,1.1l-4.2-1l-0.7,3l3.8,0.9L205,16l-3.8-0.9l-0.7,3.2l4.3,1
	L204.6,20.4z"/>
<path class="st1" d="M217.9,15.2l-3.2-1l0.3-1.1l7.6,2.4l-0.3,1.1l-3.2-1l-2.6,8.2l-1.1-0.4L217.9,15.2z"/>
<path class="st1" d="M230.1,28.6l-1.1-0.4l1.6-4.1l-5-1.9l-1.6,4.1l-1.1-0.4l3.5-9l1.1,0.4l-1.5,3.9l5,1.9l1.5-3.9l1.1,0.4
	L230.1,28.6z"/>
<path class="st1" d="M239.4,32.8l-5.1-2.4l4.1-8.8l4.9,2.3l-0.5,1l-3.9-1.8l-1.3,2.8l3.5,1.6l-0.5,1l-3.5-1.6l-1.4,3l4,1.9
	L239.4,32.8z"/>
<path class="st1" d="M252.5,29l1.1,0.6l-5.7,3.1l-2,3.6l-1-0.6l2-3.6l-0.3-6.5l1.2,0.7l0.2,5.2L252.5,29z"/>
<path class="st1" d="M252.6,39.6c0.1-0.2,0.3-0.3,0.5-0.3c0.2,0,0.4,0,0.6,0.1c0.2,0.1,0.3,0.3,0.3,0.5c0,0.2,0,0.4-0.1,0.5
	c-0.1,0.2-0.3,0.3-0.5,0.3c-0.2,0-0.4,0-0.6-0.1C252.5,40.5,252.4,40,252.6,39.6C252.6,39.6,252.6,39.6,252.6,39.6z M258.5,35.8
	c0.2-0.3,0.3-0.8,0.2-1.2c-0.1-0.4-0.4-0.8-0.8-1c-0.6-0.4-1.5-0.5-2.2-0.2l-0.1-1c0.5-0.2,1-0.3,1.5-0.2c0.5,0.1,1.1,0.3,1.5,0.6
	c0.6,0.4,1.1,1,1.3,1.7c0.2,0.6,0.1,1.3-0.3,1.8c-0.2,0.3-0.5,0.6-0.8,0.8c-0.1,0.1-0.2,0.1-0.2,0.2c-0.1,0-0.2,0.1-0.3,0.1
	l-0.2,0.1l-0.3,0h-0.2h-0.3H257h-0.3h-0.3h-0.3h-0.3l-0.2,0.1c-0.1,0-0.2,0.1-0.2,0.1c-0.1,0.1-0.1,0.1-0.2,0.2
	c-0.1,0.1-0.1,0.1-0.2,0.2c-0.1,0.1-0.1,0.2-0.2,0.3l-0.8-0.5c0.3-0.7,0.9-1.3,1.7-1.3h0.6c0.3,0,0.5,0,0.6,0s0.3-0.1,0.6-0.1
	c0.2-0.1,0.4-0.1,0.6-0.3C258.2,36,258.4,35.9,258.5,35.8z"/>
<path class="st1" d="M276.5,48.1l0.8,0.8l-8.8,4.9l-0.8-0.8l3.6-7.4l-7.3,3.7l-0.8-0.8l4.7-8.9l0.9,0.9l-3.8,7l7.2-3.7l0.8,0.8
	l-3.6,7.2L276.5,48.1z"/>
<path class="st1" d="M276.5,64.7l-0.6-1l3.7-2.4l-2.9-4.5l-3.6,2.4l-0.6-1l8.1-5.3l0.6,1l-3.5,2.3l2.9,4.5l3.5-2.3l0.6,1L276.5,64.7
	z"/>
<path class="st1" d="M280.3,73.8l-1.9-5.2l9.1-3.3l1.9,5.1l-1,0.4l-1.5-4l-2.9,1.1l1.3,3.6l-1,0.4l-1.3-3.6l-3,1.1l1.5,4.1
	L280.3,73.8z"/>
<path class="st1" d="M285.1,78.2l-3.9,0.4l-0.1-1.2l9.6-1c0,0.4,0.1,0.9,0.2,1.4s0.1,0.9,0.1,1.2c0.2,2.3-0.6,3.5-2.5,3.7
	c-0.6,0.1-1.3-0.1-1.9-0.4c-0.5-0.3-0.9-0.8-1.1-1.4l-3.7,3.6l-0.1-1.4l3.5-3.4L285.1,78.2z M289.9,79c0-0.1-0.1-0.5-0.2-1.3
	l-3.6,0.4l0.2,1.4c0,0.6,0.3,1.1,0.7,1.5c0.4,0.4,0.9,0.6,1.4,0.5C289.6,81.3,290.1,80.5,289.9,79L289.9,79z"/>
<path class="st1" d="M280.8,93.2l0.8-5.5l9.6,1.4l-0.8,5.4l-1.1-0.2l0.6-4.2l-3.1-0.4l-0.6,3.8l-1.1-0.2l0.6-3.8l-3.2-0.5l-0.6,4.4
	L280.8,93.2z"/>
<path class="st1" d="M278,101.3l0.1-0.1l8.5,4.7l-0.1,0.2c-0.2,0.3-0.4,0.7-0.5,1c-0.4,0.7-0.6,1.1-0.6,1.2c-0.4,0.7-0.9,1.4-1.5,2
	c-0.5,0.5-1.1,0.8-1.7,1c-0.6,0.1-1.2,0.2-1.8,0.1c-0.6-0.1-1.2-0.3-1.7-0.6c-1.2-0.6-2.1-1.7-2.4-3c-0.3-1.5-0.1-3,0.7-4.2l0.6-1
	L278,101.3z M284.3,107.6c0.1-0.1,0.2-0.4,0.4-0.7s0.2-0.5,0.3-0.6l-6.5-3.6l-0.4,0.6c-0.1,0.2-0.2,0.3-0.2,0.4l-0.1,0.2
	c-0.6,1-0.8,2.1-0.6,3.2c0.3,1,1,1.9,1.9,2.3c0.9,0.5,1.9,0.6,2.8,0.3C283,109.5,283.9,108.7,284.3,107.6z"/>
<path class="st1" d="M276.2,113.7c1,0.8,1.6,2.1,1.7,3.4c0.1,1.3-0.3,2.6-1.2,3.6c-1.7,2-4.7,2.3-6.7,0.7c-0.1-0.1-0.2-0.2-0.3-0.2
	c-1-0.8-1.7-2.1-1.8-3.4c-0.1-1.3,0.4-2.6,1.3-3.6c1.7-2,4.7-2.4,6.7-0.7C276,113.5,276.1,113.6,276.2,113.7z M275.4,114.7
	c-0.8-0.7-1.8-1-2.8-1c-1,0-1.9,0.5-2.6,1.2c-0.7,0.7-1,1.7-0.9,2.7c0.3,2.1,2.1,3.6,4.2,3.6c2-0.1,3.6-1.9,3.5-3.9c0,0,0-0.1,0-0.1
	C276.7,116.2,276.2,115.3,275.4,114.7z"/>
<path class="st1" d="M263,131.6l2.7-2l0.7,0.9l-6.4,4.7l-0.7-0.9l2.7-2l-5.1-6.8l0.9-0.7L263,131.6z"/>
<path class="st1" d="M244.9,133.3l1-0.6l2.2,3.8l4.6-2.7l-2.2-3.7l1-0.6l5,8.3l-1,0.6l-2.1-3.6l-4.6,2.7l2.1,3.6l-1,0.6L244.9,133.3
	z"/>
<path class="st1" d="M235.8,137.9l5-2.4l4.2,8.7l-4.9,2.4l-0.5-1l3.8-1.9l-1.4-2.8l-3.5,1.7l-0.5-1l3.5-1.7l-1.4-2.9l-4,1.9
	L235.8,137.9z"/>
<path class="st1" d="M230.6,150.5l-1.2,0.5l1.1-6.4l-1.5-3.8l1.1-0.4l1.6,3.8l5.3,3.8l-1.3,0.5l-4.2-3.1L230.6,150.5z"/>
<path class="st1" d="M212,148.5l-0.7-0.7c0.2-0.4,0.6-0.8,1-1.1c0.5-0.4,1-0.6,1.6-0.8c1.2-0.4,2.6-0.3,3.8,0.3
	c1.2,0.7,2,1.8,2.4,3.1c0.4,1.2,0.4,2.6-0.2,3.8c-0.6,1.2-1.7,2.1-2.9,2.4c-1,0.4-2.1,0.4-3.1,0l0.3-1c0.8,0.3,1.7,0.3,2.5,0
	c0.9-0.3,1.7-0.9,2.1-1.8c0.5-0.9,0.5-2,0.1-3c-0.3-1-0.9-1.9-1.8-2.4c-0.9-0.5-2-0.5-2.9-0.2C213.2,147.3,212.5,147.8,212,148.5z"
	/>
<path class="st1" d="M209.7,152.3c0.3,1.3,0.2,2.6-0.5,3.8c-1.4,2.3-4.4,3.1-6.7,1.7c-1.1-0.7-2-1.8-2.3-3.1
	c-0.3-1.3-0.2-2.7,0.5-3.8c1.4-2.3,4.4-3.1,6.7-1.7C208.6,149.8,209.5,151,209.7,152.3L209.7,152.3z M208.5,152.6
	c-0.2-1-0.8-1.9-1.7-2.4c-0.8-0.5-1.9-0.7-2.8-0.5c-1,0.2-1.8,0.8-2.3,1.7c-1,1.9-0.4,4.2,1.3,5.4c0.8,0.5,1.9,0.7,2.8,0.4
	c1-0.2,1.8-0.8,2.3-1.7C208.7,154.7,208.8,153.6,208.5,152.6z"/>
<path class="st1" d="M194,151l1.1-0.2l1.7,9.5l-1.2,0.2l-4.4-4.2l-2.6,5.5l-1.1,0.2l-1.7-9.5l1.1-0.2l1.4,7.7l2.5-5.3h0.2l4.2,4.1
	L194,151z"/>
<path class="st1" d="M175.7,153.7l5.6-0.7l1.2,9.6l-5.4,0.7l-0.1-1.1l4.2-0.5l-0.4-3.1l-3.8,0.5l-0.1-1.1l3.8-0.5l-0.4-3.2l-4.4,0.6
	L175.7,153.7z"/>
<path class="st1" d="M165.4,154.6l1.2-0.1l0.6,9.6l-5.4,0.4l-0.1-1.1l4.3-0.3l-0.2-3.4l-3.9,0.2l-0.1-1.1l3.9-0.2L165.4,154.6z"/>
<path class="st1" d="M156.2,159l-0.1-3.9h1.2l0.2,9.7l-1.4,0.1h-1.2c-2.3,0.1-3.5-0.9-3.5-2.8c0-0.7,0.2-1.3,0.6-1.8
	c0.4-0.5,0.9-0.8,1.5-1l-3.3-4h1.4l3.1,3.8L156.2,159z M155,163.7l1.4-0.1l-0.1-3.6h-1.4c-0.6,0-1.1,0.2-1.5,0.5
	c-0.4,0.3-0.7,0.8-0.6,1.4C152.7,163.2,153.4,163.8,155,163.7z"/>
<path class="st1" d="M147.6,160.1c0,1.3-0.5,2.6-1.5,3.5c-0.9,0.9-2.2,1.4-3.6,1.4c-2.6,0-4.8-2.1-4.8-4.8c0-0.1,0-0.2,0-0.3
	c0-1.3,0.5-2.6,1.5-3.5c0.9-0.9,2.2-1.4,3.5-1.3c2.6,0,4.8,2.1,4.8,4.7C147.6,159.9,147.6,160,147.6,160.1L147.6,160.1z
	 M146.4,160.1c0-1-0.3-2-1-2.8c-0.7-0.7-1.6-1.2-2.6-1.1c-1-0.1-2,0.3-2.7,1.1c-1.4,1.6-1.5,3.9-0.1,5.5c1.4,1.5,3.8,1.5,5.3,0.1
	c0,0,0,0,0,0C146,162.1,146.4,161.1,146.4,160.1L146.4,160.1z"/>
<path class="st1" d="M132.8,154.8l1.2,0.1l-0.7,9.6l-1.2-0.1l-3.2-5.2l-3.8,4.7l-1.1-0.1l0.7-9.6l1.2,0.1l-0.6,7.8l3.8-4.5h0.2
	l3.1,5L132.8,154.8z"/>
<path class="st1" d="M115.6,160.4c-0.1,0.4,0.1,0.8,0.3,1.1c0.3,0.3,0.7,0.5,1.2,0.6c0.8,0.1,1.5-0.2,2-0.8l0.6,0.8
	c-0.3,0.4-0.7,0.7-1.2,0.9c-0.5,0.2-1.1,0.3-1.6,0.2c-0.8,0-1.5-0.4-2-0.9c-0.4-0.5-0.6-1.1-0.6-1.8c0-0.4,0.2-0.8,0.4-1.1l0.2-0.2
	c0.1-0.1,0.1-0.2,0.2-0.2l0.2-0.2c0.1-0.1,0.1-0.1,0.2-0.2l0.2-0.1l0.2-0.2l0.2-0.1l0.2-0.2l0.2-0.1l0.2-0.2l0.2-0.2l0.2-0.2
	c0.1-0.1,0.1-0.1,0.2-0.2l0.1-0.2c0-0.1,0.1-0.2,0.1-0.3c0-0.1,0-0.2,0-0.3l1,0.1c0.1,0.8-0.2,1.6-0.9,2l-0.5,0.3
	c-0.2,0.1-0.4,0.2-0.6,0.3s-0.3,0.2-0.4,0.4c-0.2,0.1-0.3,0.3-0.4,0.5C115.7,160,115.6,160.2,115.6,160.4z M119.1,154.3
	c0,0.2-0.1,0.4-0.3,0.5c-0.2,0.1-0.4,0.2-0.6,0.1c-0.2,0-0.4-0.1-0.5-0.3c-0.1-0.2-0.2-0.3-0.2-0.5c0-0.2,0.1-0.4,0.3-0.5
	c0.1-0.1,0.4-0.2,0.6-0.2c0.2,0,0.4,0.1,0.6,0.3C119.1,153.9,119.1,154.1,119.1,154.3L119.1,154.3z"/>
<path class="st1" d="M99.4,160.3L98,160l5.1-3.7l-3.5-5.9l1.5,0.3l3.4,5.8L99.4,160.3z M105.6,151.6l1.2,0.2l-1.8,9.5l-1.2-0.2
	L105.6,151.6z"/>
<path class="st1" d="M94.7,149.4l1.1,0.3l-2.1,9.4l-1.2-0.3L94.7,149.4z"/>
<path class="st1" d="M79.5,155.4l2.6-9.3l0.9,0.2l3.8,8.9l2-7.3l1.1,0.3l-2.6,9.3l-0.9-0.2l-3.8-8.9l-2,7.3L79.5,155.4z"/>
<path class="st1" d="M77.4,144.6h0.1l-3.2,9.1l-0.2-0.1l-1.1-0.4l-1.2-0.4c-0.8-0.3-1.5-0.7-2.2-1.2c-0.5-0.4-1-0.9-1.2-1.6
	c-0.2-0.5-0.4-1.1-0.4-1.7c0-0.6,0.1-1.2,0.3-1.8c0.4-1.3,1.3-2.3,2.6-2.9c1.4-0.6,2.9-0.6,4.3,0l1.1,0.4L77.4,144.6z M72.3,151.9
	l0.7,0.2l0.7,0.2l2.5-7l-0.7-0.2l-0.5-0.2l-0.2-0.1c-1.1-0.4-2.2-0.4-3.3,0c-1,0.4-1.7,1.3-2,2.3c-0.4,0.9-0.3,2,0.2,2.9
	C70.3,150.9,71.2,151.6,72.3,151.9L72.3,151.9z"/>
<path class="st1" d="M60.4,143.3c-0.5,1.2-1.6,2.1-2.8,2.6c-2.6,0.9-5.4-0.5-6.4-3c-0.4-1.3-0.3-2.6,0.3-3.8
	c0.5-1.2,1.6-2.2,2.8-2.6c1.2-0.4,2.6-0.3,3.8,0.3c2.4,1.1,3.5,3.9,2.4,6.3C60.5,143.1,60.5,143.2,60.4,143.3L60.4,143.3z
	 M59.3,142.8c0.5-0.9,0.6-2,0.2-2.9c-0.3-0.9-1-1.7-1.9-2.1c-0.9-0.5-1.9-0.5-2.9-0.1c-0.9,0.4-1.7,1.1-2.1,2
	c-0.5,0.9-0.6,2-0.2,2.9c0.7,1.9,2.7,3,4.7,2.3c0,0,0,0,0.1,0C58.1,144.4,58.9,143.7,59.3,142.8L59.3,142.8z"/>
<path class="st1" d="M47.3,135.5l2-3.3l1,0.6l-5,8.3l-1.2-0.7l-1-0.6c-2-1.2-2.5-2.6-1.5-4.2c0.3-0.6,0.8-1,1.4-1.2
	c0.6-0.2,1.2-0.2,1.8,0l-0.7-5.2l1.2,0.7l0.5,4.8L47.3,135.5z M43.7,138.8l1.2,0.7l1.8-3.1l-1.2-0.7c-0.5-0.3-1-0.4-1.6-0.4
	c-0.5,0.1-1,0.4-1.2,0.8C42,137.2,42.4,138.1,43.7,138.8L43.7,138.8z"/>
<path class="st1" d="M33,120.7l4.3,3.6l-6.1,7.4l-4.2-3.5l0.7-0.8l3.3,2.7l2-2.4l-3-2.5l0.7-0.8l3,2.5l2-2.5l-3.4-2.8L33,120.7z"/>
<path class="st1" d="M18.7,119.9l-0.8-0.9l9.8-3.7l0.6,0.6l-4.3,9.6l-0.9-0.9l3.6-7.8L18.7,119.9z"/>
<path class="st1" d="M22.4,108.7l0.7,1l-7.9,5.6l-0.7-1L22.4,108.7z"/>
<path class="st1" d="M17.2,99.4l2.6,5.3l-8.6,4.3l-0.5-1l7.7-3.8l-2.1-4.3L17.2,99.4z"/>
<path class="st1" d="M8.4,95.1c-0.4,0.1-0.7,0.4-0.9,0.7c-0.2,0.4-0.2,0.9-0.1,1.3c0.2,0.7,0.8,1.3,1.5,1.6l-0.5,0.8
	c-0.5-0.1-0.9-0.4-1.3-0.8c-0.4-0.4-0.6-0.9-0.8-1.4c-0.2-0.7-0.2-1.5,0.1-2.2c0.3-0.6,0.8-1,1.4-1.1c0.4-0.1,0.8-0.2,1.2-0.1
	c0.1,0,0.2,0,0.3,0.1L9.6,94l0.2,0.1l0.2,0.2l0.2,0.1l0.2,0.2l0.2,0.2l0.2,0.2c0.1,0.1,0.2,0.1,0.2,0.2l0.2,0.2l0.2,0.1l0.2,0.1
	c0.1,0,0.2,0,0.3,0h0.2c0.1,0,0.2,0,0.3,0l0.3-0.1l0.3,1c-0.7,0.4-1.5,0.4-2.2-0.1l-0.5-0.4l-0.5-0.4c-0.2-0.1-0.3-0.2-0.5-0.3
	C9.4,95.1,9.2,95,9,95C8.8,95,8.6,95,8.4,95.1z M15.3,96c-0.2,0-0.4,0-0.6-0.1c-0.2-0.1-0.3-0.3-0.4-0.5c-0.1-0.4,0.1-0.8,0.5-0.9
	c0.2-0.1,0.4-0.1,0.6,0c0.2,0.1,0.3,0.3,0.4,0.4c0.1,0.2,0,0.4-0.1,0.6C15.7,95.8,15.5,95.9,15.3,96z"/>
<g class="st2">
	<path class="st1" d="M65.1,101.1c-17.4,0-21.5-9.3-21.5-16.1v-1.2C43.6,77,47.3,68,66.1,68h1.7c19.5,0,22.2,7.8,22.4,12.3v0H77.5
		c-0.2-0.8-1.3-4-10.3-4c-8.6,0-11,3.7-11,7.9v0.5c0,4.1,3,8,10.9,8c8.2,0,10.9-3,10.9-4H66.8v-6.2h23.6v17.9h-7.7
		c-0.2-1-0.9-3.3-1.5-4.4c-1.2,1.4-5.2,5-15.2,5H65.1z"/>
	<path class="st1" d="M124.4,68c20.6,0,23.2,9.8,23.2,15.8v1.3c0,6-2.6,16-23.2,16h-1.9c-20.6,0-23.2-10-23.2-16v-1.3
		c0-6,2.6-15.8,23.2-15.8H124.4z M135,84.1c0-3.4-2.2-7.5-11.6-7.5c-9.6,0-11.6,4.2-11.6,7.5v0.5c0,3.3,2.2,7.8,11.6,7.8
		c9.4,0,11.6-4.3,11.6-7.7V84.1z"/>
	<path class="st1" d="M156.6,68.6h22.6c18.4,0,23,7.6,23,15.1V85c0,7.2-4,15.5-22.9,15.5h-22.6V68.6z M168.8,92h9
		c10.6,0,11.8-4.7,11.8-7.5v-0.3c0-2.8-1.2-7.4-11.8-7.4h-9V92z"/>
	<path class="st1" d="M229.1,101.1c-17.6,0-19.4-7.2-19.4-11.3v-0.4H223c0.1,1.7,1,4.5,8,4.5h0.4c6.8,0,7.8-1.5,7.8-3v0
		c0-1.6-0.8-2.7-7.5-2.9l-5.9-0.2c-12.3-0.3-15.6-4.7-15.6-9.6v-0.4c0-5.2,3.5-9.7,18.3-9.7h3.8c15.8,0,19.4,5,19.4,10.1v0.3h-13.2
		c-0.1-1.2-0.8-3.4-7.7-3.4h-0.4c-6.4,0-7,1.1-7,2.4v0c0,1.3,0.9,2.3,6.9,2.4l5.7,0.1c12.1,0.3,16.8,3.2,16.8,9.6v0.6
		c0,5.4-3,10.8-19.7,10.8H229.1z"/>
</g>
</svg>
