<svg xmlns="http://www.w3.org/2000/svg" width="68" height="38" viewBox="0 0 68 38">
  <g id="ic_eye" data-name="ic/eye" transform="translate(0.111)">
    <g id="Ellipse_338" data-name="Ellipse 338" transform="translate(-0.111)" fill="#fff" stroke="#000" stroke-width="3">
      <ellipse cx="15.5" cy="19" rx="15.5" ry="19" stroke="none"/>
      <ellipse cx="15.5" cy="19" rx="14" ry="17.5" fill="none"/>
    </g>
    <g id="Ellipse_339" data-name="Ellipse 339" transform="translate(40.889)" fill="#fff" stroke="#000" stroke-width="3">
      <ellipse cx="13.5" cy="19" rx="13.5" ry="19" stroke="none"/>
      <ellipse cx="13.5" cy="19" rx="12" ry="17.5" fill="none"/>
    </g>
    <path id="Path_1303" data-name="Path 1303" d="M7.791,0A7.757,7.757,0,0,0,3.9,1.04L6.393,6.612.438,5.216A7.784,7.784,0,1,0,7.791,0Z" transform="translate(43.502 16.723) rotate(-30)"/>
    <path id="Path_1304" data-name="Path 1304" d="M7.791,0A7.757,7.757,0,0,0,3.9,1.04L6.393,6.612.438,5.216A7.784,7.784,0,1,0,7.791,0Z" transform="translate(3.294 16.723) rotate(-30)"/>
  </g>
</svg>
