<svg id="ic_search" data-name="ic/search" xmlns="http://www.w3.org/2000/svg" width="24.051" height="24.104" viewBox="0 0 24.051 24.104">
  <path id="Path_2" data-name="Path 2" d="M3.006,10.545a7.451,7.451,0,0,1,7.516-7.532,7.451,7.451,0,0,1,7.516,7.532,7.451,7.451,0,0,1-7.516,7.532A7.451,7.451,0,0,1,3.006,10.545ZM21.5,23.652a1.49,1.49,0,0,0,2.1-2.109l-4.66-4.67a10.329,10.329,0,0,0,2.1-6.327A10.469,10.469,0,0,0,10.522,0,10.469,10.469,0,0,0,0,10.545,10.469,10.469,0,0,0,10.522,21.091a10.278,10.278,0,0,0,6.313-2.109Z"/>
</svg>
