<?xml version="1.0" encoding="utf-8"?>
<!-- Generator: Adobe Illustrator 25.0.0, SVG Export Plug-In . SVG Version: 6.00 Build 0)  -->
<svg version="1.1" id="圖層_1" xmlns="http://www.w3.org/2000/svg" xmlns:xlink="http://www.w3.org/1999/xlink" x="0px" y="0px"
	 viewBox="0 0 397.1 316" style="enable-background:new 0 0 397.1 316;" xml:space="preserve">
<style type="text/css">
	.st0{fill:#FFFFFF;}
	.st1{fill:none;stroke:#000000;stroke-width:3.0964;}
	.st2{fill:#002C80;stroke:#000000;stroke-width:3;}
	.st3{fill:#FF4E42;}
	.st4{fill:none;stroke:#000000;stroke-width:2;}
	.st5{font-family:'NotoSansTC-Black-83pv-RKSJ-H';}
	.st6{font-size:45.0113px;}
	.st7{letter-spacing:2;}
</style>
<g id="Sign" transform="translate(0.493 0)">
	<g id="Group_23" transform="translate(264.787 88)">
		<g id="Rectangle_1512" transform="translate(-0.279)">
			<rect x="1" class="st0" width="139.6" height="23"/>
			<rect x="2.6" y="1.5" class="st1" width="136.4" height="20"/>
		</g>
		<g id="Path_1428" transform="translate(6.6 119.914)">
			<path class="st0" d="M132.2,22.6H2V1.5h55.4h74.8L132.2,22.6L132.2,22.6z"/>
			<path d="M6.7,3v18.1h124V3H59.2H6.7 M3.6,0c0,0,23.1,0,55.6,0s74.6,0,74.6,0v24.1H3.6V0z"/>
		</g>
	</g>
	<g id="Group_21" transform="translate(9.731 9.06)">
		<path id="Path_1425" class="st2" d="M272.1,158.1c-36.2-61.7,5.7-100,5.7-100L224.6,2.9c0,0-28.5,30.5-77,0
			c-0.9-0.4-1.9-0.4-2.9,0C89.6,34.3,61.1,0,61.1,0L5,57.1c0,0,40,36.8,8.6,96.2c-41.8,79,25.1,113.7,36.1,115.2
			c41.8,5.7,57.4,5.4,75.1,12.4c6.7,2.7,24.7,15.2,24.7,15.2s17-14.4,23.8-17.1c13.9-5.7,44.4-6.8,58.9-10.5
			C258.8,261.9,300.6,206.7,272.1,158.1z M221.7,254.5c-12.8,3.2-39.9,4.3-52.1,9.3c-6,2.5-21,15.3-21,15.3s-15.9-11.2-21.9-13.6
			c-15.7-6.2-29.4-5.9-66.4-11c-9.7-1.3-68.9-32.2-31.9-102.6c27.8-53-5.3-91.9-5.3-91.9L63,15.2c0,0,15.3,14.4,40.7,14.4
			c11.6,0,25.4-3,40.7-11.8c0.4-0.2,0.9-0.3,1.3-0.2c0.4,0,0.8,0.1,1.2,0.2c14.7,9.3,28.1,12.4,39.2,12.4
			c21.3,0,34.6-11.1,34.6-11.1L260.6,62c0,0-35.7,39.2-3.6,94.1C282.3,199.3,245.3,248.5,221.7,254.5L221.7,254.5z"/>
		<g id="Group_20" transform="translate(23.974 25.515)">
			<path id="Path_1426" class="st2" d="M213.5,70.7c2.1-12,6.6-23.5,13.4-33.7L195.6,3.4c-10.2,5.8-21.7,8.9-33.4,8.9
				c-13.6,0-27.2-4-40.6-11.9c-13.9,7.5-28,11.4-41.8,11.4c-14.1,0-27.9-4-39.7-11.7L8.9,35c7,10.8,11.5,23,13.4,35.7H213.5z"/>
			<path id="Path_1427" class="st2" d="M226.5,134.4c-12.3-21.1-15.3-40.2-14-56.1H23.1c0.9,14.8-1.8,32.3-11.9,51.6
				c-12.6,24.1-14.6,45.3-5.7,63c9.3,18.7,28,27.9,32,28.5c10.9,1.5,19.7,2.5,27.4,3.4c18,2.1,28.8,3.4,40.7,8.1
				c4.6,1.8,13.1,7.4,18.6,11.1c5.3-4.3,13.7-10.8,18.5-12.8c8.2-3.4,21.1-5,33.4-6.6c7.7-1,15-1.9,19.7-3.1
				c9.9-2.5,24.9-16.4,32.8-35.2C234.1,173.6,238,154.2,226.5,134.4z"/>
		</g>
	</g>
	<g id="Ellipse_341" transform="translate(59.507 0)">
		<circle class="st3" cx="8.5" cy="8.5" r="8.5"/>
		<circle class="st4" cx="8.5" cy="8.5" r="7.5"/>
	</g>
	<g id="Ellipse_342" transform="translate(144.507 0)">
		<circle class="st0" cx="8" cy="8" r="8"/>
		<circle class="st4" cx="8" cy="8" r="7"/>
	</g>
	<g id="Ellipse_343" transform="translate(225.507 0)">
		<circle class="st3" cx="8" cy="8" r="8"/>
		<circle class="st4" cx="8" cy="8" r="7"/>
	</g>
	<g id="Ellipse_344" transform="translate(5.507 55)">
		<circle class="st0" cx="8.5" cy="8.5" r="8.5"/>
		<circle class="st4" cx="8.5" cy="8.5" r="7.5"/>
	</g>
	<g id="Ellipse_345" transform="translate(22.507 117)">
		<circle class="st3" cx="8.5" cy="8.5" r="8.5"/>
		<circle class="st4" cx="8.5" cy="8.5" r="7.5"/>
	</g>
	<g id="Ellipse_346" transform="translate(-0.493 197)">
		<circle class="st0" cx="8.5" cy="8.5" r="8.5"/>
		<circle class="st4" cx="8.5" cy="8.5" r="7.5"/>
	</g>
	<g id="Ellipse_347" transform="translate(22.507 256)">
		<circle class="st3" cx="8.5" cy="8.5" r="8.5"/>
		<circle class="st4" cx="8.5" cy="8.5" r="7.5"/>
	</g>
	<g id="Ellipse_348" transform="translate(90.507 274)">
		<circle class="st0" cx="8.5" cy="8.5" r="8.5"/>
		<circle class="st4" cx="8.5" cy="8.5" r="7.5"/>
	</g>
	<g id="Ellipse_349" transform="translate(149.507 300)">
		<circle class="st3" cx="8" cy="8" r="8"/>
		<circle class="st4" cx="8" cy="8" r="7"/>
	</g>
	<g id="Ellipse_350" transform="translate(207.507 274)">
		<circle class="st0" cx="8.5" cy="8.5" r="8.5"/>
		<circle class="st4" cx="8.5" cy="8.5" r="7.5"/>
	</g>
	<g id="Ellipse_351" transform="translate(258.507 256)">
		<circle class="st3" cx="9" cy="9" r="9"/>
		<circle class="st4" cx="9" cy="9" r="8"/>
	</g>
	<g id="Ellipse_352" transform="translate(277.507 55)">
		<circle class="st0" cx="8.5" cy="8.5" r="8.5"/>
		<circle class="st4" cx="8.5" cy="8.5" r="7.5"/>
	</g>
	<g id="Ellipse_353" transform="translate(261.507 117)">
		<circle class="st3" cx="8.5" cy="8.5" r="8.5"/>
		<circle class="st4" cx="8.5" cy="8.5" r="7.5"/>
	</g>
	<g id="Ellipse_354" transform="translate(283.507 197)">
		<circle class="st0" cx="8.5" cy="8.5" r="8.5"/>
		<circle class="st4" cx="8.5" cy="8.5" r="7.5"/>
	</g>
</g>
<text transform="matrix(1 0 0 1 85.3285 179.6904)"><tspan x="0" y="0" class="st0 st5 st6 st7">CLICK</tspan><tspan x="36.7" y="54" class="st0 st5 st6 st7">ME</tspan></text>
</svg>
