<?xml version="1.0" encoding="utf-8"?>
<!-- Generator: Adobe Illustrator 25.0.0, SVG Export Plug-In . SVG Version: 6.00 Build 0)  -->
<svg version="1.1" id="圖層_1" xmlns="http://www.w3.org/2000/svg" xmlns:xlink="http://www.w3.org/1999/xlink" x="0px" y="0px"
	 viewBox="0 0 397.1 316" style="enable-background:new 0 0 397.1 316;" xml:space="preserve">
<style type="text/css">
	.st0{fill:#FFFFFF;}
	.st1{fill:none;stroke:#000000;stroke-width:3;}
	.st2{fill:#002C80;stroke:#000000;stroke-width:3;}
	.st3{font-family:'ToppanBunkyuMidashiGothicStdN-ExtraBold-83pv-RKSJ-H';}
	.st4{font-size:46px;}
	.st5{enable-background:new    ;}
	.st6{fill:none;stroke:#000000;stroke-width:2;}
	.st7{fill:#FF4E42;}
</style>
<g id="Sign" transform="translate(0.493 0)">
	<g id="Group_23" transform="translate(264.787 88)">
		<g id="Rectangle_1512" transform="translate(-0.279)">
			<rect x="1" class="st0" width="131" height="23"/>
			<rect x="2.5" y="1.5" class="st1" width="128" height="20"/>
		</g>
		<g id="Path_1428" transform="translate(6.6 119.914)">
			<path class="st0" d="M123.7,22.6H1.5V1.5h52h70.2V22.6z"/>
			<path d="M5.9,3v18.1h116.4V3H55.2H5.9 M3,0c0,0,21.7,0,52.2,0s70,0,70,0v24.1H3V0z"/>
		</g>
	</g>
	<g id="Group_21" transform="translate(9.731 9.06)">
		<path id="Path_1425" class="st2" d="M272.1,158.1c-36.2-61.7,5.7-100,5.7-100L224.6,2.9c0,0-28.5,30.5-77,0
			c-0.9-0.4-1.9-0.4-2.9,0C89.6,34.3,61.1,0,61.1,0L5,57.1c0,0,40,36.8,8.6,96.2c-41.8,79,25.1,113.7,36.1,115.2
			c41.8,5.7,57.4,5.4,75.1,12.4c6.7,2.7,24.7,15.2,24.7,15.2s17-14.4,23.8-17.1c13.9-5.7,44.4-6.8,58.9-10.5
			C258.8,261.9,300.6,206.7,272.1,158.1z M221.7,254.5c-12.8,3.2-39.9,4.3-52.1,9.3c-6,2.5-21,15.3-21,15.3s-15.9-11.2-21.9-13.6
			c-15.7-6.2-29.4-5.9-66.4-11c-9.7-1.3-68.9-32.2-31.9-102.6c27.8-53-5.3-91.9-5.3-91.9L63,15.2c0,0,15.3,14.4,40.7,14.4
			c11.6,0,25.4-3,40.7-11.8c0.4-0.2,0.9-0.3,1.3-0.2c0.4,0,0.8,0.1,1.2,0.2c14.7,9.3,28.1,12.4,39.2,12.4
			c21.3,0,34.6-11.1,34.6-11.1L260.6,62c0,0-35.7,39.2-3.6,94.1C282.3,199.3,245.3,248.5,221.7,254.5L221.7,254.5z"/>
		<g id="Group_20" transform="translate(23.974 25.515)">
			<path id="Path_1426" class="st2" d="M213.5,70.7c2.1-12,6.6-23.5,13.4-33.7L195.6,3.4c-10.2,5.8-21.7,8.9-33.4,8.9
				c-13.6,0-27.2-4-40.6-11.9c-13.9,7.5-28,11.4-41.8,11.4c-14.1,0-27.9-4-39.7-11.7L8.9,35c7,10.8,11.5,23,13.4,35.7H213.5z"/>
			<path id="Path_1427" class="st2" d="M226.5,134.4c-12.3-21.1-15.3-40.2-14-56.1H23.1c0.9,14.8-1.8,32.3-11.9,51.6
				c-12.6,24.1-14.6,45.3-5.7,63c9.3,18.7,28,27.9,32,28.5c10.9,1.5,19.7,2.5,27.4,3.4c18,2.1,28.8,3.4,40.7,8.1
				c4.6,1.8,13.1,7.4,18.6,11.1c5.3-4.3,13.7-10.8,18.5-12.8c8.2-3.4,21.1-5,33.4-6.6c7.7-1,15-1.9,19.7-3.1
				c9.9-2.5,24.9-16.4,32.8-35.2C234.1,173.6,238,154.2,226.5,134.4z"/>
		</g>
	</g>
	<text transform="matrix(1 0 0 1 99.468 166.565)" class="st0 st3 st4">成為</text>
	<g class="st5">
		<path class="st6" d="M111,140.2v4.5h5.1l5.8-0.1l0.3,0.3c0,8.4-0.3,13.5-1.2,15.4c-0.9,2-3.5,2.8-7.5,2.8c-0.6,0-0.8-0.1-1-0.6
			l-2-5.2c-0.7,5.3-2.2,9.1-4.6,12.8c-0.2,0.2-0.3,0.4-0.5,0.4c-0.1,0-0.3-0.1-0.6-0.3l-4.6-4.1c3.4-4.3,4.3-9.3,4.3-17.8v-6.4
			l-0.1-7l0.3-0.3l7.6,0.1h11.6c-0.1-2.2-0.2-4.5-0.2-6.9l0.3-0.4h6l0.3,0.3c0,2.5,0,4.7,0.1,6.9h5.5c-1.2-1.4-2.5-2.6-3.9-3.7
			l-0.1-0.4l3.5-3.1l0.5-0.1c1.8,1.1,3.5,2.6,5,4.1l0,0.5l-3,2.7l5.8-0.1l0.3,0.3v5.2l-0.3,0.3l-6.8-0.1h-6c0.4,3.8,1,7.6,1.9,11.3
			c1.5-2.7,2.7-5.4,3.5-8.5l0.5-0.2l5.5,2.6l0.2,0.5c-1.6,4.9-3.9,9.3-6.9,13.3c1.5,3.1,2.6,4.2,3.1,4.2c0.6,0,1-0.9,1.7-5.9l4,3.3
			c0.5,0.4,0.6,0.6,0.6,1.2c-0.6,6.2-2.9,8.8-6.1,8.8c-2.5,0-5.2-1.5-8.1-6.8c-3,2.6-6.5,4.8-10.3,6.7c-0.3,0.1-0.5,0.2-0.7,0.2
			s-0.5-0.1-0.8-0.4l-4.2-4.3c5.1-2,9.5-4.9,13.2-8.6c-0.8-2.3-1.4-4.7-1.9-7.1c-0.7-3.4-1.2-6.8-1.5-10.3H111z M111,150.1
			c0,2.3-0.2,4.5-0.4,6.8c1.3,0,2.5,0,3.4,0s1.3-0.4,1.6-1.3c0.2-0.8,0.3-3.2,0.3-5.4H111z"/>
		<path class="st6" d="M156.4,155.6c-0.6,0.7-1.3,1.4-1.9,2l4.4,1.3l0.1,0.3c-0.8,3.1-2.5,7.5-3.7,9.3h-0.5l-4.7-2.2l-0.1-0.5
			c1.2-1.7,2.7-5,3.5-7.5c-1,0.9-1.9,1.7-2.9,2.4c-0.3,0.2-0.5,0.3-0.7,0.3c-0.2,0-0.4-0.1-0.6-0.4l-3.8-4.4
			c4.9-3.5,8.9-7.9,11.9-12.9c0.6-1.1,1.3-2.3,1.9-3.6H155l-6.3,0.1l-0.3-0.2v-4.9l0.3-0.2l5.8,0.1c-1.1-1.6-2.6-3.4-3.8-4.6
			l0.1-0.5l4.5-2.6l0.5,0c1.5,1.3,3.1,2.9,4.2,4.6l-0.1,0.5l-4.2,2.6h5.7c0.8-2.5,1.5-5.2,2-7.9l0.3-0.3l6.2,1.2l0.3,0.3
			c-0.6,2.4-1.1,4.7-1.8,6.8h6.5l6.4-0.1l0.3,0.3l-0.9,5.5l-0.2,2.2l4.6-0.1l0.3,0.3l-0.9,5.5l-0.2,2l4.3-0.1l0.3,0.3
			c-0.3,5.9-0.7,11.1-1.2,14.1c-0.3,1.7-0.9,3.5-2.2,4.6c-1.3,1.1-3.4,1.6-7.5,1.6c-1,0-1.3-0.1-1.5-0.6l-2-5.3c1.6,0,3.3,0.1,4.6,0
			c1.5-0.1,1.9-0.5,2.2-1.6c0.3-1.3,0.7-5.3,0.8-7.9H156.4z M164.1,157.8l0.4,0.2c0.6,2.2,1.4,5.7,1.7,8.1l-0.3,0.4l-4.7,1.6
			l-0.3-0.2c-0.3-2.6-0.8-5.8-1.5-8.3l0.2-0.4L164.1,157.8z M178.1,150.5l0.3-2.6h-16l-1.8,2.6H178.1z M174.2,142.8l0.3-2.9h-8
			c-0.4,1-0.8,1.9-1.3,2.9H174.2z M171.1,157.2l0.4,0c1.1,2.2,2,4.8,2.5,7l-0.3,0.4l-4.6,1.7l-0.3-0.2c-0.5-2.2-1.3-5.1-2.1-6.9
			l0.1-0.5L171.1,157.2z M178.3,156.4l0.4,0c1.1,1.7,1.9,3.5,2.6,5.5l-0.2,0.5l-4.2,1.8l-0.4-0.1c-0.6-2.1-1.3-3.7-2.4-5.5l0.1-0.6
			L178.3,156.4z"/>
	</g>
	<text transform="matrix(1 0 0 1 99.468 221.565)" class="st0 st3 st4">夥伴</text>
	<g class="st5">
		<path class="st6" d="M137.6,187l3.1-0.2l2.6,2c0.4,0.3,0.6,0.5,0.6,0.8c0,0.3-0.1,0.6-0.4,1.2c-2.3,4.6-4.9,7.8-8.4,10.4
			c-0.3,0.3-0.7,0.5-1,0.7l3.7,1.4l0.1,0.5c-0.6,0.7-1.1,1.4-1.7,2.1h2.3l3.1-0.2l2.6,2.1c0.4,0.3,0.6,0.6,0.6,0.9s-0.1,0.7-0.4,1.2
			c-2.3,5.2-5.4,8.7-9,11.3c-2.9,2.2-6.3,3.7-10.4,4.9c-0.3,0.1-0.6,0.1-0.8,0.1c-0.6,0-0.8-0.3-1.1-0.8l-2.8-4
			c4.4-1.1,7.5-2.3,9.9-3.7c-0.8-0.8-1.7-1.6-2.6-2.3l0-0.4l3.5-2.6l0.4-0.1c1,0.6,1.9,1.3,2.9,2.1c1.3-1.2,2.3-2.3,2.9-3.7h-5.4
			c-2,1.9-3.5,3-6.5,4.7c-0.3,0.2-0.5,0.2-0.7,0.2c-0.2,0-0.4-0.1-0.6-0.4l-3-4l0.2-0.1l-5.1-0.1h-1.4v3l1.7-1.6l0.4-0.1
			c2.5,1.7,3.8,2.8,6.1,5.1l0,0.5l-3.4,3.5l-0.4,0c-1.4-1.8-2.8-3.2-4.4-4.6l0.2,9.2h-6.1l0.4-9.6c-1.5,2.7-3,4.6-5.2,6.7
			c-0.2,0.2-0.4,0.3-0.6,0.3c-0.2,0-0.4-0.1-0.6-0.4l-3.1-3.9c3.3-2.7,5.3-5,7.2-8.1l-6.3,0.1l-0.3-0.3v-4.8l0.4-0.2l6.7,0.1h1.7
			v-2.6h-1.2l-5.7,0.1l-0.3-0.3l0.1-6.7v-6.9l-0.1-5.2l0.3-0.3l5.8,0.1h8.2l5.6-0.1l0.3,0.4l-0.1,5.4v1.4c4-3.1,6.1-5.5,8-9l0.4-0.1
			l5.1,1.4l0.2,0.5c-0.7,1.1-1.5,2.1-2.2,3.1H137.6z M107.5,188.6v2.9h2.3v-2.9H107.5z M107.5,195.8v2.9h2.3v-2.9H107.5z
			 M114.8,191.5h2.3v-2.9h-2.3V191.5z M114.8,198.7h2.3v-2.9h-2.3V198.7z M115.1,206h1.4l6.8-0.1l0.2,0.3v4.1c1.5-0.9,3-1.8,4.3-2.9
			c1.3-1.2,2.4-2.4,3.5-3.7c-1.3,0.7-2.9,1.5-4.6,2.2c-0.5,0.2-0.8,0.3-1,0.3c-0.4,0-0.6-0.3-0.9-0.7l-2.2-2.9v0.6l-0.4,0.3
			l-5.2-0.1h-2V206z M130.4,191.7c-1,1.1-2.2,2.2-3.9,3.6c-0.3,0.2-0.5,0.3-0.7,0.3c-0.2,0-0.5-0.1-0.7-0.4l-2.7-2.8v3.7l0.1,5.1
			c2.6-0.8,5.1-1.8,7.4-3.3c-0.8-0.7-1.7-1.3-2.5-1.9l-0.1-0.4l3.2-2.7l0.4-0.1c1,0.6,2,1.2,3,1.8c1-1,1.9-2,2.6-3.1H130.4z"/>
		<path class="st6" d="M157.8,226.2h-6.4l0.2-14.2v-5.1c-0.6,1.4-1.1,2.2-1.7,3.4c-0.2,0.3-0.4,0.5-0.6,0.5c-0.2,0-0.4-0.2-0.5-0.5
			l-1.7-6.3c3.4-6.2,5.9-13.4,7.1-21.5l0.4-0.2l5.8,1.2l0.2,0.4c-0.9,3.8-1.7,7.1-2.8,10.1V226.2z M181.6,197.4l6-0.1l0.3,0.3v5.2
			l-0.3,0.3l-6-0.1h-4.8v5.7h6.6l6.5-0.1l0.3,0.3v5.2l-0.3,0.3l-6.5-0.1h-6.6l0.2,12h-6.9l0.2-12H165l-6,0.1l-0.3-0.3v-5.2l0.3-0.3
			l6,0.1h5.3v-5.7h-4.2l-5.8,0.1l-0.3-0.3v-5.2l0.3-0.3l5.8,0.1h4.2v-14.3l0.3-0.4h5.8l0.3,0.3v14.3H181.6z M163.8,196.2l-0.4-0.2
			c-0.6-2.3-2.3-5.4-3.5-7.3l0.2-0.4l4.6-2l0.5,0.1c1.4,1.7,2.9,4.1,4.1,6.9l-0.2,0.4L163.8,196.2z M187.4,187.6l0.2,0.4
			c-1.1,2.9-2.1,5.3-3.4,7.4c-0.2,0.3-0.3,0.4-0.5,0.4c-0.1,0-0.4,0-0.7-0.2l-4.5-1.7c1.2-2.6,1.9-4.6,2.9-8.1l0.4-0.2L187.4,187.6z
			"/>
	</g>
	<g id="Ellipse_341" transform="translate(59.507 0)">
		<circle class="st7" cx="8.5" cy="8.5" r="8.5"/>
		<circle class="st6" cx="8.5" cy="8.5" r="7.5"/>
	</g>
	<g id="Ellipse_342" transform="translate(144.507 0)">
		<circle class="st7" cx="8" cy="8" r="8"/>
		<circle class="st6" cx="8" cy="8" r="7"/>
	</g>
	<g id="Ellipse_343" transform="translate(225.507 0)">
		<circle class="st7" cx="8" cy="8" r="8"/>
		<circle class="st6" cx="8" cy="8" r="7"/>
	</g>
	<g id="Ellipse_344" transform="translate(5.507 55)">
		<circle class="st7" cx="8.5" cy="8.5" r="8.5"/>
		<circle class="st6" cx="8.5" cy="8.5" r="7.5"/>
	</g>
	<g id="Ellipse_345" transform="translate(22.507 117)">
		<circle class="st7" cx="8.5" cy="8.5" r="8.5"/>
		<circle class="st6" cx="8.5" cy="8.5" r="7.5"/>
	</g>
	<g id="Ellipse_346" transform="translate(-0.493 197)">
		<circle class="st7" cx="8.5" cy="8.5" r="8.5"/>
		<circle class="st6" cx="8.5" cy="8.5" r="7.5"/>
	</g>
	<g id="Ellipse_347" transform="translate(22.507 256)">
		<circle class="st7" cx="8.5" cy="8.5" r="8.5"/>
		<circle class="st6" cx="8.5" cy="8.5" r="7.5"/>
	</g>
	<g id="Ellipse_348" transform="translate(90.507 274)">
		<circle class="st7" cx="8.5" cy="8.5" r="8.5"/>
		<circle class="st6" cx="8.5" cy="8.5" r="7.5"/>
	</g>
	<g id="Ellipse_349" transform="translate(149.507 300)">
		<circle class="st7" cx="8" cy="8" r="8"/>
		<circle class="st6" cx="8" cy="8" r="7"/>
	</g>
	<g id="Ellipse_350" transform="translate(207.507 274)">
		<circle class="st7" cx="8.5" cy="8.5" r="8.5"/>
		<circle class="st6" cx="8.5" cy="8.5" r="7.5"/>
	</g>
	<g id="Ellipse_351" transform="translate(258.507 256)">
		<circle class="st7" cx="9" cy="9" r="9"/>
		<circle class="st6" cx="9" cy="9" r="8"/>
	</g>
	<g id="Ellipse_352" transform="translate(277.507 55)">
		<circle class="st7" cx="8.5" cy="8.5" r="8.5"/>
		<circle class="st6" cx="8.5" cy="8.5" r="7.5"/>
	</g>
	<g id="Ellipse_353" transform="translate(261.507 117)">
		<circle class="st7" cx="8.5" cy="8.5" r="8.5"/>
		<circle class="st6" cx="8.5" cy="8.5" r="7.5"/>
	</g>
	<g id="Ellipse_354" transform="translate(283.507 197)">
		<circle class="st7" cx="8.5" cy="8.5" r="8.5"/>
		<circle class="st6" cx="8.5" cy="8.5" r="7.5"/>
	</g>
</g>
</svg>
