<svg id="ic_shopping" data-name="ic/shopping" xmlns="http://www.w3.org/2000/svg" width="37.58" height="37.58" viewBox="0 0 37.58 37.58">
  <g id="ic_shopping_24px">
    <path id="Shape" d="M0,0H37.58V37.58H0Z" fill="none"/>
    <path id="Fill_5" data-name="Fill 5" d="M25.054,31.316a3.131,3.131,0,1,1,3.131-3.131A3.127,3.127,0,0,1,25.054,31.316Zm-15.658,0a3.131,3.131,0,1,1,3.131-3.131A3.127,3.127,0,0,1,9.4,31.316Zm18.79-7.828H9.4a3.136,3.136,0,0,1-3.133-3.133,3.026,3.026,0,0,1,.392-1.5l2.114-3.836L3.131,3.131H0V0H5.12L6.593,3.131H29.751A1.567,1.567,0,0,1,31.316,4.7a1.54,1.54,0,0,1-.187.753L25.523,15.612a3.119,3.119,0,0,1-2.74,1.612H11.118L9.708,19.776l-.047.189a.386.386,0,0,0,.39.39H28.185v3.133Z" transform="translate(3.132 3.132)"/>
  </g>
</svg>
