<?xml version="1.0" encoding="utf-8"?>
<!-- Generator: Adobe Illustrator 25.0.0, SVG Export Plug-In . SVG Version: 6.00 Build 0)  -->
<svg version="1.1" id="圖層_1" xmlns="http://www.w3.org/2000/svg" xmlns:xlink="http://www.w3.org/1999/xlink" x="0px" y="0px"
	 viewBox="0 0 239 66.8" style="enable-background:new 0 0 239 66.8;" xml:space="preserve">
<style type="text/css">
	.st0{fill:#FFC024;stroke:#FFC024;stroke-miterlimit:10;}
	.st1{stroke:#000000;stroke-miterlimit:10;}
</style>
<g id="Path_1433">
	<path class="st0" d="M81.1,65.3c-35.4,0-68.2-0.9-78.1-1.1l5.9-7.5l0.9-1.1l-1.1-0.9L2,48.9l7-10.2L9.4,38l-0.3-0.8L4,25.7l5-9.3
		l0.4-0.8L9,14.9L3,5.6c2.8,0.3,7.4,0.6,15,0.6c13.3,0,31.1-0.9,52.8-2.8c14.6-1.3,33.2-1.9,55.4-1.9c15,0,40,0.3,73.5,1.8
		c15,0.7,26.5,1.3,31.4,1.6l-6.2,9.6l-0.7,1.1l1,0.9l9.9,8.6l-12.1,12.5l-1.2,1.3l1.4,1l13.2,9.4l-8.1,5l-1.1,0.7l0.6,1.2l3.6,7.8
		c-5.3-0.3-18.5-1-38.5-1c-15.5,0-31.9,0.4-48.9,1.2C126.9,64.9,105.8,65.3,81.1,65.3z"/>
	<path class="st1" d="M126.2,3C104.1,3,85.5,3.6,71,4.9C49.2,6.8,31.4,7.7,18,7.7c-5.3,0-9.2-0.2-12.1-0.4l4.3,6.8l0.9,1.5l-0.8,1.5
		l-4.7,8.6l4.8,10.9l0.7,1.5l-0.9,1.4L4,48.6l5.7,4.9l2.2,1.9l-1.8,2.2l-4,5.1c12.4,0.3,42.6,1,75,1c24.7,0,45.8-0.4,62.7-1.2
		c17-0.8,33.5-1.2,49-1.2c17.4,0,29.7,0.5,36.1,0.9l-2.6-5.5l-1.1-2.4l2.3-1.4l6.2-3.9l-11.4-8.1l-2.8-2l2.4-2.5l11-11.4l-8.7-7.6
		l-2-1.7l1.4-2.2l4.8-7.4c-5.8-0.3-16-0.9-28.8-1.5C166.1,3.3,141.2,3,126.2,3 M126.2,0c52.7,0,107.6,3.6,107.6,3.6l-7.6,11.8
		l11,9.7L224,38.6L239,49.3l-10,6.2l4.7,10.1c0,0-14.4-1.2-41-1.2c-13.3,0-29.7,0.3-48.8,1.2c-19.2,0.9-41.6,1.2-62.9,1.2
		C38.4,66.8,0,65.6,0,65.6l7.7-9.8L0,49.1l7.7-11.3L2.3,25.6l5.4-9.9L0,3.6c0,0,3.7,1.1,18,1.1c10.7,0,27.3-0.6,52.7-2.8
		C86.9,0.5,106.4,0,126.2,0z"/>
</g>
</svg>
