<?xml version="1.0" encoding="utf-8"?>
<!-- Generator: Adobe Illustrator 25.0.0, SVG Export Plug-In . SVG Version: 6.00 Build 0)  -->
<svg version="1.1" id="圖層_1" xmlns="http://www.w3.org/2000/svg" xmlns:xlink="http://www.w3.org/1999/xlink" x="0px" y="0px"
	 viewBox="0 0 425.3 116.7" style="enable-background:new 0 0 425.3 116.7;" xml:space="preserve">
<style type="text/css">
	.st0{fill:#4336A3;stroke:#000000;stroke-width:3;stroke-miterlimit:10;}
</style>
<g id="see_more" transform="translate(-751.818 -3264.814)">
	<g id="Path_1447" transform="translate(751.818 3264.814)">
		<path class="st0" d="M146.1,115.2c-64.8,0-124.7-1.6-138.5-2l11.6-14.8l0.9-1.1L19,96.4L6.6,85.5l12.7-18.6l0.5-0.7l-0.3-0.8
			l-9.1-20.6l9-16.6l0.4-0.8l-0.5-0.7L7.7,8.4C11.9,9,20.4,9.8,36,9.8c23.2,0,54.2-1.7,92.1-4.9c25.5-2.2,58.1-3.3,96.7-3.3
			c21,0,43.9,0.3,68.1,1c19.4,0.4,39.7,1.1,60.2,2c28.4,1.3,49.7,2.5,56.8,3L398,26l-0.7,1.1l1,0.9l18.1,15.8l-22,22.6l-1.2,1.3
			l1.4,1L419,86l-15.5,9.7l-1.1,0.7l0.6,1.2l7.1,15.2c-2.9-0.2-8.2-0.5-15.8-0.9c-11-0.5-29.2-1.1-53.2-1.1c-27,0-55.7,0.7-85.3,2.1
			C226.2,114.4,189.3,115.2,146.1,115.2z"/>
		<path class="st0" d="M224.9,3L224.9,3c-38.6,0-71.1,1.1-96.6,3.3c-37.9,3.3-68.9,4.9-92.2,4.9c-10.4,0-19-0.3-25.4-1l9.9,15.6
			l0.9,1.5l-0.8,1.5l-8.7,16l8.8,20l0.7,1.5l-0.9,1.4l-12,17.5L20,95.1l2.2,1.9l-1.8,2.2l-9.8,12.5c18,0.5,74.6,2,135.4,2
			c43.2,0,80-0.7,109.6-2.1s58.4-2.1,85.4-2.1c24,0,42.2,0.6,53.3,1.1c5.8,0.3,10.2,0.5,13.3,0.7l-6-13.1l-1.1-2.4l2.3-1.4l13.6-8.5
			l-22.6-16.1l-2.8-2l2.4-2.5l20.9-21.5l-17-14.8l-2-1.7l1.4-2.2l10.5-16.2c-8.9-0.5-28.6-1.7-54.2-2.8c-20.5-0.9-40.8-1.6-60.1-2.2
			C268.7,3.3,245.8,3,224.9,3 M224.9,0c92,0,187.7,6.3,187.7,6.3l-13.3,20.5l19.3,16.8l-23.1,23.8l26.3,18.7L404.3,97l8.2,17.6
			c0,0-25.1-2.1-71.5-2.1c-23.2,0-51.8,0.5-85.2,2.1c-33.5,1.6-72.5,2.1-109.7,2.1c-74.5,0-141.5-2.2-141.5-2.2l13.5-17.1L4.6,85.7
			L18.1,66L8.7,44.7l9.4-17.3L4.6,6.3c0,0,6.5,1.9,31.4,1.9c18.7,0,47.6-1.1,91.9-4.9C156.3,0.9,190.3,0,224.9,0z"/>
	</g>
</g>
</svg>
