<svg xmlns="http://www.w3.org/2000/svg" width="239.01" height="66.848" viewBox="0 0 239.01 66.848">
  <g id="Path_1433" data-name="Path 1433" fill="#ffc024">
    <path d="M 81.07154846191406 65.34815216064453 C 45.66769790649414 65.34815216064453 12.83810997009277 64.49603271484375 3.015790224075317 64.21627044677734 L 8.887765884399414 56.73921203613281 L 9.769797325134277 55.6160888671875 L 8.691359519958496 54.67996215820312 L 1.992486715316772 48.86523818969727 L 8.946422576904297 38.69190216064453 L 9.416110038757324 38.00477600097656 L 9.08164119720459 37.24265289306641 L 4.014165878295898 25.6954460144043 L 9.02723503112793 16.43380737304688 L 9.446672439575195 15.65890121459961 L 8.974079132080078 14.91524505615234 L 3.047759771347046 5.58983039855957 C 5.799828052520752 5.893661022186279 10.46805000305176 6.206870079040527 18.01976585388184 6.206870079040527 C 31.35895347595215 6.206870079040527 49.12873458862305 5.26033878326416 70.83541870117188 3.393588542938232 C 85.44617462158203 2.137088537216187 104.0760498046875 1.499994874000549 126.20751953125 1.499994874000549 C 141.2274475097656 1.499994874000549 166.1686096191406 1.811213612556458 199.6916961669922 3.293869733810425 C 214.7171783447266 3.95842170715332 226.2239532470703 4.629253387451172 231.1044158935547 4.92746639251709 L 224.8794860839844 14.5245885848999 L 224.1721038818359 15.61521339416504 L 225.1510467529297 16.47046279907227 L 235.0065460205078 25.08099555969238 L 222.8817901611328 37.56843185424805 L 221.6644592285156 38.82218170166016 L 223.0882720947266 39.83546447753906 L 236.3098754882812 49.24480438232422 L 228.2463226318359 54.28943252563477 L 227.1197052001953 54.99427795410156 L 227.6836395263672 56.19758987426758 L 231.3164520263672 63.94960403442383 C 226.0506286621094 63.60757827758789 212.8228607177734 62.90740203857422 192.7966156005859 62.90740203857422 C 177.3233337402344 62.90740203857422 160.8659210205078 63.31855773925781 143.8815765380859 64.12949371337891 C 126.9446411132812 64.93811798095703 105.8122940063477 65.34815216064453 81.07154846191406 65.34815216064453 Z" stroke="none"/>
    <path d="M 126.2077255249023 3.000003814697266 C 104.1167602539062 3.000205993652344 85.53005981445312 3.63543701171875 70.96392822265625 4.888103485107422 C 49.21488952636719 6.758506774902344 31.40196228027344 7.706871032714844 18.01992797851562 7.706871032714844 C 12.70001220703125 7.706871032714844 8.786224365234375 7.553020477294922 5.945526123046875 7.353046417236328 L 10.24002075195312 14.1107063293457 L 11.18522644042969 15.59803771972656 L 10.34635925292969 17.1478385925293 L 5.682449340820312 25.76435852050781 L 10.45515441894531 36.63983917236328 L 11.12409973144531 38.16410446166992 L 10.18475341796875 39.53833770751953 L 3.98492431640625 48.60847854614258 L 9.674591064453125 53.54720306396484 L 11.83149719238281 55.41943740844727 L 10.06745910644531 57.66567230224609 L 6.0357666015625 62.79938888549805 C 18.45034790039062 63.13462066650391 48.68241882324219 63.84813690185547 81.071533203125 63.84813690185547 C 105.7887878417969 63.84813690185547 126.8970947265625 63.43870544433594 143.8100280761719 62.63117218017578 C 160.81787109375 61.81913757324219 177.2993316650391 61.40740585327148 192.7966003417969 61.40740585327148 C 210.1865692138672 61.40740585327148 222.4747467041016 61.93516540527344 228.8866729736328 62.29962539672852 L 226.3253936767578 56.83413696289062 L 225.1975555419922 54.42747116088867 L 227.4507904052734 53.01780700683594 L 233.6100463867188 49.16449737548828 L 222.2185211181641 41.05757141113281 L 219.3709259033203 39.03103637695312 L 221.8056640625 36.52350616455078 L 232.8290100097656 25.17038726806641 L 224.1641235351562 17.60007095336914 L 222.2062683105469 15.8895378112793 L 223.6210632324219 13.70833969116211 L 228.4454650878906 6.270435333251953 C 222.6849212646484 5.929954528808594 212.4358673095703 5.358848571777344 199.6255187988281 4.792240142822266 C 166.1298828125 3.310707092285156 141.2125244140625 2.999870300292969 126.2077255249023 3.000003814697266 M 126.2077026367188 0 C 178.9397277832031 -0.0004425048828125 233.7594299316406 3.590671539306641 233.7594299316406 3.590671539306641 L 226.1379547119141 15.34087371826172 L 237.1840667724609 24.99160385131836 L 223.9579925537109 38.61333847045898 L 239.0097198486328 49.32510375976562 L 229.0419006347656 55.56110382080078 L 233.7594299316406 65.62776947021484 C 233.7594299316406 65.62776947021484 219.4027709960938 64.40740203857422 192.7966003417969 64.40740203857422 C 179.4910888671875 64.40740203857422 163.125732421875 64.71237945556641 143.9530944824219 65.62776947021484 C 124.7839736938477 66.54299163818359 102.3967437744141 66.84814453125 81.071533203125 66.84814453125 C 38.41720581054688 66.84814453125 0 65.62776947021484 0 65.62776947021484 L 7.708053588867188 55.81277084350586 L 0 49.12203979492188 L 7.708053588867188 37.84540557861328 L 2.345794677734375 25.62650680541992 L 7.708053588867188 15.71977233886719 L 0 3.590671539306641 C 0 3.590671539306641 3.724655151367188 4.706882476806641 18.01991271972656 4.706882476806641 C 28.7127685546875 4.706882476806641 45.31976318359375 4.082401275634766 70.70689392089844 1.899139404296875 C 86.90019226074219 0.50653076171875 106.4110565185547 0.0001678466796875 126.2077026367188 0 Z" stroke="none"/>
  </g>
</svg>
