<svg id="banking" xmlns="http://www.w3.org/2000/svg" width="70.605" height="65.225" viewBox="0 0 70.605 65.225">
  <g id="Group_908" data-name="Group 908" transform="translate(1 1)">
    <g id="Group_888" data-name="Group 888" transform="translate(8 21.466)">
      <path id="Path_1529" data-name="Path 1529" d="M35.107,34,28.89,38H10V22H62.605V38H43.715L37.5,34Z" transform="translate(-10 -22)" fill="#ecc19c"/>
    </g>
    <g id="Group_889" data-name="Group 889" transform="translate(4 8.45)">
      <path id="Path_1530" data-name="Path 1530" d="M22,12A10,10,0,0,0,32,22H6V21L22.12,10.45A9.83,9.83,0,0,0,22,12Z" transform="translate(-6 -10.45)" fill="#cf9e76"/>
    </g>
    <g id="Group_890" data-name="Group 890" transform="translate(38.605 8.45)">
      <path id="Path_1531" data-name="Path 1531" d="M58,21v1H32A10,10,0,0,0,42,12a9.83,9.83,0,0,0-.12-1.55Z" transform="translate(-32 -10.45)" fill="#cf9e76"/>
    </g>
    <g id="Group_891" data-name="Group 891" transform="translate(0 38.15)">
      <path id="Path_1532" data-name="Path 1532" d="M25.8,38,18,44H3a1,1,0,0,1-1-1V39a1,1,0,0,1,1-1H25.8Z" transform="translate(-2 -38)" fill="#ccd1d9"/>
    </g>
    <g id="Group_892" data-name="Group 892" transform="translate(44.805 38.15)">
      <path id="Path_1533" data-name="Path 1533" d="M62,39v4a1,1,0,0,1-1,1H46l-7.8-6H61A1,1,0,0,1,62,39Z" transform="translate(-38.2 -38)" fill="#ccd1d9"/>
    </g>
    <g id="Group_893" data-name="Group 893" transform="translate(2 45.225)">
      <path id="Path_1534" data-name="Path 1534" d="M18,46h2V62H4V44H18Z" transform="translate(-4 -44)" fill="#e6e9ed"/>
    </g>
    <g id="Group_894" data-name="Group 894" transform="translate(50.605 45.225)">
      <path id="Path_1535" data-name="Path 1535" d="M46,46V44H60V62H44V46Z" transform="translate(-44 -44)" fill="#e6e9ed"/>
    </g>
    <g id="Group_895" data-name="Group 895" transform="translate(6 49.225)">
      <path id="Path_1536" data-name="Path 1536" d="M8,48h8V58H8Z" transform="translate(-8 -48)" fill="#aab2bd"/>
    </g>
    <g id="Group_896" data-name="Group 896" transform="translate(54.605 49.225)">
      <path id="Path_1537" data-name="Path 1537" d="M48,48h8V58H48Z" transform="translate(-48 -48)" fill="#aab2bd"/>
    </g>
    <g id="Group_897" data-name="Group 897" transform="translate(20.303 34.15)">
      <path id="Path_1538" data-name="Path 1538" d="M46,44v2H41l-9-7.59L23,46H18V44l7.8-6L31,34h2l5.2,4Z" transform="translate(-18 -34)" fill="#a0d468"/>
    </g>
    <g id="Group_898" data-name="Group 898" transform="translate(25.303 38.65)">
      <path id="Path_1539" data-name="Path 1539" d="M41,46H23l9-7.59Z" transform="translate(-23 -38.41)" fill="#b4dd7f"/>
    </g>
    <g id="Group_899" data-name="Group 899" transform="translate(20.766 47.225)">
      <path id="Path_1540" data-name="Path 1540" d="M24,46V62H20V46h4Z" transform="translate(-20 -46)" fill="#ccd1d9"/>
    </g>
    <g id="Group_900" data-name="Group 900" transform="translate(43.839 47.225)">
      <path id="Path_1541" data-name="Path 1541" d="M41,46h3V62H40V46Z" transform="translate(-40 -46)" fill="#ccd1d9"/>
    </g>
    <g id="Group_901" data-name="Group 901" transform="translate(26.303 47.225)">
      <path id="Path_1542" data-name="Path 1542" d="M24,46H40V62H24Z" transform="translate(-24 -46)" fill="#e6e9ed"/>
    </g>
    <g id="Group_902" data-name="Group 902" transform="translate(30.303 51.225)">
      <path id="Path_1543" data-name="Path 1543" d="M36,54v8H28V54a4,4,0,1,1,8,0Z" transform="translate(-28 -50)" fill="#aab2bd"/>
    </g>
    <g id="Group_903" data-name="Group 903" transform="translate(13.912 25.488)">
      <path id="Path_1544" data-name="Path 1544" d="M14,26h6v8H14Z" transform="translate(-14 -26)" fill="#69d6f4"/>
    </g>
    <g id="Group_904" data-name="Group 904" transform="translate(25.506 25.488)">
      <path id="Path_1545" data-name="Path 1545" d="M24,26h6v8H24Z" transform="translate(-24 -26)" fill="#69d6f4"/>
    </g>
    <g id="Group_905" data-name="Group 905" transform="translate(37.1 25.488)">
      <path id="Path_1546" data-name="Path 1546" d="M34,26h6v8H34Z" transform="translate(-34 -26)" fill="#69d6f4"/>
    </g>
    <g id="Group_906" data-name="Group 906" transform="translate(48.693 25.488)">
      <path id="Path_1547" data-name="Path 1547" d="M44,26h6v8H44Z" transform="translate(-44 -26)" fill="#69d6f4"/>
    </g>
    <g id="Group_907" data-name="Group 907" transform="translate(24.303)">
      <path id="Path_1548" data-name="Path 1548" d="M41.88,10.45A9.829,9.829,0,0,1,42,12a10,10,0,0,1-20,0,9.83,9.83,0,0,1,.12-1.55h.01a9.989,9.989,0,0,1,19.74,0Z" transform="translate(-22 -2)" fill="#fcd770"/>
    </g>
  </g>
  <g id="Group_909" data-name="Group 909">
    <path id="Path_1549" data-name="Path 1549" d="M31,19h2V17a3,3,0,0,0,0-6H31a1,1,0,0,1,0-2h3v1h2V7H33V5H31V7a3,3,0,0,0,0,6h2a1,1,0,0,1,0,2H30V14H28v3h3Z" transform="translate(3.303 -1)"/>
    <path id="Path_1550" data-name="Path 1550" d="M69.328,38.872H62.5V24.144H67.05V21.471L48.587,10.32C47.449,5.013,42.376,1,36.3,1S25.156,5.013,24.019,10.32L5.555,21.471v2.673H10.11V38.872H3.278A2.2,2.2,0,0,0,1,40.976v4.208a2.2,2.2,0,0,0,2.278,2.1V66.225h66.05V47.288a2.2,2.2,0,0,0,2.278-2.1V40.976a2.2,2.2,0,0,0-2.278-2.1ZM43.483,22.04a11.36,11.36,0,0,0,5.325-9.075L63.831,22.04ZM36.3,3.1c5.652,0,10.249,4.248,10.249,9.468S41.955,22.04,36.3,22.04s-10.249-4.248-10.249-9.468S30.651,3.1,36.3,3.1ZM23.8,12.966a11.36,11.36,0,0,0,5.325,9.075H8.775ZM12.388,24.144h47.83V38.872H43.75l-2.961-2.1h5.762V26.248h-9.11v8.416H35.164V26.248h-9.11v10.52h5.762l-2.961,2.1H12.388ZM39.719,64.121H32.886V56.757a3.427,3.427,0,0,1,6.833,0ZM36.3,51.5a5.5,5.5,0,0,0-5.694,5.26v7.364H28.331V49.392H44.274V64.121H42V56.757A5.5,5.5,0,0,0,36.3,51.5Zm-10.249-2.1V64.121H23.776V49.392Zm3.117-2.1L36.3,41.733l7.132,5.556Zm17.381,2.1H48.83V64.121H46.552Zm.416-2.1L36.3,38.981,25.638,47.288H21.5v-.534l14.053-9.986h1.5l14.053,9.986v.534ZM32.886,34.664H28.331V28.352h4.555Zm6.833,0V28.352h4.555v6.312ZM3.278,40.976H25.894l-5.922,4.208H3.278Zm2.278,6.312H19.221v2.1H21.5V64.121H5.555Zm61.5,16.832H51.107V49.392h2.278v-2.1H67.05Zm2.278-18.936H52.633l-5.922-4.208H69.328Z" transform="translate(-1 -1)"/>
    <path id="Path_1551" data-name="Path 1551" d="M51,25H43V35h8Zm-2,8H45V27h4Z" transform="translate(5.693 0.488)"/>
    <path id="Path_1552" data-name="Path 1552" d="M13,35h8V25H13Zm2-8h4v6H15Z" transform="translate(0.912 0.488)"/>
    <path id="Path_1553" data-name="Path 1553" d="M57,59V47H47V59ZM49,49h6v8H49Z" transform="translate(7.605 2.225)"/>
    <path id="Path_1554" data-name="Path 1554" d="M7,59H17V47H7ZM9,49h6v8H9Z" transform="translate(-1 2.225)"/>
  </g>
</svg>
