<?xml version="1.0" encoding="utf-8"?>
<!-- Generator: Adobe Illustrator 24.3.0, SVG Export Plug-In . SVG Version: 6.00 Build 0)  -->
<svg version="1.1" id="圖層_1" xmlns="http://www.w3.org/2000/svg" xmlns:xlink="http://www.w3.org/1999/xlink" x="0px" y="0px"
	 viewBox="0 0 67.5 48" style="enable-background:new 0 0 67.5 48;" xml:space="preserve">
<style type="text/css">
	.st0{fill:#FF4E42;}
	.st1{fill:#020202;}
	.st2{fill:none;}
	.st3{fill:#FFFFFF;}
	.st4{fill:none;stroke:#000000;stroke-width:1.5;}
	.st5{fill:none;stroke:#000000;stroke-width:3;}
</style>
<g id="ic_shopping_list" transform="translate(-876 -904.439)">
	<path id="Path_1436" class="st0" d="M888,923.7l47.9-0.8l-6.1,27.7l-34.6,0.8L888,923.7z"/>
	<path id="Path_1435" class="st0" d="M885.8,915.9h53.6l1.9,10h-57.7L885.8,915.9z"/>
	<g id="Path_1433" transform="translate(876 914.933)">
		<path class="st1" d="M6.8,4l-1,4h55.8l-0.8-4H6.8 M4.4,1h58.8l2.1,10H2L4.4,1z"/>
	</g>
	<g id="Path_1434" transform="translate(880.439 922.701)">
		<path class="st2" d="M2,1h54.4l-6.1,27.7H9.2L2,1z"/>
		<path d="M5.9,4l5.6,21.7h36.4L52.7,4H5.9 M2,1h54.4l-6.1,27.7H9.2L2,1z"/>
	</g>
	<path id="Rectangle_1521" class="st3" d="M908.3,932.6L908.3,932.6c0.8,0,1.4,0.6,1.4,1.4v6.9c0,0.8-0.6,1.4-1.4,1.4l0,0
		c-0.8,0-1.4-0.6-1.4-1.4v-6.9C906.9,933.2,907.5,932.6,908.3,932.6z"/>
	<path id="Rectangle_1520" class="st3" d="M919.4,932.6L919.4,932.6c0.8,0,1.4,0.6,1.4,1.4v6.9c0,0.8-0.6,1.4-1.4,1.4l0,0
		c-0.8,0-1.4-0.6-1.4-1.4v-6.9C918,933.2,918.6,932.6,919.4,932.6z"/>
	<path id="Rectangle_1519" class="st3" d="M897.2,932.6L897.2,932.6c0.8,0,1.4,0.6,1.4,1.4v6.9c0,0.8-0.6,1.4-1.4,1.4l0,0
		c-0.8,0-1.4-0.6-1.4-1.4v-6.9C895.8,933.2,896.4,932.6,897.2,932.6z"/>
	<g id="Rectangle_1516" transform="translate(893.756 929.359)">
		<path class="st2" d="M5,1h0.1c1.7,0,3,1.3,3,3v8.1c0,1.7-1.3,3-3,3H5c-1.7,0-3-1.3-3-3V4C2,2.3,3.4,1,5,1z"/>
		<path class="st4" d="M5,1.7h0.1c1.2,0,2.2,1,2.2,2.2v8.1c0,1.2-1,2.2-2.2,2.2H5c-1.2,0-2.2-1-2.2-2.2V4C2.8,2.7,3.8,1.7,5,1.7z"/>
	</g>
	<g id="Rectangle_1517" transform="translate(904.853 929.359)">
		<path class="st2" d="M5,1h0.1c1.7,0,3,1.3,3,3v8.1c0,1.7-1.3,3-3,3H5c-1.7,0-3-1.3-3-3V4C2,2.3,3.4,1,5,1z"/>
		<path class="st4" d="M5,1.7h0.1c1.2,0,2.2,1,2.2,2.2v8.1c0,1.2-1,2.2-2.2,2.2H5c-1.2,0-2.2-1-2.2-2.2V4C2.8,2.7,3.8,1.7,5,1.7z"/>
	</g>
	<g id="Rectangle_1518" transform="translate(915.95 929.359)">
		<path class="st2" d="M5,1h0.1c1.7,0,3,1.3,3,3v8.1c0,1.7-1.3,3-3,3H5c-1.7,0-3-1.3-3-3V4C2,2.3,3.4,1,5,1z"/>
		<path class="st4" d="M5,1.7h0.1c1.2,0,2.2,1,2.2,2.2v8.1c0,1.2-1,2.2-2.2,2.2H5c-1.2,0-2.3-1-2.3-2.2V4C2.8,2.7,3.8,1.7,5,1.7z"/>
	</g>
	<line id="Line_17" class="st5" x1="886.3" y1="917.6" x2="897.4" y2="906.5"/>
	<line id="Line_18" class="st5" x1="931.8" y1="917.6" x2="920.7" y2="906.5"/>
</g>
</svg>
