<svg xmlns="http://www.w3.org/2000/svg" width="99.029" height="106.447" viewBox="0 0 99.029 106.447">
  <g id="alien_1_" data-name="alien (1)" transform="matrix(0.891, 0.454, -0.454, 0.891, 38.53, -0.001)">
    <path id="Path_1487" data-name="Path 1487" d="M64.139,76.445a11.319,11.319,0,0,1-3.8-8.459V12.244a4.244,4.244,0,0,0-8.487,0v7.073H29.222V12.244a4.244,4.244,0,0,0-8.487,0V67.986a11.314,11.314,0,0,1-3.8,8.459L8,84.384c7.78,0,9.194,5.658,16.974,5.658s7.78-5.658,15.56-5.658,7.78,5.658,15.56,5.658,9.194-5.658,16.974-5.658Zm0,0" transform="translate(-6.587 -6.585)" fill="#36afad"/>
    <path id="Path_1488" data-name="Path 1488" d="M150.636,131.316A11.316,11.316,0,1,1,139.32,120,11.316,11.316,0,0,1,150.636,131.316Zm0,0" transform="translate(-105.369 -98.782)" fill="#fdbd40"/>
    <path id="Path_1489" data-name="Path 1489" d="M148.9,270.413a16.914,16.914,0,0,1-9.259-2.745l1.545-2.37a14.386,14.386,0,0,0,15.429,0l1.545,2.37A16.916,16.916,0,0,1,148.9,270.413Zm0,0" transform="translate(-114.945 -218.388)" fill="#394d5c"/>
    <path id="Path_1490" data-name="Path 1490" d="M176.491,164.244A4.244,4.244,0,1,1,172.247,160,4.243,4.243,0,0,1,176.491,164.244Zm0,0" transform="translate(-138.297 -131.71)" fill="#db527d"/>
    <path id="Path_1491" data-name="Path 1491" d="M262.076,326.218l-1.929-1.93a14.052,14.052,0,0,1-4.143-10V304h2.829v10.286a11.242,11.242,0,0,0,3.315,8l1.929,1.929Zm0,0" transform="translate(-210.737 -250.248)" fill="#394d5c"/>
    <path id="Path_1492" data-name="Path 1492" d="M256,272h2.829v2.829H256Zm0,0" transform="translate(-210.737 -223.906)" fill="#394d5c"/>
    <path id="Path_1493" data-name="Path 1493" d="M1.417,79.213a13.4,13.4,0,0,1,7.745,2.62,16.16,16.16,0,0,0,9.23,3.038A13.063,13.063,0,0,0,27,81.772a10.713,10.713,0,0,1,13.9,0,13.074,13.074,0,0,0,8.616,3.1,16.151,16.151,0,0,0,9.229-3.038,13.42,13.42,0,0,1,7.745-2.62,1.415,1.415,0,0,0,.939-2.473L58.493,68.8a9.9,9.9,0,0,1-3.324-7.4V5.658a5.658,5.658,0,0,0-11.316,0v5.658h-19.8V5.658a5.658,5.658,0,0,0-11.316,0V61.4a9.9,9.9,0,0,1-3.324,7.4L.477,76.741a1.415,1.415,0,0,0,.939,2.473Zm9.872-8.3A12.74,12.74,0,0,0,15.562,61.4V5.658a2.829,2.829,0,0,1,5.658,0v7.073a1.415,1.415,0,0,0,1.415,1.415H45.267a1.415,1.415,0,0,0,1.415-1.415V5.658a2.829,2.829,0,1,1,5.658,0V61.4a12.745,12.745,0,0,0,4.273,9.515l6.554,5.825a18.817,18.817,0,0,0-5.913,2.687,13.4,13.4,0,0,1-7.743,2.614,10.286,10.286,0,0,1-6.949-2.559,13.516,13.516,0,0,0-17.225,0,10.27,10.27,0,0,1-6.946,2.559,13.408,13.408,0,0,1-7.745-2.62,18.8,18.8,0,0,0-5.909-2.687Zm0,0" transform="translate(0)"/>
    <path id="Path_1494" data-name="Path 1494" d="M132.735,137.461A12.731,12.731,0,1,0,120,124.731,12.73,12.73,0,0,0,132.735,137.461Zm0-22.632a9.9,9.9,0,1,1-9.9,9.9A9.9,9.9,0,0,1,132.735,114.829Zm0,0" transform="translate(-98.784 -92.197)"/>
    <path id="Path_1495" data-name="Path 1495" d="M141.182,265.3l-1.545,2.37a16.988,16.988,0,0,0,18.519,0l-1.545-2.37A14.386,14.386,0,0,1,141.182,265.3Zm0,0" transform="translate(-114.945 -218.388)"/>
    <path id="Path_1496" data-name="Path 1496" d="M172.247,168.487A4.244,4.244,0,1,0,168,164.244,4.243,4.243,0,0,0,172.247,168.487Zm0-5.658a1.415,1.415,0,1,1-1.415,1.415A1.415,1.415,0,0,1,172.247,162.829Zm0,0" transform="translate(-138.297 -131.71)"/>
    <path id="Path_1497" data-name="Path 1497" d="M258.833,304H256v10.286a14.052,14.052,0,0,0,4.143,10l1.929,1.93,2-2-1.929-1.929a11.242,11.242,0,0,1-3.315-8Zm0,0" transform="translate(-210.737 -250.248)"/>
    <path id="Path_1498" data-name="Path 1498" d="M256,272h2.829v2.829H256Zm0,0" transform="translate(-210.737 -223.906)"/>
  </g>
</svg>
