<svg xmlns="http://www.w3.org/2000/svg" width="48" height="48" viewBox="0 0 48 48">
  <g id="Cancel" transform="translate(-27.88 6)">
    <rect id="Rectangle_1507" data-name="Rectangle 1507" width="48" height="48" transform="translate(27.88 -6)" fill="#ff4e42"/>
    <g id="ic_trash" data-name="ic/trash" transform="translate(-971.12 -830)">
      <path id="trash-alt-regular" d="M17.348,26.929H18.9a.777.777,0,0,0,.777-.777V12.17a.777.777,0,0,0-.777-.777H17.348a.777.777,0,0,0-.777.777V26.152A.777.777,0,0,0,17.348,26.929ZM27.964,5.179H22.63l-2.2-3.67A3.107,3.107,0,0,0,17.763,0H11.237A3.107,3.107,0,0,0,8.572,1.508l-2.2,3.67H1.036A1.036,1.036,0,0,0,0,6.214V7.25A1.036,1.036,0,0,0,1.036,8.286H2.071v21.75a3.107,3.107,0,0,0,3.107,3.107H23.821a3.107,3.107,0,0,0,3.107-3.107V8.286h1.036A1.036,1.036,0,0,0,29,7.25V6.214A1.036,1.036,0,0,0,27.964,5.179ZM11.124,3.3a.388.388,0,0,1,.334-.188h6.085a.388.388,0,0,1,.333.188l1.13,1.883H9.994Zm12.7,26.74H5.179V8.286H23.821ZM10.1,26.929h1.554a.777.777,0,0,0,.777-.777V12.17a.777.777,0,0,0-.777-.777H10.1a.777.777,0,0,0-.777.777V26.152A.777.777,0,0,0,10.1,26.929Z" transform="translate(1009 831)" fill="#fff"/>
    </g>
  </g>
</svg>
