<svg xmlns="http://www.w3.org/2000/svg" width="206.597" height="206.597" viewBox="0 0 206.597 206.597">
  <path id="check-circle-solid" d="M214.1,111.048A103.048,103.048,0,1,1,111.048,8,103.048,103.048,0,0,1,214.1,111.048ZM99.129,165.612l76.455-76.455a6.648,6.648,0,0,0,0-9.4l-9.4-9.4a6.648,6.648,0,0,0-9.4,0L94.428,132.7,65.317,103.594a6.649,6.649,0,0,0-9.4,0l-9.4,9.4a6.648,6.648,0,0,0,0,9.4l43.214,43.214a6.649,6.649,0,0,0,9.4,0Z" transform="translate(-7.75 -7.75)" fill="#168fa4" stroke="#000" stroke-width="0.5"/>
</svg>
