<svg xmlns="http://www.w3.org/2000/svg" viewBox="0 0 43.88 93.9"><defs><style>.cls-1,.cls-2{fill:none;stroke-linecap:round;stroke-linejoin:round;stroke-width:8px;}.cls-1{stroke:#2b5621;opacity:0.4;isolation:isolate;}.cls-2{stroke:#168fa4;}</style></defs><g id="圖層_2" data-name="圖層 2"><g id="圖層_1-2" data-name="圖層 1"><path class="cls-1" d="M19.63,71.18l.14-42.43a6.76,6.76,0,0,1,6.85-6.84h0A7,7,0,0,1,33.42,29L33.28,78A11.77,11.77,0,0,1,21.39,89.9h0A12.14,12.14,0,0,1,9.58,77.65l.21-54.71A15,15,0,0,1,24.89,7.87h0a15.44,15.44,0,0,1,15,15.57l-.17,49"/><path class="cls-2" d="M14.05,67.35l.13-42.44A6.76,6.76,0,0,1,21,18.08h0a7,7,0,0,1,6.79,7.06l-.14,49.05A11.76,11.76,0,0,1,15.81,86.06h0A12.12,12.12,0,0,1,4,73.81l.14-54.74A15,15,0,0,1,19.25,4h0a15.44,15.44,0,0,1,15,15.57l-.17,49"/></g></g></svg>