<svg xmlns="http://www.w3.org/2000/svg" viewBox="0 0 595.17 374.1"><defs><style>.cls-1{fill:#72b579;}.cls-17,.cls-2,.cls-20,.cls-24,.cls-25,.cls-6,.cls-7{fill:none;}.cls-17,.cls-2,.cls-20,.cls-24,.cls-25,.cls-7{stroke:#464950;stroke-linejoin:round;}.cls-17,.cls-2,.cls-20,.cls-24,.cls-25{stroke-linecap:round;}.cls-2{stroke-width:10px;}.cls-3{fill:#aecc75;}.cls-10,.cls-12,.cls-23,.cls-27,.cls-28,.cls-30,.cls-4{fill:#464950;}.cls-4{opacity:0.51;}.cls-10,.cls-12,.cls-18,.cls-23,.cls-26,.cls-27,.cls-28,.cls-30,.cls-32,.cls-4,.cls-7{isolation:isolate;}.cls-5{fill:#f03a47;}.cls-6{stroke:#dd2a40;stroke-miterlimit:10;}.cls-24,.cls-6,.cls-7{stroke-width:6px;}.cls-7{opacity:0.85;}.cls-18,.cls-8{fill:#dd2a40;}.cls-9{fill:#50b893;}.cls-10{opacity:0.55;}.cls-11{fill:#429977;}.cls-12{opacity:0.31;}.cls-13{fill:#5a646d;}.cls-14{fill:#f4ffc5;}.cls-15{fill:#b7c391;}.cls-16{fill:#4c555c;}.cls-17{stroke-width:8px;}.cls-18{opacity:0.92;}.cls-19{opacity:0.4;}.cls-20{stroke-width:3px;}.cls-21{opacity:0.97;}.cls-22,.cls-26{fill:#a58167;}.cls-23{opacity:0.38;}.cls-25{stroke-width:7px;}.cls-26{opacity:0.47;}.cls-27{opacity:0.76;}.cls-28{opacity:0.67;}.cls-29{fill:#62a366;}.cls-30{opacity:0.3;}.cls-31{fill:#72b55b;}.cls-32{fill:#c7cad1;opacity:0.43;}</style></defs><g id="圖層_2" data-name="圖層 2"><g id="圖層_1-2" data-name="圖層 1"><path class="cls-1" d="M44.88,324.54a21.77,21.77,0,0,1-8.29-17.13,22.54,22.54,0,0,1,45.05-.33,21.94,21.94,0,0,1-8.28,17.52Z"/><path class="cls-2" d="M44.88,324.54a21.77,21.77,0,0,1-8.29-17.13,22.54,22.54,0,0,1,45.05-.33,21.94,21.94,0,0,1-8.28,17.52Z"/><ellipse class="cls-3" cx="424.12" cy="291.75" rx="17.94" ry="35.65"/><path class="cls-4" d="M413.68,291.75c0-17.12,6.06-31.36,14.15-34.82a10.36,10.36,0,0,0-3.79-.83c-9.94,0-18,16-18,35.65s8,35.65,18,35.65a8.94,8.94,0,0,0,3.79-.82C419.74,323.12,413.68,308.88,413.68,291.75Z"/><ellipse class="cls-2" cx="424.12" cy="291.75" rx="17.94" ry="35.65"/><polygon class="cls-5" points="137.27 221.22 135.61 150.85 68.71 150.85 67.05 221.22 64.63 324.6 139.69 324.6 137.27 221.22"/><line class="cls-6" x1="107.56" y1="242.4" x2="137.51" y2="242.4"/><line class="cls-7" x1="87.17" y1="251.74" x2="106.93" y2="251.74"/><line class="cls-7" x1="129.23" y1="259.83" x2="138.79" y2="259.83"/><line class="cls-7" x1="119.03" y1="290.97" x2="127.96" y2="290.97"/><line class="cls-6" x1="127.96" y1="279.76" x2="137.51" y2="279.76"/><line class="cls-6" x1="122.84" y1="299.07" x2="130.43" y2="299.07"/><polygon class="cls-8" points="85.28 229.32 137.46 229.32 137.27 221.22 84.13 221.22 85.28 229.32"/><polygon class="cls-8" points="64.63 324.6 86.1 324.6 89.23 156.46 135.74 156.34 135.61 150.85 68.71 150.85 67.05 221.22 64.63 324.6"/><ellipse class="cls-9" cx="227.24" cy="83.29" rx="69.59" ry="68.01"/><path class="cls-10" d="M170.46,83.29c0-35.49,27.8-64.63,63.27-67.76-2.11-.16-4.21-.33-6.41-.33-38.41,0-69.58,30.46-69.58,68s31.17,68,69.58,68a54,54,0,0,0,6.41-.33C198.18,147.92,170.46,118.77,170.46,83.29Z"/><polyline class="cls-2" points="227.31 83.36 227.31 101.07 227.31 135.23"/><line class="cls-2" x1="252.85" y1="94.16" x2="227.24" y2="109.39"/><line class="cls-2" x1="227.24" y1="121.33" x2="205.67" y2="104.61"/><ellipse class="cls-2" cx="227.24" cy="83.29" rx="69.59" ry="68.01"/><ellipse class="cls-11" cx="180.4" cy="148.66" rx="29.49" ry="28.82"/><path class="cls-12" d="M161.78,148.66a29,29,0,0,1,24.1-28.32,29.16,29.16,0,0,0-5.4-.5c-16.26,0-29.48,12.93-29.48,28.82s13.22,28.82,29.48,28.82a29.16,29.16,0,0,0,5.4-.5A29,29,0,0,1,161.78,148.66Z"/><line class="cls-2" x1="187.14" y1="155.74" x2="211.57" y2="171.55"/><ellipse class="cls-2" cx="180.4" cy="148.66" rx="29.49" ry="28.82"/><polygon class="cls-2" points="137.27 221.22 135.61 150.85 68.71 150.85 67.05 221.22 64.63 324.6 139.69 324.6 137.27 221.22"/><polygon class="cls-13" points="147.28 221.85 57.05 221.85 67.56 206.28 136.76 206.28 147.28 221.85"/><polygon class="cls-2" points="147.28 221.85 57.05 221.85 67.56 206.28 136.76 206.28 147.28 221.85"/><path class="cls-14" d="M96.1,190.71H80.17V173.59a7.88,7.88,0,0,1,8-7.79h0a7.88,7.88,0,0,1,8,7.79Z"/><path class="cls-14" d="M124.13,190.71H107.56V173.59a7.88,7.88,0,0,1,8-7.79h.64a7.88,7.88,0,0,1,8,7.79Z"/><path class="cls-15" d="M88.13,165.68h0a7.88,7.88,0,0,0-8,7.79v6.85a7.88,7.88,0,0,1,8-7.79h0a7.88,7.88,0,0,1,8,7.79v-6.85A7.88,7.88,0,0,0,88.13,165.68Z"/><path class="cls-15" d="M116.17,165.8h-.64a7.88,7.88,0,0,0-8,7.79v6.85a7.88,7.88,0,0,1,8-7.79h.64a7.88,7.88,0,0,1,8,7.79v-6.85A7.88,7.88,0,0,0,116.17,165.8Z"/><path class="cls-2" d="M96.1,190.71H80.17V173.59a7.88,7.88,0,0,1,8-7.79h0a7.88,7.88,0,0,1,8,7.79Z"/><path class="cls-2" d="M124.13,190.71H107.56V173.59a7.88,7.88,0,0,1,8-7.79h.64a7.88,7.88,0,0,1,8,7.79Z"/><polygon class="cls-13" points="143.58 150.85 60.74 150.85 102.16 111.37 143.58 150.85"/><polygon class="cls-16" points="102.16 111.37 90.12 150.85 60.74 150.85 102.16 111.37"/><polygon class="cls-2" points="143.58 150.85 60.74 150.85 102.16 111.37 143.58 150.85"/><rect class="cls-14" x="83.99" y="261.7" width="36.32" height="62.9"/><rect class="cls-15" x="83.99" y="261.7" width="36.32" height="8.1"/><rect class="cls-15" x="84.63" y="261.7" width="5.1" height="62.9"/><rect class="cls-2" x="83.99" y="261.7" width="36.32" height="62.9"/><line class="cls-17" x1="90.63" y1="268.43" x2="113.69" y2="317.63"/><line class="cls-17" x1="113.69" y1="268.43" x2="90.63" y2="317.63"/><polygon class="cls-5" points="370.23 134.08 294.28 96.7 218.34 134.08 193.61 176.56 193.61 324.6 394.96 324.6 394.96 176.56 370.23 134.08"/><polygon class="cls-5" points="370.23 134.08 294.28 96.7 218.34 134.08 193.61 176.56 193.61 324.6 394.96 324.6 394.96 176.56 370.23 134.08"/><rect class="cls-18" x="193.61" y="211.8" width="8.42" height="113.62"/><polygon class="cls-18" points="296.81 96.48 220.87 133.8 196.14 176.21 196.14 219.28 236.59 154.1 296.81 124.51 357.03 154.1 397.49 219.28 397.49 176.21 372.76 133.8 296.81 96.48"/><g class="cls-19"><line class="cls-20" x1="236.15" y1="130.71" x2="352.41" y2="130.71"/><line class="cls-20" x1="218.46" y1="145.53" x2="370.11" y2="145.53"/><line class="cls-20" x1="209.2" y1="160.35" x2="379.37" y2="160.35"/><line class="cls-20" x1="199.93" y1="175.16" x2="388.64" y2="175.16"/><line class="cls-20" x1="193.19" y1="189.98" x2="395.38" y2="189.98"/><line class="cls-20" x1="193.19" y1="204.8" x2="395.38" y2="204.8"/><line class="cls-20" x1="193.19" y1="219.62" x2="395.38" y2="219.62"/><line class="cls-20" x1="193.19" y1="234.44" x2="395.38" y2="234.44"/><line class="cls-20" x1="193.19" y1="249.26" x2="395.38" y2="249.26"/><line class="cls-20" x1="193.19" y1="264.08" x2="395.38" y2="264.08"/><line class="cls-20" x1="193.19" y1="278.9" x2="395.38" y2="278.9"/><line class="cls-20" x1="193.19" y1="293.72" x2="395.38" y2="293.72"/><line class="cls-20" x1="193.19" y1="308.54" x2="395.38" y2="308.54"/></g><rect class="cls-8" x="193.61" y="211.8" width="201.35" height="8.23"/><g class="cls-21"><line class="cls-20" x1="236.15" y1="133.18" x2="352.41" y2="133.18"/><line class="cls-20" x1="218.46" y1="148" x2="370.11" y2="148"/><line class="cls-20" x1="209.2" y1="162.82" x2="379.37" y2="162.82"/><line class="cls-20" x1="199.93" y1="177.63" x2="388.64" y2="177.63"/><line class="cls-20" x1="193.19" y1="192.45" x2="395.38" y2="192.45"/><line class="cls-20" x1="193.19" y1="207.27" x2="395.38" y2="207.27"/><line class="cls-20" x1="193.19" y1="222.09" x2="395.38" y2="222.09"/><line class="cls-20" x1="193.19" y1="236.91" x2="395.38" y2="236.91"/><line class="cls-20" x1="193.19" y1="251.73" x2="395.38" y2="251.73"/><line class="cls-20" x1="193.19" y1="266.55" x2="395.38" y2="266.55"/><line class="cls-20" x1="193.19" y1="281.37" x2="395.38" y2="281.37"/><line class="cls-20" x1="193.19" y1="296.19" x2="395.38" y2="296.19"/><line class="cls-20" x1="193.19" y1="311.01" x2="395.38" y2="311.01"/></g><polygon class="cls-2" points="370.23 134.08 294.28 96.7 218.34 134.08 193.61 176.56 193.61 324.6 394.96 324.6 394.96 176.56 370.23 134.08"/><rect class="cls-14" x="235.73" y="246.38" width="58.13" height="77.39"/><rect class="cls-14" x="235.73" y="246.38" width="58.13" height="77.39"/><rect class="cls-15" x="235.73" y="246.38" width="58.13" height="11.53"/><rect class="cls-15" x="235.73" y="246.38" width="7.58" height="76.57"/><rect class="cls-14" x="294.71" y="246.38" width="58.13" height="77.39"/><rect class="cls-15" x="294.71" y="246.38" width="58.13" height="11.53"/><rect class="cls-15" x="294.71" y="246.38" width="7.58" height="76.57"/><rect class="cls-2" x="235.73" y="246.38" width="58.13" height="77.39"/><rect class="cls-2" x="294.71" y="246.38" width="58.13" height="77.39"/><rect class="cls-14" x="268.59" y="145.94" width="50.55" height="49.4"/><rect class="cls-14" x="268.59" y="145.94" width="50.55" height="49.4"/><rect class="cls-15" x="268.59" y="145.94" width="50.55" height="9.06"/><rect class="cls-15" x="268.59" y="170.64" width="50.55" height="6.59"/><rect class="cls-2" x="268.59" y="145.94" width="50.55" height="49.4"/><polygon class="cls-22" points="410.73 203 399.02 209.5 360.6 143.72 294.22 111.12 227.83 143.72 189.41 209.5 177.7 203 218.14 133.76 294.22 96.38 370.29 133.76 410.73 203"/><polygon class="cls-2" points="410.73 203 399.02 209.5 360.6 143.72 294.22 111.12 227.83 143.72 189.41 209.5 177.7 203 218.14 133.76 294.22 96.38 370.29 133.76 410.73 203"/><path class="cls-3" d="M536.09,132.19C543.92,159,544,184,534.82,203.58,526,223,508,237.09,486.55,236.92c-21.48.17-39.51-13.91-48.27-33.34-9.1-19.68-9.1-44.71-1.27-71.39,18.12-53.43,31.34-98.38,49.54-98.38S518,78.76,536.09,132.19Z"/><ellipse class="cls-4" cx="467.76" cy="196" rx="6.82" ry="6.67"/><path class="cls-23" d="M451.33,203.41c-9.6-20.58-9.52-46.93-1.26-75,14.15-42.16,25.36-83.49,37.74-90.57-.5-.08-.76-4.2-1.26-4.2-18.2,0-31.42,45-49.54,98.39-7.83,26.76-7.92,51.79,1.27,71.38,8.84,19.43,26.87,33.51,48.27,33.35.93,0,1.77,0,2.7-.09C472.48,232.56,458.75,219.8,451.33,203.41Z"/><path class="cls-2" d="M536.09,132.19C543.92,159,544,184,534.82,203.58,526,223,508,237.09,486.55,236.92c-21.48.17-39.51-13.91-48.27-33.34-9.1-19.68-9.1-44.71-1.27-71.39,18.12-53.43,31.34-98.38,49.54-98.38S518,78.76,536.09,132.19Z"/><path class="cls-3" d="M135.16,324.6a22.42,22.42,0,0,1,44.82,0Z"/><path class="cls-2" d="M135.16,324.6a22.42,22.42,0,0,1,44.82,0Z"/><path class="cls-3" d="M5,324.6a22.15,22.15,0,0,1,22.41-21.9,22.15,22.15,0,0,1,22.41,21.9Z"/><path class="cls-2" d="M5,324.6a22.15,22.15,0,0,1,22.41-21.9,22.15,22.15,0,0,1,22.41,21.9Z"/><line class="cls-2" x1="371.37" y1="209.33" x2="396.64" y2="209.33"/><line class="cls-2" x1="347.78" y1="209.33" x2="357.89" y2="209.33"/><line class="cls-2" x1="189.4" y1="209.33" x2="336.83" y2="209.33"/><line class="cls-24" x1="293.86" y1="146.76" x2="293.86" y2="196.98"/><line class="cls-24" x1="317.45" y1="170.64" x2="270.27" y2="170.64"/><line class="cls-17" x1="246.2" y1="257.75" x2="283.85" y2="313.16"/><line class="cls-17" x1="283.85" y1="257.75" x2="246.2" y2="313.16"/><line class="cls-17" x1="304.58" y1="257.75" x2="342.24" y2="313.16"/><line class="cls-17" x1="342.24" y1="257.75" x2="304.58" y2="313.16"/><line class="cls-2" x1="146.26" y1="361.43" x2="263.36" y2="362.02"/><line class="cls-2" x1="115.09" y1="361.28" x2="127.72" y2="361.34"/><rect class="cls-25" x="209.61" y="291.45" width="5.76" height="101.1" transform="translate(-130.56 552.79) rotate(-89.72)"/><polygon class="cls-22" points="222.08 361.81 206.07 361.73 206.38 301.63 214.43 292.94 222.39 301.71 222.08 361.81"/><polygon class="cls-26" points="213.94 305.78 220.97 298.24 216.96 293.78 208.91 302.46 208.59 362.57 213.65 362.59 213.94 305.78"/><polygon class="cls-2" points="222.08 361.81 206.07 361.73 206.38 301.63 214.43 292.94 222.39 301.71 222.08 361.81"/><polygon class="cls-22" points="254.09 361.97 238.08 361.89 238.4 301.79 246.44 293.1 254.4 301.87 254.09 361.97"/><polygon class="cls-26" points="245.96 305.94 252.9 298.4 248.97 293.94 240.92 302.62 240.61 362.73 245.66 362.75 245.96 305.94"/><polygon class="cls-2" points="254.09 361.97 238.08 361.89 238.4 301.79 246.44 293.1 254.4 301.87 254.09 361.97"/><polygon class="cls-22" points="189.22 361.65 173.22 361.57 173.53 301.46 181.58 292.78 189.53 301.55 189.22 361.65"/><polygon class="cls-22" points="189.22 361.65 173.22 361.57 173.53 301.46 181.58 292.78 189.53 301.55 189.22 361.65"/><polygon class="cls-26" points="181.09 305.62 188.12 298.08 184.1 293.61 176.05 302.3 175.74 362.4 180.79 362.43 181.09 305.62"/><polygon class="cls-2" points="189.22 361.65 173.22 361.57 173.53 301.46 181.58 292.78 189.53 301.55 189.22 361.65"/><ellipse class="cls-27" cx="245.61" cy="50.77" rx="5.56" ry="5.43"/><ellipse class="cls-27" cx="209.97" cy="44.18" rx="10.36" ry="10.13"/><ellipse class="cls-27" cx="205.67" cy="83.29" rx="3.2" ry="3.13"/><ellipse class="cls-28" cx="184.44" cy="76.46" rx="6.74" ry="6.59"/><ellipse class="cls-28" cx="221.43" cy="65.51" rx="5.81" ry="5.68"/><ellipse class="cls-28" cx="269.28" cy="79.09" rx="2.7" ry="2.63"/><ellipse class="cls-29" cx="531.28" cy="121.9" rx="19.21" ry="18.77"/><path class="cls-30" d="M522.35,121.9a19,19,0,0,1,15.34-18.44,19.79,19.79,0,0,0-3.88-.41,18.78,18.78,0,1,0,0,37.54,19.79,19.79,0,0,0,3.88-.41A18.7,18.7,0,0,1,522.35,121.9Z"/><ellipse class="cls-2" cx="531.28" cy="121.9" rx="19.21" ry="18.77"/><polyline class="cls-2" points="486.79 139.35 486.79 208.35 486.79 325.42"/><path class="cls-1" d="M501,325.42c0-24,20-43.55,44.57-43.55s44.56,19.51,44.56,43.55Z"/><path class="cls-31" d="M501,325.42c0-24,20-43.55,44.57-43.55s44.56,19.51,44.56,43.55Z"/><path class="cls-23" d="M557.65,282.53a47.63,47.63,0,0,0-7.83-.66c-24.6,0-44.57,19.51-44.57,43.55H521C521,304,536.76,286.15,557.65,282.53Z"/><path class="cls-2" d="M501,325.42c0-24,20-43.55,44.57-43.55s44.56,19.51,44.56,43.55Z"/><line class="cls-2" x1="511.99" y1="193.53" x2="486.55" y2="214.94"/><line class="cls-2" x1="486.55" y1="178.71" x2="462.62" y2="154.51"/><ellipse class="cls-32" cx="489.25" cy="91.11" rx="4.55" ry="4.45"/><ellipse class="cls-4" cx="501.38" cy="143.72" rx="4.63" ry="4.53"/><ellipse class="cls-32" cx="474.59" cy="114.99" rx="6.82" ry="6.67"/><ellipse class="cls-32" cx="510.9" cy="164.63" rx="6.49" ry="6.34"/><path class="cls-4" d="M587.88,305.58a17.22,17.22,0,0,0-5.07-.74c-10.38,0-18.75,8.88-18.75,19.76h10.2A19.57,19.57,0,0,1,587.88,305.58Z"/><ellipse class="cls-28" cx="187.14" cy="140.02" rx="2.95" ry="2.88"/><ellipse class="cls-27" cx="170.71" cy="146.19" rx="4.89" ry="4.78"/><ellipse class="cls-32" cx="434.23" cy="286.57" rx="3.62" ry="3.54"/><ellipse class="cls-4" cx="424.12" cy="278.17" rx="2.95" ry="2.88"/><path class="cls-3" d="M448.81,325.5a14.07,14.07,0,0,1,0-3.78,17.81,17.81,0,0,1,19.63-15.48,17.6,17.6,0,0,1,15.83,19.18Z"/><path class="cls-2" d="M448,325.5a14.94,14.94,0,0,1,0-3.78,17.83,17.83,0,0,1,19.63-15.48,17.61,17.61,0,0,1,15.84,19.18Z"/><line class="cls-2" x1="300.6" y1="362.55" x2="317.45" y2="362.55"/><line class="cls-2" x1="100.53" y1="361.69" x2="102.62" y2="361.69"/><line class="cls-2" x1="351.15" y1="369.1" x2="588.72" y2="369.1"/><line class="cls-2" x1="326.72" y1="369.1" x2="335.99" y2="369.1"/><rect class="cls-17" x="343.57" y="346.35" width="240.94" height="5.49"/><polygon class="cls-22" points="371.37 369.1 355.36 369.1 355.36 311.83 363.37 303.52 371.37 311.83 371.37 369.1"/><polygon class="cls-26" points="362.94 315.76 369.94 308.54 365.89 304.31 357.89 312.62 357.89 369.88 362.94 369.88 362.94 315.76"/><polygon class="cls-2" points="371.37 369.1 355.36 369.1 355.36 311.83 363.37 303.52 371.37 311.83 371.37 369.1"/><polygon class="cls-22" points="452.25 369.1 436.24 369.1 436.24 311.83 444.24 303.52 452.25 311.83 452.25 369.1"/><polygon class="cls-26" points="443.82 315.76 450.81 308.54 446.77 304.31 438.77 312.62 438.77 369.88 443.82 369.88 443.82 315.76"/><polygon class="cls-22" points="492.68 369.1 476.68 369.1 476.68 311.83 484.68 303.52 492.68 311.83 492.68 369.1"/><polygon class="cls-26" points="483.42 314.97 490.41 307.76 486.37 303.52 478.36 311.83 478.36 369.1 483.42 369.1 483.42 314.97"/><polygon class="cls-22" points="411.81 369.1 395.8 369.1 395.8 311.83 403.8 303.52 411.81 311.83 411.81 369.1"/><polygon class="cls-26" points="403.38 315.76 410.38 308.54 406.33 304.31 398.33 312.62 398.33 369.88 403.38 369.88 403.38 315.76"/><polygon class="cls-2" points="452.25 369.1 436.24 369.1 436.24 311.83 444.24 303.52 452.25 311.83 452.25 369.1"/><polygon class="cls-2" points="492.68 369.1 476.68 369.1 476.68 311.83 484.68 303.52 492.68 311.83 492.68 369.1"/><polygon class="cls-2" points="411.81 369.1 395.8 369.1 395.8 311.83 403.8 303.52 411.81 311.83 411.81 369.1"/><polygon class="cls-22" points="571.03 369.1 555.02 369.1 555.02 311.83 563.03 303.52 571.03 311.83 571.03 369.1"/><polygon class="cls-26" points="562.61 315.76 569.6 308.54 565.56 304.31 557.55 312.62 557.55 369.88 562.61 369.88 562.61 315.76"/><polygon class="cls-2" points="571.03 369.1 555.02 369.1 555.02 311.83 563.03 303.52 571.03 311.83 571.03 369.1"/><polygon class="cls-22" points="532.28 369.1 516.27 369.1 516.27 311.83 524.28 303.52 532.28 311.83 532.28 369.1"/><polygon class="cls-26" points="523.85 315.76 530.85 308.54 526.8 304.31 518.8 312.62 518.8 369.88 523.85 369.88 523.85 315.76"/><polygon class="cls-2" points="532.28 369.1 516.27 369.1 516.27 311.83 524.28 303.52 532.28 311.83 532.28 369.1"/><path class="cls-2" d="M71.33,22.52a13.11,13.11,0,0,0-11.7,12.94,6.5,6.5,0,0,0,0,1H47.87"/><path class="cls-2" d="M71.33,22.33a18.58,18.58,0,0,1,36.75-2.44"/><path class="cls-2" d="M100.56,24.8a16.57,16.57,0,0,1,12.3-5.4A16.27,16.27,0,0,1,129.3,35.46a6.5,6.5,0,0,1-.05,1H146"/><line class="cls-2" x1="512.06" y1="54.55" x2="543.23" y2="54.55"/><line class="cls-2" x1="496.9" y1="54.55" x2="503.64" y2="54.55"/><line class="cls-2" x1="376.42" y1="77.6" x2="431.18" y2="77.6"/><line class="cls-2" x1="521.33" y1="76.78" x2="532.28" y2="76.78"/><line class="cls-2" x1="371.37" y1="94.07" x2="418.55" y2="94.07"/><line class="cls-2" x1="275.33" y1="50.43" x2="313.24" y2="50.43"/><line class="cls-2" x1="313.24" y1="76.78" x2="331.77" y2="76.78"/><path class="cls-2" d="M531.62,42.45a12.22,12.22,0,1,1,12.22,11.94"/><path class="cls-2" d="M408,104.2a10.2,10.2,0,1,0,10.2-10"/></g></g></svg>