<svg xmlns="http://www.w3.org/2000/svg" viewBox="0 0 104.35 94.05"><defs><style>.cls-1{fill:#ffbc0e;}.cls-2{fill:#093f68;}.cls-3{fill:#fff;}.cls-4{fill:#c0c3c4;}.cls-5{fill:#dfeaef;}.cls-6{fill:red;}</style></defs><g id="圖層_2" data-name="圖層 2"><g id="圖層_1-2" data-name="圖層 1"><polygon class="cls-1" points="6.25 93.12 75.19 93.12 75.19 48.82 40.72 26.38 6.25 48.82 6.25 93.12"/><path class="cls-2" d="M75.19,94.05H6.25a.93.93,0,0,1-.93-.93V48.82A.91.91,0,0,1,5.75,48L40.21,25.59a.94.94,0,0,1,1,0L75.69,48a.91.91,0,0,1,.43.78v44.3A.93.93,0,0,1,75.19,94.05Zm-68-1.86H74.26V49.34L40.73,27.49,7.18,49.33Z"/><rect class="cls-3" x="10.91" y="38.16" width="58.69" height="52.17"/><path class="cls-2" d="M69.6,91.26H10.91a.93.93,0,0,1-.93-.93V38.16a.93.93,0,0,1,.93-.93H69.6a.93.93,0,0,1,.93.93V90.33A.93.93,0,0,1,69.6,91.26ZM11.84,89.4H68.67V39.09H11.84Z"/><path class="cls-4" d="M61.11,48.41H19.83a.93.93,0,1,1,0-1.86H61.11a.93.93,0,1,1,0,1.86Z"/><path class="cls-4" d="M61.11,55.86H19.83a.93.93,0,1,1,0-1.86H61.11a.93.93,0,1,1,0,1.86Z"/><path class="cls-4" d="M61.11,63.31H19.83a.93.93,0,1,1,0-1.86H61.11a.93.93,0,1,1,0,1.86Z"/><path class="cls-5" d="M61.11,70.77H19.83a.94.94,0,0,1,0-1.87H61.11a.94.94,0,0,1,0,1.87Z"/><polygon class="cls-1" points="75.51 93.12 6.25 93.12 6.25 48.82 75.51 93.12"/><path class="cls-2" d="M75.51,94.05H6.25a.93.93,0,0,1-.93-.93V48.82A.93.93,0,0,1,6.76,48L76,92.34a.93.93,0,0,1-.51,1.71ZM7.18,92.19H72.33L7.18,50.57Z"/><polygon class="cls-1" points="5.93 93.12 75.19 93.12 75.19 48.82 5.93 93.12"/><path class="cls-2" d="M76.12,93.12a.93.93,0,0,1-.93.93H5.93A.92.92,0,0,1,5,93.12a.94.94,0,0,1,.42-.78L74.68,48a.93.93,0,0,1,1.29.28.89.89,0,0,1,.15.5Zm-67-.93H74.26V50.57Z"/><path class="cls-2" d="M75.1,93.82a.9.9,0,0,1-.5-.14L40,71.53A.93.93,0,1,1,41,70L75.61,92.11a.93.93,0,0,1-.51,1.71Z"/><path class="cls-6" d="M90.13.52a13.92,13.92,0,0,0-9.31,24.29v7.33L85,27.38A13.93,13.93,0,1,0,90.13.52Z"/><path class="cls-2" d="M80.68,32.57a.46.46,0,0,1-.21,0,.59.59,0,0,1-.39-.56V25A14.43,14.43,0,1,1,85,28l-3.83,4.39A.58.58,0,0,1,80.68,32.57ZM89.89,1.25a13.21,13.21,0,0,0-8.82,23,.57.57,0,0,1,.2.44v5.66l3-3.5A.61.61,0,0,1,85,26.7a13.2,13.2,0,1,0,4.9-25.45Z"/><path class="cls-3" d="M90.19,12.25l-2.11,2-1.26-1.57,3.43-3.14h2.08V21H90.19Z"/><path class="cls-4" d="M23.24,24.19a.94.94,0,0,1-.93-.85l-.79-9.09a.94.94,0,0,1,.85-1,.93.93,0,0,1,1,.85l.8,9.09a.94.94,0,0,1-.85,1Z"/><path class="cls-4" d="M14.85,27.05a.94.94,0,0,1-.79-.44L7.9,16.8a.93.93,0,0,1,.3-1.28h0a.93.93,0,0,1,1.28.3l6.12,9.86a.93.93,0,0,1-.3,1.28h0A.93.93,0,0,1,14.85,27.05Z"/><path class="cls-4" d="M8.23,32.57a.91.91,0,0,1-.48-.13L.38,28a1,1,0,0,1-.2-1.31.94.94,0,0,1,1.14-.3l7.36,4.42A.93.93,0,0,1,9,32.12a1,1,0,0,1-.81.45Z"/></g></g></svg>