<svg xmlns="http://www.w3.org/2000/svg" viewBox="0 0 84.29 88.21"><defs><style>.cls-1,.cls-3,.cls-5,.cls-9{fill:none;}.cls-1,.cls-9{stroke:#351915;}.cls-1,.cls-3,.cls-5,.cls-6,.cls-9{stroke-linecap:round;stroke-linejoin:round;stroke-width:8px;}.cls-1,.cls-8{opacity:0.18;}.cls-1{isolation:isolate;}.cls-2{fill:#ffc943;}.cls-3{stroke:#102d3b;}.cls-4{opacity:0.4;}.cls-5,.cls-6{stroke:#2b5621;}.cls-6{fill:#2b5621;}.cls-7{fill:#ffc024;}</style></defs><g id="圖層_2" data-name="圖層 2"><g id="圖層_1-2" data-name="圖層 1"><path class="cls-1" d="M22.53,73.44H10.2l.5-2.81a3.81,3.81,0,0,1,3.71-3.21h3.94a3.82,3.82,0,0,1,3.7,3.21Z"/><path class="cls-2" d="M21.86,75H9.54l.5-2.8A3.81,3.81,0,0,1,13.75,69h3.94a3.83,3.83,0,0,1,3.7,3.22Z"/><path class="cls-3" d="M21.86,75H9.54l.5-2.8A3.81,3.81,0,0,1,13.75,69h3.94a3.83,3.83,0,0,1,3.7,3.22Z"/><g class="cls-4"><path class="cls-5" d="M59.91,78.68A304.68,304.68,0,0,1,53,29.62a9.91,9.91,0,0,1,3-7.76,7.69,7.69,0,0,0,2.56-5.35c0-3.42-3.28-7.16-7.38-7.73a66.83,66.83,0,0,0-14.14,0c-4.12.57-7.37,4.34-7.37,7.73a7.79,7.79,0,0,0,2.55,5.35,9.91,9.91,0,0,1,3,7.76,297.22,297.22,0,0,1-6.92,49.06"/><path class="cls-6" d="M80.29,44.62H8.2l5,34.83H28.8v1c0,2.08.54,3.75,2.5,3.75H57a2.56,2.56,0,0,0,2.49-2.63V79.45H75.22Z"/></g><path class="cls-7" d="M76.17,40.19H4.08L9.09,75H23.68v1a3.68,3.68,0,0,0,3.58,3.77H52.9A3.69,3.69,0,0,0,56.49,76V75H71.16Z"/><g class="cls-8"><path class="cls-9" d="M34.42,40.07a288.88,288.88,0,0,1-6.11,38.61"/><path class="cls-9" d="M59.13,75.13a288,288,0,0,1-5.3-35.06"/></g><path class="cls-1" d="M53.47,77.55H28.88a12,12,0,0,0,2.47-4.08,3.21,3.21,0,0,1,2.92-2.25H48.11A3.19,3.19,0,0,1,51,73.47,11.25,11.25,0,0,0,53.47,77.55Z"/><path class="cls-1" d="M71.13,73.44H58.81l.5-2.81A3.81,3.81,0,0,1,63,67.42h3.91a3.84,3.84,0,0,1,3.71,3.21Z"/><path class="cls-3" d="M55.94,74.27a304.41,304.41,0,0,1-6.92-49,9.91,9.91,0,0,1,3-7.76,7.69,7.69,0,0,0,2.56-5.35c0-3.42-3.29-7.16-7.38-7.73a65.53,65.53,0,0,0-14.14,0C29,5,25.72,8.72,25.72,12.11a7.8,7.8,0,0,0,2.56,5.35,9.91,9.91,0,0,1,3,7.76A297,297,0,0,1,24.4,74.27"/><path class="cls-2" d="M71.07,75H58.75l.5-2.8A3.81,3.81,0,0,1,63,69h3.94a3.84,3.84,0,0,1,3.71,3.22Z"/><path class="cls-3" d="M71.07,75H58.75l.5-2.8A3.81,3.81,0,0,1,63,69h3.94a3.84,3.84,0,0,1,3.71,3.22Z"/><path class="cls-3" d="M53.78,40.19H4L9,75H24.88v1c0,2.07.55,3.74,2.51,3.74H53.08a2.57,2.57,0,0,0,2.5-2.63V75H71.31l5.07-34.83H53.78"/><path class="cls-2" d="M52.15,79.77H27.56A12.46,12.46,0,0,0,30,75.69,3.2,3.2,0,0,1,33,73.44H46.79a3.19,3.19,0,0,1,2.92,2.25A11.55,11.55,0,0,0,52.15,79.77Z"/><path class="cls-3" d="M52.15,79.77H27.56A12.46,12.46,0,0,0,30,75.69,3.2,3.2,0,0,1,33,73.44H46.79a3.19,3.19,0,0,1,2.92,2.25A11.55,11.55,0,0,0,52.15,79.77Z"/></g></g></svg>