<svg xmlns="http://www.w3.org/2000/svg" viewBox="0 0 460.16 150.79"><defs><style>.cls-1{fill:#ed5b4c;}.cls-2{fill:none;stroke:#000;stroke-width:3px;}.cls-3{fill:#fff;}</style></defs><g id="圖層_2" data-name="圖層 2"><g id="圖層_1-2" data-name="圖層 1"><g id="Label"><g id="Rectangle_1499" data-name="Rectangle 1499"><rect class="cls-1" x="9.17" y="12.02" width="450.9" height="138.5" transform="translate(-0.1 0.28) rotate(-0.07)"/><rect class="cls-2" x="10.67" y="13.52" width="447.9" height="135.5" transform="translate(-0.1 0.28) rotate(-0.07)"/></g><g id="Rectangle_1500" data-name="Rectangle 1500"><rect class="cls-1" x="0.08" y="0.27" width="450.9" height="138.5" transform="translate(-0.08 0.27) rotate(-0.07)"/><rect class="cls-2" x="1.58" y="1.77" width="447.9" height="135.5" transform="translate(-0.08 0.27) rotate(-0.07)"/></g></g><path class="cls-3" d="M90.47,54.15V76.64H85.75V74.82H77.32v9.72H72.57V74.82H64.33v2H59.8V54.15H72.57V49.06h4.75v5.09ZM64.33,58.48v3.84h8.24V58.48Zm8.24,12v-4H64.33v4Zm4.75-12v3.84h8.43V58.48Zm8.43,12v-4H77.32v4Z"/><path class="cls-3" d="M109,58.86H95.53V55.29h5.77a36.69,36.69,0,0,0-1.79-5l3.8-1.1a45.7,45.7,0,0,1,2.06,5l-3,1H109Zm-1.07,10.22H96.51V65.66h11.4Zm0,13.41h-7.6V84H96.51V71H108Zm-11.4-22H108v3.42H96.55Zm3.8,14.1V79H104V74.59Zm28.57,5.89c0,1.9-.34,2.88-1.67,3.45s-3,.65-5.43.61A13.73,13.73,0,0,0,120.64,81c1.41,0,3,0,3.46,0s.64-.15.64-.57v-1.6H114.45a13.31,13.31,0,0,1-2.78,6A16.58,16.58,0,0,0,108.48,82c2.24-2.66,2.47-6.23,2.47-9.19V66.08h18Zm1.83-19.19v3.23H109.16V61.29h8.44V59.62h-6.91v-3h6.91V55.1h-7.86V51.87h7.86V49.09H122v2.78h8.28V55.1H122v1.52h7.52v3H122v1.67Zm-6,14.63V74.09H115l-.12,1.83ZM115,69.38v1.79h9.72V69.38Z"/><path class="cls-3" d="M152.45,70.44l-2.89,3.12v7.71H144v-27h5.57V66.51L152,63.15l6.88-8.89h6.85l-9.59,12,9.87,15h-6.63Z"/><path class="cls-3" d="M179.36,79.23a6.74,6.74,0,0,1-5.49,2.42,6.33,6.33,0,0,1-4.93-1.86,7.92,7.92,0,0,1-1.73-5.44V61.2h5.36v13c0,2.1,1,3.14,2.85,3.14a3.88,3.88,0,0,0,3.75-1.89V61.2h5.38V81.27h-5Z"/><path class="cls-3" d="M193.53,61.2l.17,2.32a7,7,0,0,1,5.77-2.69,5.82,5.82,0,0,1,4.75,1.87,8.77,8.77,0,0,1,1.6,5.6v13h-5.36V68.43a3.44,3.44,0,0,0-.75-2.47,3.27,3.27,0,0,0-2.46-.77,3.68,3.68,0,0,0-3.4,1.93V81.27h-5.36V61.2Z"/><path class="cls-3" d="M220.75,75.73a1.71,1.71,0,0,0-1-1.55,10.75,10.75,0,0,0-3.13-1c-4.77-1-7.16-3-7.16-6.09a5.51,5.51,0,0,1,2.22-4.46,8.91,8.91,0,0,1,5.8-1.79,9.64,9.64,0,0,1,6.11,1.8,5.66,5.66,0,0,1,2.29,4.67h-5.36a2.62,2.62,0,0,0-.74-1.9,3.16,3.16,0,0,0-2.32-.75,3.21,3.21,0,0,0-2.1.61,2,2,0,0,0-.74,1.56,1.67,1.67,0,0,0,.84,1.44,8.81,8.81,0,0,0,2.85.94,24.42,24.42,0,0,1,3.38.9Q226,71.66,226,75.5A5.25,5.25,0,0,1,223.61,80a10.17,10.17,0,0,1-6.08,1.7,10.5,10.5,0,0,1-4.49-.91A7.55,7.55,0,0,1,210,78.28a5.77,5.77,0,0,1-1.11-3.39h5.08A2.83,2.83,0,0,0,215,77.08a4.2,4.2,0,0,0,2.64.76,3.91,3.91,0,0,0,2.33-.58A1.83,1.83,0,0,0,220.75,75.73Z"/><path class="cls-3" d="M235.84,56.26V61.2h3.43v3.93h-3.43v10a2.38,2.38,0,0,0,.43,1.6,2.13,2.13,0,0,0,1.63.48,8.34,8.34,0,0,0,1.58-.13v4.06a11.18,11.18,0,0,1-3.25.49q-5.64,0-5.75-5.7V65.13h-2.94V61.2h2.94V56.26Z"/><path class="cls-3" d="M247.49,63.39a6.68,6.68,0,0,1,5.36-2.56c4.36,0,6.56,2.53,6.63,7.59V81.27h-5.36V68.56a3.7,3.7,0,0,0-.75-2.55,3.17,3.17,0,0,0-2.47-.82A3.64,3.64,0,0,0,247.49,67V81.27h-5.36V52.77h5.36Z"/><path class="cls-3" d="M275.16,81.27a5.8,5.8,0,0,1-.54-1.8,6.5,6.5,0,0,1-5.07,2.18,7.15,7.15,0,0,1-4.89-1.71,5.49,5.49,0,0,1-1.93-4.31,5.65,5.65,0,0,1,2.36-4.89Q267.46,69,271.93,69h2.46V67.86a3.3,3.3,0,0,0-.71-2.23,2.82,2.82,0,0,0-2.25-.83,3.15,3.15,0,0,0-2.13.65,2.2,2.2,0,0,0-.77,1.78h-5.36A5.39,5.39,0,0,1,264.25,64a7,7,0,0,1,3-2.33,11.13,11.13,0,0,1,4.42-.84,8.79,8.79,0,0,1,5.89,1.86,6.54,6.54,0,0,1,2.18,5.24v8.71a9.72,9.72,0,0,0,.79,4.32v.31Zm-4.44-3.73a4.65,4.65,0,0,0,2.19-.52,3.51,3.51,0,0,0,1.48-1.42V72.15h-2c-2.68,0-4.11.92-4.28,2.78l0,.31a2.17,2.17,0,0,0,.7,1.66A2.74,2.74,0,0,0,270.72,77.54Z"/><path class="cls-3" d="M295.92,79.23a6.74,6.74,0,0,1-5.49,2.42,6.33,6.33,0,0,1-4.93-1.86,7.92,7.92,0,0,1-1.73-5.44V61.2h5.36v13c0,2.1.95,3.14,2.85,3.14a3.88,3.88,0,0,0,3.75-1.89V61.2h5.38V81.27h-5Z"/><path class="cls-3" d="M316,75.73a1.71,1.71,0,0,0-1-1.55,10.75,10.75,0,0,0-3.13-1c-4.77-1-7.16-3-7.16-6.09A5.51,5.51,0,0,1,307,62.62a8.91,8.91,0,0,1,5.8-1.79,9.64,9.64,0,0,1,6.11,1.8,5.66,5.66,0,0,1,2.29,4.67h-5.36a2.62,2.62,0,0,0-.74-1.9,3.94,3.94,0,0,0-4.42-.14,1.92,1.92,0,0,0-.74,1.56,1.67,1.67,0,0,0,.84,1.44,8.64,8.64,0,0,0,2.85.94,24.42,24.42,0,0,1,3.38.9q4.25,1.56,4.25,5.4A5.25,5.25,0,0,1,318.89,80a10.18,10.18,0,0,1-6.09,1.7,10.48,10.48,0,0,1-4.48-.91,7.48,7.48,0,0,1-3.07-2.46,5.77,5.77,0,0,1-1.11-3.39h5.08a2.8,2.8,0,0,0,1.06,2.19,4.17,4.17,0,0,0,2.63.76,3.87,3.87,0,0,0,2.33-.58A1.81,1.81,0,0,0,316,75.73Z"/><path class="cls-3" d="M354.33,50.19c-.19.23-.38.5-.57.73,3.49,3,9.72,5.66,15.77,6.84a14.93,14.93,0,0,0-2.85,3.45c-.76-.19-1.56-.45-2.36-.68v9.8H337.91V60.76c-.79.26-1.59.53-2.35.72a24.58,24.58,0,0,0-2.43-3.5c7-1.63,13.75-4.78,17.21-9.19ZM363,60a43.46,43.46,0,0,1-5.16-2.32v1H344.45V58a45.73,45.73,0,0,1-4.6,2.09ZM340,71.59h22.34V84.43h-4.63v-.91H344.49v1H340Zm4.29-4A14.82,14.82,0,0,0,343,63.65l2.93-.84h-4.3V67.6Zm.16,7v1.52h13.26V74.55Zm13.26,6V79H344.49v1.52Zm-8.63-17.74h-3a17.48,17.48,0,0,1,1.52,4l-2.43.76h3.87Zm5.47-7a36.68,36.68,0,0,1-3.19-2.47c-1,.84-2.09,1.67-3.23,2.47Zm-1.82,7V67.6h3.53L354,67a28.63,28.63,0,0,0,1.48-4.14Zm7.52,0h-4l3,.72c-.76,1.52-1.49,3-2.09,4.07h3.07Z"/><path class="cls-3" d="M397,78c3.53,1.06,7.41,2.43,10,3.45l-4,3.2a101.1,101.1,0,0,0-12.19-4.41L394,78H383.7l2.89,2a50.45,50.45,0,0,1-11.78,4.56,37.76,37.76,0,0,0-3.42-3.23A46.31,46.31,0,0,0,381.12,78h-5.89V61.18H403V78Zm4.67-18.24H376.94v-9.5h24.73Zm-22,6.12h18.62V64.25H379.71Zm0,4.48h18.62V68.74H379.71Zm0,4.56h18.62V73.26H379.71ZM396.85,53.8H381.5v2.47h15.35Z"/></g></g></svg>