<svg xmlns="http://www.w3.org/2000/svg" viewBox="0 0 37.98 55.2"><defs><style>.cls-1{fill:#ff4e42;}</style></defs><g id="圖層_2" data-name="圖層 2"><g id="圖層_1-2" data-name="圖層 1"><path class="cls-1" d="M19,0C10.42,0,4.83,3.54.45,9.84A2.58,2.58,0,0,0,1,13.35l4.66,3.52a2.58,2.58,0,0,0,3.58-.45C12,13,14,11.1,18.2,11.1c3.32,0,7.43,2.13,7.43,5.34,0,2.43-2,3.68-5.29,5.51-3.82,2.14-8.88,4.8-8.88,11.46v1.06a2.58,2.58,0,0,0,2.59,2.58h7.83a2.57,2.57,0,0,0,2.58-2.58v-.62C24.46,29.23,38,29,38,16.54,38,7.14,28.2,0,19,0Zm-.91,40.28a7.46,7.46,0,1,0,7.46,7.46A7.47,7.47,0,0,0,18.13,40.28Z"/></g></g></svg>