<svg xmlns="http://www.w3.org/2000/svg" viewBox="0 0 41 95.04"><defs><style>.cls-1,.cls-2{fill:none;stroke-linecap:round;stroke-linejoin:round;stroke-width:8px;}.cls-1{stroke:#2b5621;opacity:0.4;isolation:isolate;}.cls-2{stroke:#ed5b4c;}</style></defs><g id="圖層_2" data-name="圖層 2"><g id="圖層_1-2" data-name="圖層 1"><path class="cls-1" d="M17.29,72.6V30.26a6.8,6.8,0,0,1,6.64-7h0a6.8,6.8,0,0,1,6.65,7v49c0,6.54-5,11.81-11.23,11.81h0C13.13,91,8.12,85.73,8.12,79.23V24.54c0-8.38,6.47-15.19,14.44-15.19h0c8,0,14.44,6.81,14.44,15.19v49"/><path class="cls-2" d="M13.62,67.3V25a6.8,6.8,0,0,1,6.65-7h0a6.79,6.79,0,0,1,6.64,7V73.8c0,6.68-5.15,12.06-11.45,12.06h0C9.11,85.86,4,80.43,4,73.8V19.19C4,10.8,10.47,4,18.44,4h0c8,0,14.43,6.8,14.43,15.19V68.26"/></g></g></svg>