<svg xmlns="http://www.w3.org/2000/svg" viewBox="0 0 80.83 113.11"><defs><style>.cls-1{opacity:0.4;}.cls-2{fill:#2b5621;stroke:#2b5621;}.cls-2,.cls-6{stroke-linecap:round;stroke-linejoin:round;stroke-width:8px;}.cls-3{fill:#f42222;}.cls-4{fill:#ff7676;}.cls-5{fill:#e8e8e8;}.cls-6{fill:none;stroke:#102d3b;}</style></defs><g id="圖層_2" data-name="圖層 2"><g id="圖層_1-2" data-name="圖層 1"><g class="cls-1"><path class="cls-2" d="M56.27,21.36C59.64,18,63.42,12.91,64.1,8.22H26c.69,4.69,4.46,9.76,7.83,13.14,1.13,1.1-1.56,25.35-3.69,26.54C22.54,52.16,16.44,59.69,13.22,69H76.83C73.62,59.69,67.51,52.16,60,47.9,57.84,46.71,55.15,22.5,56.27,21.36Z"/><polygon class="cls-2" points="50.24 68.98 39.81 68.98 45.03 109.11 50.24 68.98"/></g><path class="cls-3" d="M47.05,17.14C50.42,13.8,54.2,8.69,54.88,4H16.73c.68,4.69,4.46,9.76,7.83,13.14,1.12,1.1-1.57,25.35-3.69,26.54C13.32,47.94,7.21,55.47,4,64.76H67.61c-3.22-9.29-9.32-16.82-16.87-21.08C48.61,42.49,45.92,18.24,47.05,17.14Z"/><path class="cls-3" d="M47.05,17.14C50.42,13.8,54.2,8.69,54.88,4H16.73c.68,4.69,4.46,9.76,7.83,13.14,1.12,1.1-1.57,25.35-3.69,26.54C13.32,47.94,7.21,55.47,4,64.76H67.61c-3.22-9.29-9.32-16.82-16.87-21.08C48.61,42.49,45.92,18.24,47.05,17.14Z"/><path class="cls-3" d="M50.71,43.68C48.59,42.45,45.9,18.24,47,17.14,50.39,13.8,54.17,8.69,54.85,4H51.76c-.68,4.69-4.46,9.76-7.83,13.14-1.13,1.1,1.56,25.35,3.69,26.54,7.55,4.26,13.66,11.79,16.87,21.08h3.09C64.33,55.47,58.26,48,50.71,43.68Z"/><path class="cls-4" d="M31.72,4H26a11.1,11.1,0,0,0,4.61,11.49L28.47,44.62A27.41,27.41,0,0,0,17.31,64.76h7.55s-.16-13.64,6.66-19.89l1.2-29.34A16.3,16.3,0,0,1,31.72,4Z"/><polygon class="cls-5" points="41.02 64.76 30.59 64.76 35.8 104.89 41.02 64.76"/><path class="cls-6" d="M47.05,17.14C50.42,13.8,54.2,8.69,54.88,4H16.73c.68,4.69,4.46,9.76,7.83,13.14,1.12,1.1-1.57,25.35-3.69,26.54C13.32,47.94,7.21,55.47,4,64.76H67.61c-3.22-9.29-9.32-16.82-16.87-21.08C48.61,42.49,45.92,18.24,47.05,17.14Z"/><polygon class="cls-6" points="41.02 64.76 30.59 64.76 35.8 104.89 41.02 64.76"/></g></g></svg>