<?xml version="1.0" encoding="utf-8"?>
<!-- Generator: Adobe Illustrator 25.0.0, SVG Export Plug-In . SVG Version: 6.00 Build 0)  -->
<svg version="1.1" id="Section_Title-3" xmlns="http://www.w3.org/2000/svg" xmlns:xlink="http://www.w3.org/1999/xlink" x="0px"
	 y="0px" viewBox="0 0 316 135" style="enable-background:new 0 0 316 135;" xml:space="preserve">
<style type="text/css">
	.st0{fill:#ED5B4C;}
	.st1{fill:none;stroke:#000000;stroke-width:3;}
	.st2{fill:#FFFFFF;}
	.st3{font-family:'NotoSansTC-Bold-83pv-RKSJ-H';}
	.st4{font-size:34px;}
</style>
<g id="Label">
	<g id="Rectangle_1499" transform="translate(7 43.561) rotate(-7)">
		
			<rect x="0" y="0" transform="matrix(-1 2.855981e-06 -2.855981e-06 -1 300.0002 92.1195)" class="st0" width="300" height="92.1"/>
		
			<rect x="1.5" y="1.5" transform="matrix(-1 2.855981e-06 -2.855981e-06 -1 300.0002 92.1195)" class="st1" width="297" height="89.1"/>
	</g>
	<g id="Rectangle_1500" transform="translate(0 36.561) rotate(-7)">
		
			<rect x="0" y="0" transform="matrix(-1 2.855981e-06 -2.855981e-06 -1 300.0002 92.1195)" class="st0" width="300" height="92.1"/>
		
			<rect x="1.5" y="1.5" transform="matrix(-1 2.855981e-06 -2.855981e-06 -1 300.0002 92.1195)" class="st1" width="297" height="89.1"/>
	</g>
</g>
<text transform="matrix(0.9925 -0.1219 0.1219 0.9925 88.9228 85.7461)" class="st2 st3 st4">聯繫客服</text>
</svg>
