<svg xmlns="http://www.w3.org/2000/svg" width="319.073" height="257.547" viewBox="0 0 319.073 257.547">
  <g id="tap" transform="matrix(0.839, -0.545, 0.545, 0.839, 0, 170.497)" fill="#4336a3">
    <path d="M 106.1843566894531 102.2951812744141 C 58.22445678710938 102.2951812744141 13.86979293823242 100.8798980712891 2.72946310043335 100.4962158203125 L 11.34622859954834 87.48897552490234 L 12.01352024078369 86.48168182373047 L 11.17143726348877 85.61518096923828 L 1.865597486495972 76.03926849365234 L 11.39518642425537 59.51189041137695 L 11.74681186676025 58.90205764770508 L 11.50243663787842 58.24188995361328 L 4.694069862365723 39.85018157958984 L 11.46022891998291 25.0311393737793 L 11.76906204223633 24.35476493835449 L 11.41777038574219 23.69943046569824 L 2.833974838256836 7.686929702758789 C 6.201400756835938 8.200472831726074 12.52687835693359 8.808389663696289 23.60168647766113 8.808389663696289 C 41.06752014160156 8.808389663696289 64.33614349365234 7.339014530181885 92.76126861572266 4.441056251525879 C 111.9033508300781 2.489514827728271 136.3095550537109 1.500014781951904 165.3018951416016 1.500014781951904 C 200.9469299316406 1.500014781951904 237.3201904296875 3.014806509017944 261.5568237304688 4.285598278045654 C 282.388916015625 5.377837181091309 298.0581665039063 6.481123924255371 303.7356872558594 6.897534847259521 L 294.8708190917969 23.09980583190918 L 294.3411865234375 24.06784820556641 L 295.1076049804688 24.86168098449707 L 308.6484985351563 38.88640594482422 L 292.1710205078125 59.00455474853516 L 291.2343139648438 60.14822387695313 L 292.3642272949219 61.10151290893555 L 310.6296997070313 76.51143646240234 L 299.0966491699219 85.06501770019531 L 298.1720581054688 85.75072479248047 L 298.59521484375 86.82122039794922 L 303.8823547363281 100.1959762573242 C 297.716796875 99.69993591308594 280.0117492675781 98.50543212890625 252.5174713134766 98.50543212890625 C 232.254150390625 98.50543212890625 210.7018890380859 99.14376831054688 188.4594421386719 100.4027252197266 C 166.2731475830078 101.6584701538086 138.5918121337891 102.2951812744141 106.1843566894531 102.2951812744141 Z" stroke="none"/>
    <path d="M 165.3016510009766 3.000015258789063 C 136.3571472167969 3.00030517578125 112.0022277832031 3.9871826171875 92.91343688964844 5.933303833007813 C 64.43777465820313 8.836387634277344 41.11788940429688 10.30838775634766 23.6015625 10.30838775634766 C 15.07308959960938 10.30838775634766 9.320281982421875 9.952522277832031 5.53289794921875 9.546852111816406 L 12.73977661132813 22.99072265625 L 13.4423828125 24.3013916015625 L 12.82473754882813 25.65413665771484 L 6.315704345703125 39.91001892089844 L 12.90914916992188 57.72113800048828 L 13.39788818359375 59.04147338867188 L 12.69464111328125 60.26118087768555 L 3.731170654296875 75.80667114257813 L 12.2471923828125 84.56980895996094 L 13.93130493164063 86.30281066894531 L 12.59674072265625 88.31739044189453 L 5.46197509765625 99.08747100830078 C 19.87850952148438 99.56392669677734 61.46588134765625 100.7951812744141 106.1843566894531 100.7951812744141 C 138.5638885498047 100.7951812744141 166.2166900634766 100.1592636108398 188.3746337890625 98.90509796142578 C 210.6451416015625 97.64455413818359 232.2259368896484 97.00543212890625 252.5174865722656 97.00543212890625 C 270.5835266113281 97.00543212890625 284.2686767578125 97.52288818359375 292.5678405761719 97.95697021484375 C 296.3440246582031 98.15447235107422 299.3597106933594 98.35103607177734 301.6046447753906 98.51432800292969 L 297.2002563476563 87.3726806640625 L 296.3538818359375 85.23164367675781 L 298.2030639648438 83.86018371582031 L 308.2137145996094 76.43568420410156 L 291.39697265625 62.24797439575195 L 289.1371459960938 60.34147262573242 L 291.0105590820313 58.05409622192383 L 306.6425170898438 38.96827697753906 L 294.0284729003906 25.90355682373047 L 292.4955749511719 24.31588745117188 L 293.5548400878906 22.37984466552734 L 301.2994689941406 8.225135803222656 C 294.3129272460938 7.725906372070313 279.9217529296875 6.750343322753906 261.4780883789063 5.78326416015625 C 237.2593536376953 4.513351440429688 200.9141540527344 2.999641418457031 165.3016510009766 3.000015258789063 M 165.3016204833984 -7.62939453125e-06 C 234.3679809570313 -0.00067901611328125 306.1690063476563 5.575263977050781 306.1690063476563 5.575263977050781 L 296.1866760253906 23.81980895996094 L 310.6544799804688 38.80451583862305 L 293.3314819335938 59.95501327514648 L 313.0455932617188 76.58714294433594 L 299.9901733398438 86.26980590820313 L 306.1690063476563 101.9003067016602 C 306.1690063476563 101.9003067016602 287.3652038574219 100.0054397583008 252.5174865722656 100.0054397583008 C 235.0904541015625 100.0054397583008 213.6557312011719 100.4789810180664 188.544189453125 101.9003067016602 C 163.4372253417969 103.3213882446289 134.1152954101563 103.7951965332031 106.1843566894531 103.7951965332031 C 50.31735229492188 103.7951965332031 -3.0517578125e-05 101.9003067016602 -3.0517578125e-05 101.9003067016602 L 10.09573364257813 86.66055297851563 L -3.0517578125e-05 76.2718505859375 L 10.09573364257813 58.76263809204102 L 3.07244873046875 39.79034805297852 L 10.09573364257813 24.40814208984375 L -3.0517578125e-05 5.575263977050781 C -3.0517578125e-05 5.575263977050781 4.878173828125 7.308380126953125 23.6015625 7.308380126953125 C 37.60662841796875 7.308380126953125 59.35806274414063 6.338729858398438 92.60914611816406 2.948760986328125 C 113.8184967041016 0.7864761352539063 139.3727416992188 0.00025177001953125 165.3016204833984 -7.62939453125e-06 Z" stroke="none"/>
  </g>
</svg>
