<?xml version="1.0" encoding="utf-8"?>
<!-- Generator: Adobe Illustrator 25.0.1, SVG Export Plug-In . SVG Version: 6.00 Build 0)  -->
<svg version="1.1" id="圖層_1" xmlns="http://www.w3.org/2000/svg" xmlns:xlink="http://www.w3.org/1999/xlink" x="0px" y="0px"
	 viewBox="0 0 60.2 63.3" style="enable-background:new 0 0 60.2 63.3;" xml:space="preserve">
<style type="text/css">
	.st0{fill:#4C2805;}
</style>
<path class="st0" d="M31.6,2c-0.5,0-1,0.2-1.3,0.6S30,3.5,30.1,4c0.5,1.3,0.8,2.7,0.8,4.2c0.1,6-4.7,10.9-10.7,10.9
	c-0.6,0-1.3-0.1-1.9-0.2c-0.5-0.1-0.9,0.1-1.3,0.4c-0.3,0.3-0.5,0.8-0.5,1.2s0.1,0.8,0.1,1.2c0,6-4.9,10.9-10.9,10.9
	c-1.3,0-2.5-0.2-3.7-0.6c-0.5-0.2-1-0.1-1.4,0.2C0.2,32.5,0,33,0,33.5c0.3,7.8,3.6,15,9.2,20.4s13,8.4,20.9,8.4
	c16.6,0,30.1-13.5,30.1-30.1C60.3,16,47.7,2.8,31.6,2z M39.8,44.9c-1,1-2.3,1.3-3.2,1.3c-1.3,0-2.6-0.6-3.2-1.3
	c-1-1-1.3-2.3-1.3-3.2c0-1.3,0.6-2.6,1.3-3.2c1-1,2.3-1.3,3.2-1.3c1.3,0,2.6,0.6,3.2,1.3c1,1,1.3,2.3,1.3,3.2
	C41,43,40.4,44,39.8,44.9z M38.7,28.8c-0.6,0.6-1.5,0.9-2.1,0.9c-0.9,0-1.7-0.4-2.1-0.9c-0.6-0.6-0.9-1.5-0.9-2.1
	c0-0.9,0.4-1.7,0.9-2.1c0.6-0.6,1.5-0.9,2.1-0.9c0.9,0,1.7,0.4,2.1,0.9c0.6,0.6,0.9,1.5,0.9,2.1C39.5,27.5,39.1,28.2,38.7,28.8z
	 M52.2,36.3c-0.7,0.7-1.5,0.9-2.2,0.9c-0.9,0-1.7-0.4-2.2-0.9c-0.7-0.7-0.9-1.5-0.9-2.2c0-0.9,0.4-1.7,0.9-2.2
	c0.7-0.7,1.5-0.9,2.2-0.9c0.9,0,1.7,0.4,2.2,0.9c0.7,0.7,0.9,1.5,0.9,2.2C53.3,34.8,52.8,35.6,52.2,36.3z"/>
</svg>
